<?xml version="1.0" encoding="UTF-8"?>
<svg width="165px" height="22px" viewBox="0 0 165 22" version="1.1" xmlns="http://www.w3.org/2000/svg" xmlns:xlink="http://www.w3.org/1999/xlink">
    <!-- Generator: Sketch 52.2 (67145) - http://www.bohemiancoding.com/sketch -->
    <title>hyundai logo</title>
    <desc>Created with Sketch.</desc>
    <g id="Symbols" stroke="none" stroke-width="1" fill="none" fill-rule="evenodd">
        <g id="Footer" transform="translate(-184.000000, -43.000000)" fill="#A2A2A2">
            <g id="Group-6" transform="translate(184.673522, 42.820262)">
                <path d="M35.7297952,3.72885835 C38.5121172,5.25121936 41.6617993,7.92814037 41.333689,11.4976624 C40.9530988,14.8047844 37.869127,17.1147864 35.1132655,18.5057269 C27.0683902,22.3508792 15.7688729,22.4686284 7.46159758,19.1090264 C4.65325607,17.9412362 1.50357405,15.9333249 0.322553546,12.9150634 C-0.582836706,10.4348321 0.519243294,7.84964087 2.36971455,6.13059012 C6.24132733,2.6135481 11.1757704,1.40606709 16.2544231,0.71059684 C21.7665872,0.0415870924 27.5671707,0.632097345 32.5016137,2.3246876 C33.6041347,2.73173835 34.6929845,3.17759785 35.7297952,3.72885835 M31.1891727,3.62389835 C31.3858625,3.72885835 31.622243,3.7681081 31.7404332,3.96523886 C31.8453932,4.18838911 31.6354732,4.33259886 31.517283,4.47680861 C28.8006712,6.60291012 25.6902389,7.78393062 22.5145374,8.82074138 C20.9004467,9.21412087 19.2731256,9.92282138 17.4751344,9.52944188 C17.0548534,9.42448188 16.6747041,9.14885163 16.4383236,8.74180087 C15.9920231,7.50830037 16.5957636,6.22231987 17.1205636,5.14625936 C17.8160339,3.79456861 19.0499754,2.20649734 20.7557959,2.18047785 C24.4302779,2.15401734 27.8952809,2.70527785 31.1891727,3.62389835 M14.0630524,2.99413835 L14.0101314,3.1908281 C10.5587996,7.11492087 8.28848834,11.6683326 6.13636733,16.1961659 C5.71652733,16.5895454 5.30947657,16.0647454 4.92888632,15.8940752 C3.01270481,14.6345552 1.2804238,12.6001834 1.7792043,10.1856624 C2.58007556,7.03598037 5.82148733,5.35617936 8.52486884,4.21484961 C10.1257293,3.6106681 11.7927411,3.12511785 13.5510416,2.8494876 C13.7349421,2.8494876 13.9713226,2.8234681 14.0630524,2.99413835 M36.9632957,6.45825936 C38.5906167,7.79716087 40.0604977,9.62117163 39.5617172,11.8257726 C38.7484977,15.0804147 35.2049952,16.8126957 32.3834235,17.9147757 C30.8478322,18.4267864 29.2994517,18.9520274 27.6196507,19.1090264 C27.5146907,19.0962372 27.3440204,19.1222567 27.3175599,18.9648167 L27.3572507,18.7809162 C29.7457522,16.0907649 31.5565327,13.0725034 33.144604,10.0149921 C33.879324,8.63684087 34.562005,7.21988087 35.191765,5.82849936 C35.2834947,5.72353936 35.3756655,5.67105936 35.4806255,5.63180961 C36.0711357,5.68428961 36.4909757,6.14382037 36.9632957,6.45825936 M25.0079989,13.4138439 C25.3228789,15.0411649 24.4699687,16.3928557 23.7612682,17.7048557 C22.9740682,18.9255669 21.6744164,19.9751669 20.1128056,19.8177269 C16.6089939,19.7652469 13.1836816,19.2272167 10.0075391,18.2693464 C9.86332934,18.2300967 9.7191196,18.1379259 9.64017909,18.0069464 C9.57446884,17.8230459 9.6666396,17.6523757 9.79761909,17.5346264 C12.6981314,15.1853747 16.1494631,14.0960839 19.5615451,12.9543131 C20.8347364,12.5869531 22.1864272,12.1931326 23.6170584,12.3770331 C24.2075687,12.4559736 24.7980789,12.8625834 25.0079989,13.4138439 Z M86.4931259,19.1908776 L86.4931259,2.76287355 L90.064412,2.76287355 L90.064412,16.0672151 L96.3320234,16.0672151 C97.4420415,16.0672151 97.6113888,15.8965448 97.6113888,14.49061 L97.6113888,2.76287355 L101.183116,2.76287355 L101.183116,15.2301811 C101.229422,18.528924 100.288751,19.1908776 98.0007992,19.1908776 L86.4931259,19.1908776 Z M160.283975,19.1944056 L160.283975,2.76596061 L163.855702,2.76596061 L163.855702,19.1944056 L160.283975,19.1944056 Z M104.754402,2.76287355 L116.262075,2.76287355 C117.902626,2.76287355 119.491139,2.99307993 119.444392,6.31166817 L119.444392,19.1908776 L115.873106,19.1908776 L115.873106,7.49180666 C115.873106,6.07749271 115.703318,5.77937103 114.593299,5.77937103 L108.325688,5.77937103 L108.325688,19.1908776 L104.754402,19.1908776 L104.754402,2.76287355 Z M71.4701747,2.76287355 L75.947292,9.47854951 L80.3706063,2.76287355 L84.7074829,2.76287355 L77.731171,13.2654887 L77.731171,19.1908776 L74.1594439,19.1908776 L74.1594439,13.2646067 L67.1350621,2.76287355 L71.4701747,2.76287355 Z M50.2166567,2.76287355 L53.7879427,2.76287355 L53.7879427,9.23775892 L61.778133,9.23775892 L61.778133,2.76287355 L65.349419,2.76287355 L65.349419,19.1908776 L61.778133,19.1908776 L61.778133,12.4866678 L53.7879427,12.4866678 L53.7879427,19.1908776 L50.2166567,19.1908776 L50.2166567,2.76287355 Z M134.237578,7.30040901 C134.237578,6.40075187 133.689404,5.77937103 132.728888,5.77937103 L126.587405,5.77937103 L126.587405,16.0442826 L132.728888,16.0438416 C134.127767,15.9728393 134.237578,15.1340413 134.237578,14.4685596 L134.237578,7.30040901 Z M137.852083,6.31166817 L137.852083,15.2023976 C137.852083,18.0327895 136.261806,19.1908776 134.280355,19.1908776 L123.015678,19.1908776 L123.015678,2.76287355 L134.280355,2.76287355 C137.322431,2.76287355 137.852083,4.6971364 137.852083,6.31166817 Z M156.71313,2.76596061 L156.71313,19.1944056 L153.141403,19.1944056 L153.141403,14.4716467 L144.994214,14.4716467 L144.994214,19.1944056 L141.422928,19.1944056 L141.422928,6.31519624 C141.422928,4.03959287 142.345076,2.76596061 144.994214,2.76596061 L156.71313,2.76596061 Z M153.141403,5.78289909 L146.434547,5.78289909 C145.309094,5.84949136 144.994214,6.12820867 144.994214,7.49489371 L144.994214,11.2624285 L153.141403,11.2624285 L153.141403,5.78289909 Z" id="hyundai-logo"></path>
            </g>
        </g>
    </g>
</svg>