<svg xmlns="http://www.w3.org/2000/svg" style="position: absolute; width: 0; height: 0; overflow: hidden;"><symbol id="arrow-left" viewBox="0 0 18 14"><title>arrow-left</title><g transform="matrix(-1 0 0 1 18 1)" fill="none" fill-rule="evenodd"><g stroke-width="2"><path d="M10 0l6 6-6 6M15 6H4"/></g><rect y="5" width="2" height="2" rx="1"/></g></symbol><symbol id="arrow-right" viewBox="0 0 18 14"><title>arrow-right</title><g transform="translate(0 1)" fill="none" fill-rule="evenodd"><g stroke-width="2"><path d="M10 0l6 6-6 6M15 6H4"/></g><rect y="5" width="2" height="2" rx="1"/></g></symbol><symbol id="check" viewBox="0 0 25 24"><title>check</title><g fill="none" fill-rule="evenodd"><path d="M23.116 9.691c-.281-.216-.606-.465-.976-.763.125-.458.242-.85.343-1.19.399-1.34.618-2.078.066-2.84-.553-.763-1.323-.784-2.72-.821-.355-.01-.764-.02-1.238-.044a60.014 60.014 0 0 1-.422-1.166c-.464-1.318-.72-2.044-1.615-2.335-.891-.292-1.53.143-2.686.936-.293.202-.63.432-1.025.69a41.914 41.914 0 0 1-.984-.673C10.771.726 10.051.224 9.136.524c-.896.29-1.154 1.015-1.62 2.333-.12.334-.256.72-.424 1.164-.475.022-.883.032-1.238.04-1.397.035-2.168.054-2.722.815-.556.763-.337 1.503.06 2.845.1.34.217.732.34 1.186-.37.297-.694.545-.976.76-1.111.851-1.723 1.32-1.724 2.261-.001.942.61 1.412 1.718 2.264.282.215.605.464.975.762-.125.457-.241.85-.343 1.19-.398 1.34-.618 2.078-.066 2.84.555.764 1.325.785 2.724.822.354.01.762.02 1.234.043.168.444.304.83.422 1.165.465 1.318.72 2.044 1.616 2.337.896.29 1.534-.145 2.687-.937.292-.201.627-.432 1.023-.69.375.247.698.473.985.674.611.557 1.373.922 2.19 1.048.181 0 .361-.03.533-.088.897-.29 1.153-1.015 1.62-2.332.118-.334.255-.72.424-1.165.473-.022.882-.031 1.236-.04 1.399-.035 2.169-.054 2.724-.815.554-.761.337-1.5-.06-2.84-.1-.342-.218-.735-.342-1.19.372-.298.697-.547.98-.763 1.109-.85 1.72-1.318 1.721-2.259.002-.943-.609-1.412-1.717-2.263z" fill="#2DB674"/><path d="M11.184 17.196h-.036a1.001 1.001 0 0 1-.712-.336l-2.92-3.292a1 1 0 0 1 1.496-1.328l2.225 2.508 6.324-6.16a1 1 0 1 1 1.396 1.433l-7.074 6.89a1.003 1.003 0 0 1-.699.285z" fill="#FFF"/><path d="M.807-.066h24v24h-24z"/></g></symbol><symbol id="play" viewBox="0 0 57 57"><title>play</title><path d="M28.191.502C12.825.502.324 13.002.324 28.369c0 15.366 12.501 27.867 27.867 27.867 15.367 0 27.868-12.5 27.868-27.867C56.059 13.003 43.558.502 28.19.502zm0 53.412c-14.084 0-25.545-11.46-25.545-25.545S14.106 2.824 28.191 2.824s25.545 11.46 25.545 25.545-11.46 25.545-25.545 25.545zm13.293-26.583l-20.9-10.45a1.167 1.167 0 0 0-1.131.049 1.17 1.17 0 0 0-.55.989v20.9c0 .402.208.776.55.99a1.174 1.174 0 0 0 1.13.048l20.901-10.45a1.163 1.163 0 0 0 0-2.076z" fill="#FFF" fill-rule="nonzero" opacity=".651"/></symbol><symbol id="search" viewBox="0 0 24 24"><path d="M23.384 21.619l-6.529-6.529a9.284 9.284 0 1 0-1.768 1.768l6.529 6.529c.492.48 1.276.48 1.768 0a1.251 1.251 0 0 0 0-1.768zM2.75 9.5a6.75 6.75 0 1 1 6.75 6.75A6.758 6.758 0 0 1 2.75 9.5z"/></symbol></svg>