<?xml version="1.0" encoding="UTF-8"?>
<svg width="221px" height="179px" viewBox="0 0 221 179" version="1.1" xmlns="http://www.w3.org/2000/svg" xmlns:xlink="http://www.w3.org/1999/xlink">
    <!-- Generator: Sketch 52.4 (67378) - http://www.bohemiancoding.com/sketch -->
    <title>icon-worker</title>
    <desc>Created with Sketch.</desc>
    <defs>
        <path d="M170.71075,170.7105 C131.65825,209.763 68.34175,209.763 29.2895,170.7105 C-9.763,131.658 -9.763,68.3415 29.2895,29.28925 C68.342,-9.76325 131.6585,-9.76325 170.71075,29.28925 C209.76325,68.34175 209.76325,131.65825 170.71075,170.7105 Z" id="path-1"></path>
    </defs>
    <g id="Page-1" stroke="none" stroke-width="1" fill="none" fill-rule="evenodd">
        <g id="Desktop-HD-Home" transform="translate(-12.000000, -2685.000000)">
            <g id="Angebot" transform="translate(-328.000000, 1908.000000)">
                <g id="icon-worker" transform="translate(340.155624, 777.143855)">
                    <path d="M210,100 L210,100.009366 C210,44.7808657 165.2285,0.009365675 110,0.009365675 C54.7715004,0.009365675 10.0000004,44.7808657 10.0000004,100.009366 C10.0000004,114.229591 13.0328504,128.286366 18.8961504,141.241366 L201.0999,141.241366 L201.099902,141.241362 C206.976877,128.287262 210.011577,114.224862 209.999902,99.9998623 L210,100 Z" id="Path" fill="#DCDCDC"></path>
                    <path d="M12.5,141.25 L207.5,141.25" id="Path" stroke="#494949" stroke-width="2.5" stroke-linecap="round" stroke-linejoin="round"></path>
                    <g id="Group" stroke-linecap="round" stroke-linejoin="round" transform="translate(0.000000, 77.500000)" stroke="#494949" stroke-width="2.5">
                        <path d="M1.25,63.75 L7.5,63.75" id="Path"></path>
                        <path d="M212.5,63.75 L218.75,63.75" id="Path"></path>
                        <path d="M146.25,7.35 L146.25,2.15 L146.249998,2.15000069 C140.611723,4.28340569 134.388273,4.28340569 128.749998,2.14999931 L128.749998,7.34999931 L128.749996,7.34999979 C112.602446,11.3664498 101.262996,25.8604248 101.249996,42.4999998 L101.249996,63.7499998 L173.749997,63.7499998 L173.749996,42.4999998 L173.749997,42.5085694 C173.749997,25.8658944 162.410097,11.3643194 146.258247,7.35206942 L146.25,7.35 Z" id="Path" fill="#FFFFFF"></path>
                    </g>
                    <g id="b-link" transform="translate(100.000000, 77.500000)" fill="#FFFFFF">
                        <path d="M46.25,7.35 L46.25,2.15 L46.2499982,2.15000069 C40.6117232,4.28340569 34.3882732,4.28340569 28.7499982,2.14999931 L28.7499982,7.34999931 L28.7499962,7.34999979 C12.6024462,11.3664498 1.2629962,25.8604248 1.2499962,42.4999998 L1.2499962,49.9999998 L13.7499962,49.9999998 L13.7499962,63.7499998 L61.2499962,63.7499998 L61.2499962,49.9999998 L73.7499962,49.9999998 L73.7499962,42.4999998 L73.7499972,42.5085694 C73.7499972,25.8658944 62.4100972,11.3643194 46.2582472,7.35206942 L46.25,7.35 Z" id="b"></path>
                    </g>
                    <polygon id="Path" fill="#BCBCBC" points="113.75 118.75 161.25 118.75 161.25 135 113.75 135"></polygon>
                    <path d="M147.975,177.5 C148.801887,177.506889 149.578687,177.104452 150.05,176.425 C150.501335,175.736058 150.603155,174.875225 150.325,174.1 L141.7,151.6 L141.7,151.6 C141.32894,150.63837 140.405732,150.003045 139.375,150 L112.225,150 C111.18514,149.992681 110.249332,150.629825 109.875,151.6 L101.275,174.1 L101.275,174.1 C100.777937,175.388135 101.41923,176.835325 102.707365,177.332375 C102.99218,177.442279 103.294717,177.499087 103.6,177.499988 L147.975,177.5 Z" id="Path" stroke="#494949" stroke-width="2.5" fill="#FFFFFF" stroke-linejoin="round"></path>
                    <g id="Group" transform="translate(131.550000, 142.725000)" fill="#BCBCBC" stroke="#494949" stroke-linecap="round" stroke-linejoin="round" stroke-width="2.50000107">
                        <polygon id="Path" transform="translate(9.989180, 12.604381) rotate(36.419995) translate(-9.989180, -12.604381) " points="7.4891791 0.729375681 12.4891812 0.729375681 12.4891812 24.4793859 7.4891791 24.4793859"></polygon>
                    </g>
                    <g id="Group" stroke-linecap="round" stroke-linejoin="round" transform="translate(130.000000, 140.000000)" stroke="#494949" stroke-width="2.5">
                        <path d="M20.575,7.25 L16.55,4.275 L18.05,2.275 L18.0499999,2.27500013 C18.9858374,1.25982763 20.5674499,1.19551513 21.5826249,2.13135338 C22.4441949,2.92559338 22.6384974,4.21168588 22.0500099,5.22500338 L20.575,7.25 Z" id="Path"></path>
                        <path d="M2.5,23.4 L0.625,29.2 C0.530853747,29.517715 0.712092247,29.851595 1.0298075,29.9457425 C1.19729925,29.9953743 1.378105,29.9695448 1.525,29.8750008 L6.525,26.3500008 L2.5,23.4 Z" id="Path"></path>
                    </g>
                    <path d="M77.37425,157.34825 C84.208425,158.812715 84.208425,161.187075 77.37425,162.65155 C70.540075,164.116015 59.4597,164.116015 52.625525,162.65155 C45.79135,161.187085 45.79135,158.812725 52.625525,157.34825 C59.4597,155.883785 70.540075,155.883785 77.37425,157.34825" id="Path" fill="#DCDCDC"></path>
                    <g id="Group" transform="translate(107.500000, 17.500000)" fill="#FFFFFF">
                        <path d="M39.3,67.5 L38.75,67.35 L38.75,62.15 L38.7499982,62.1500007 C33.1117232,64.2834057 26.8882732,64.2834057 21.2499982,62.1499993 L21.2499982,67.3499993 L20.7249982,67.4999993 L29.9999982,77.4999993 L39.2999982,67.4999993 L39.3,67.5 Z" id="Path"></path>
                        <path d="M5,32.5 L5,26.25 L5,26.2500038 C4.99999792,12.4428788 16.192875,1.25000377 30,1.25000377 C43.807125,1.25000169 55,12.4428788 55,26.2500038 C55,26.2500038 55,26.2500038 55,26.2500038 L55,32.5000038 L54.9999998,32.5000038 C57.7614248,32.5000037 59.9999998,34.7385788 59.9999998,37.5000038 C59.9999999,40.2614288 57.7614248,42.5000038 54.9999998,42.5000038 L54.6999998,42.5000038 L54.7000001,42.5000018 C52.5237376,56.1345268 39.7065501,65.4233018 26.0720001,63.2470268 C15.3985501,61.5433943 7.02860009,53.1734518 5.32497509,42.5000018 L4.99997509,42.5000018 L4.99997487,42.5000018 C2.23854987,42.5000017 -2.51297012e-05,40.2614243 -2.51297012e-05,37.5000018 C-2.50089955e-05,34.7385768 2.23855237,32.5000018 4.99997487,32.5000018 L5,32.5 Z" id="c"></path>
                    </g>
                    <g id="c-link" stroke-linecap="round" stroke-linejoin="round" transform="translate(107.500000, 17.500000)" stroke="#494949" stroke-width="2.5">
                        <path d="M5,32.5 L5,26.25 L5,26.2500038 C4.99999792,12.4428788 16.192875,1.25000377 30,1.25000377 C43.807125,1.25000169 55,12.4428788 55,26.2500038 C55,26.2500038 55,26.2500038 55,26.2500038 L55,32.5000038 L54.9999998,32.5000038 C57.7614248,32.5000037 59.9999998,34.7385788 59.9999998,37.5000038 C59.9999999,40.2614288 57.7614248,42.5000038 54.9999998,42.5000038 L54.6999998,42.5000038 L54.7000001,42.5000018 C52.5237376,56.1345268 39.7065501,65.4233018 26.0720001,63.2470268 C15.3985501,61.5433943 7.02860009,53.1734518 5.32497509,42.5000018 L4.99997509,42.5000018 L4.99997487,42.5000018 C2.23854987,42.5000017 -2.51297012e-05,40.2614243 -2.51297012e-05,37.5000018 C-2.50089955e-05,34.7385768 2.23855237,32.5000018 4.99997487,32.5000018 L5,32.5 Z" id="c"></path>
                    </g>
                    <g id="Group" transform="translate(120.000000, 57.500000)" fill="#BCBCBC">
                        <path d="M34.08475,0.91525 C35.3051375,2.1356375 35.3051375,4.114275 34.08475,5.334675 C32.8643625,6.5550625 30.885725,6.5550625 29.665325,5.334675 C28.4449375,4.1142875 28.4449375,2.13565 29.665325,0.91525 C30.8857125,-0.3051375 32.86435,-0.3051375 34.08475,0.91525" id="Path"></path>
                        <path d="M5.33475,0.91525 C6.5551375,2.1356375 6.5551375,4.114275 5.33475,5.334675 C4.1143625,6.5550625 2.135725,6.5550625 0.915325,5.334675 C-0.3050625,4.1142875 -0.3050625,2.13565 0.915325,0.91525 C2.1357125,-0.3051375 4.11435,-0.3051375 5.33475,0.91525" id="Path"></path>
                    </g>
                    <path d="M145.000001,66.2499994 C140.794951,70.2373494 134.205051,70.2373494 130.000001,66.2499994" id="Path" stroke="#494949" stroke-width="2.5" stroke-linecap="round" stroke-linejoin="round"></path>
                    <g id="Group" stroke-linecap="round" stroke-linejoin="round" transform="translate(122.500000, 50.000000)" stroke="#494949" stroke-width="2.5">
                        <path d="M1.25,2.5 L1.25000006,2.49999986 C2.13073756,0.428932361 4.52365006,-0.536025139 6.59472506,0.344717361 C7.56490506,0.757294861 8.33743006,1.52981986 8.75000756,2.49999986" id="Path"></path>
                        <path d="M21.275,2.5 L21.2750001,2.49999986 C22.1557376,0.428932361 24.5486501,-0.536025139 26.6197251,0.344717361 C27.5899051,0.757294861 28.3624301,1.52981986 28.7750076,2.49999986" id="Path"></path>
                    </g>
                    <g id="d-link" transform="translate(112.500000, 17.500000)" fill="#FFFFFF">
                        <path d="M25,0 C10.225,0.3 0,10 0,25 L0,31.25 L3.55271368e-14,31.2500004 C1.18817542e-07,32.0368929 0.370485,32.7778654 1,33.2500004 L3.5,35.0250004 C3.95878748,35.3566254 4.59954248,35.2535406 4.93116498,34.7947544 C5.05133148,34.6285101 5.11885373,34.4300344 5.12499873,34.2249994 L5.12499873,22.4999994 L5.12499856,22.5001327 C5.12993886,18.5318077 7.18047106,14.8464077 10.5498736,12.7500577 L10.5498734,12.7500578 C11.6484234,12.0069703 13.1286734,12.2000478 13.9998734,13.2000578 L13.9998728,13.2000571 C16.8866728,16.1348321 20.8881728,17.6990071 24.9999978,17.4999821 L24.999998,17.4999821 C29.162498,17.7393631 33.226073,16.1722446 36.149998,13.1999821 L36.1499978,13.1999824 C37.0211878,12.1999724 38.5014478,12.0068949 39.5999978,12.7499824 L39.5999984,12.7499828 C42.9634484,14.8489028 45.0051734,18.5353578 44.9999984,22.4999828 L44.9999984,34.2249828 L44.9999984,34.2249818 C45.0068167,34.7910318 45.4712184,35.2443793 46.0372709,35.2375618 C46.2591386,35.2348893 46.4741484,35.1602943 46.6499984,35.0249833 L48.9999984,33.2499833 L48.9999985,33.2499832 C49.6295135,32.7778482 49.9999985,32.0368757 49.9999985,31.2499832 L49.9999985,24.9999832 C49.9999993,9.99998319 39.7999985,0.299983188 24.9999985,-1.68123028e-05 L25,0 Z" id="d"></path>
                    </g>
                    <g id="Group" stroke-linecap="round" stroke-linejoin="round" transform="translate(112.500000, 17.500000)" stroke="#494949" stroke-width="2.5">
                        <path d="M25,0 C10.225,0.3 0,10 0,25 L0,31.25 L3.55271368e-14,31.2500004 C1.18817542e-07,32.0368929 0.370485,32.7778654 1,33.2500004 L3.5,35.0250004 C3.95878748,35.3566254 4.59954248,35.2535406 4.93116498,34.7947544 C5.05133148,34.6285101 5.11885373,34.4300344 5.12499873,34.2249994 L5.12499873,22.4999994 L5.12499856,22.5001327 C5.12993886,18.5318077 7.18047106,14.8464077 10.5498736,12.7500577 L10.5498734,12.7500578 C11.6484234,12.0069703 13.1286734,12.2000478 13.9998734,13.2000578 L13.9998728,13.2000571 C16.8866728,16.1348321 20.8881728,17.6990071 24.9999978,17.4999821 L24.999998,17.4999821 C29.162498,17.7393631 33.226073,16.1722446 36.149998,13.1999821 L36.1499978,13.1999824 C37.0211878,12.1999724 38.5014478,12.0068949 39.5999978,12.7499824 L39.5999984,12.7499828 C42.9634484,14.8489028 45.0051734,18.5353578 44.9999984,22.4999828 L44.9999984,34.2249828 L44.9999984,34.2249818 C45.0068167,34.7910318 45.4712184,35.2443793 46.0372709,35.2375618 C46.2591386,35.2348893 46.4741484,35.1602943 46.6499984,35.0249833 L48.9999984,33.2499833 L48.9999985,33.2499832 C49.6295135,32.7778482 49.9999985,32.0368757 49.9999985,31.2499832 L49.9999985,24.9999832 C49.9999993,9.99998319 39.7999985,0.299983188 24.9999985,-1.68123028e-05 L25,0 Z" id="d"></path>
                        <path d="M41.825,57.225 L35.125,58.9 L35.1250004,58.8999999 C32.8553129,59.4750649 30.4533254,58.7544687 28.8750004,57.0249999 C28.3407129,56.5066099 27.6190854,56.2269799 26.8750004,56.2499999 L23.1500004,56.2499999 C22.4059155,56.2269789 21.684288,56.5066099 21.1500005,57.0249999 L21.1500007,57.0249997 C19.5716732,58.7544672 17.1696757,59.4750647 14.9000007,58.8999997 L8.20000068,57.2249997 L8.19999895,57.2249981 C17.7342489,65.8884231 32.2907489,65.8884231 41.8249989,57.2250013 L41.825,57.225 Z" id="Path" fill="#FFFFFF"></path>
                    </g>
                    <g id="Clipped" transform="translate(10.000000, 0.000000)">
                        <mask id="mask-2" fill="white">
                            <use xlink:href="#path-1"></use>
                        </mask>
                        <g id="Path"></g>
                        <g id="Group" mask="url(#mask-2)" stroke="#494949" stroke-linecap="round" stroke-linejoin="round" stroke-width="2.5">
                            <g transform="translate(-12.500000, 20.000000)" id="Path">
                                <path d="M3.775,81.25 C2.3943,81.25 1.275,80.1307 1.275,78.75 L1.275,2.5 C1.275,1.1193 2.3943,0 3.775,0 L96.25,0 C97.6307,0 98.75,1.1193 98.75,2.5 L98.75,78.75 C98.75,80.1307 97.6307,81.25 96.25,81.25 L3.775,81.25 Z" fill="#FFFFFF" fill-rule="evenodd"></path>
                                <path d="M8.775,76.25 C7.3943,76.25 6.275,75.1307 6.275,73.75 L6.275,7.5 C6.275,6.1193 7.3943,5 8.775,5 L91.25,5 C92.6307,5 93.75,6.1193 93.75,7.5 L93.75,73.75 C93.75,75.1307 92.6307,76.25 91.25,76.25 L8.775,76.25 Z" fill="#BCBCBC" fill-rule="evenodd"></path>
                                <path d="M30,61.25 C28.6193,61.25 27.5,60.1307 27.5,58.75 L27.5,52.5 C27.5,51.1193 28.6193,50 30,50 L36.25,50 C37.6307,50 38.75,51.1193 38.75,52.5 L38.75,58.75 C38.75,60.1307 37.6307,61.25 36.25,61.25 L30,61.25 Z" fill="#FFFFFF" fill-rule="evenodd"></path>
                                <path d="M46.25,61.25 C44.8693,61.25 43.75,60.1307 43.75,58.75 L43.75,52.5 C43.75,51.1193 44.8693,50 46.25,50 L52.5,50 C53.8807,50 55,51.1193 55,52.5 L55,58.75 C55,60.1307 53.8807,61.25 52.5,61.25 L46.25,61.25 Z" fill="#FFFFFF" fill-rule="evenodd"></path>
                                <path d="M45,45 C43.6193,45 42.5,43.8807 42.5,42.5 L42.5,17.5 C42.5,16.1193 43.6193,15 45,15 L61.25,15 C62.6307,15 63.75,16.1193 63.75,17.5 L63.75,42.5 C63.75,43.8807 62.6307,45 61.25,45 L45,45 Z" fill="#FFFFFF" fill-rule="evenodd"></path>
                                <path d="M75,27.5 C73.6193,27.5 72.5,26.3807 72.5,25 L72.5,18.75 C72.5,17.3693 73.6193,16.25 75,16.25 L81.25,16.25 C82.6307,16.25 83.75,17.3693 83.75,18.75 L83.75,25 C83.75,26.3807 82.6307,27.5 81.25,27.5 L75,27.5 Z" fill="#FFFFFF" fill-rule="evenodd"></path>
                                <path d="M75,43.75 C73.6193,43.75 72.5,42.6307 72.5,41.25 L72.5,35 C72.5,33.6193 73.6193,32.5 75,32.5 L81.25,32.5 C82.6307,32.5 83.75,33.6193 83.75,35 L83.75,41.25 C83.75,42.6307 82.6307,43.75 81.25,43.75 L75,43.75 Z" fill="#FFFFFF" fill-rule="evenodd"></path>
                                <path d="M40,23.75 L51.25,12.5" fill="none"></path>
                                <path d="M47.5,22.5 L57.5,22.5" fill="none"></path>
                                <path d="M47.5,27.5 L58.75,27.5" fill="none"></path>
                                <path d="M47.5,32.5 L58.75,32.5" fill="none"></path>
                            </g>
                        </g>
                    </g>
                    <path d="M49.9999999,152.5 L80,152.5 L80,155 C80,156.380712 78.8807125,157.5 77.5,157.5 L52.5,157.5 C51.1192874,157.5 49.9999999,156.380712 49.9999999,155 C49.9999999,155 49.9999999,155 49.9999999,155 L49.9999999,152.5 Z" id="Path" stroke="#494949" stroke-width="2.5" fill="#BCBCBC" stroke-linejoin="round"></path>
                    <g id="e-link" transform="translate(57.500000, 125.000000)" fill="#FFFFFF">
                        <path d="M14,9.025 L14.0000001,9.02499879 C13.8592129,10.2973363 12.7800801,11.2577638 11.5000001,11.2499988 L3.50000013,11.2499988 C2.21992009,11.2577644 1.14078759,10.2973363 1.00000009,9.02499879 L0.300000094,2.77499879 C0.220365842,2.06557626 0.447810092,1.35595126 0.925000092,0.824998761 L0.924999917,0.824998955 C1.39764742,0.301301455 2.06955492,0.0016664551 2.77499992,-1.04489796e-06 L12.1999999,-1.04489796e-06 C12.905445,0.0016663752 13.5773525,0.301301455 14.05,0.824998955 C14.5271899,1.35595143 14.7546349,2.06557643 14.6749999,2.77499893 L14,9.025 Z" id="e"></path>
                    </g>
                    <g id="e-link" stroke-linejoin="round" transform="translate(57.500000, 125.000000)" stroke="#494949" stroke-width="2.5">
                        <path d="M14,9.025 L14.0000001,9.02499879 C13.8592129,10.2973363 12.7800801,11.2577638 11.5000001,11.2499988 L3.50000013,11.2499988 C2.21992009,11.2577644 1.14078759,10.2973363 1.00000009,9.02499879 L0.300000094,2.77499879 C0.220365842,2.06557626 0.447810092,1.35595126 0.925000092,0.824998761 L0.924999917,0.824998955 C1.39764742,0.301301455 2.06955492,0.0016664551 2.77499992,-1.04489796e-06 L12.1999999,-1.04489796e-06 C12.905445,0.0016663752 13.5773525,0.301301455 14.05,0.824998955 C14.5271899,1.35595143 14.7546349,2.06557643 14.6749999,2.77499893 L14,9.025 Z" id="e"></path>
                    </g>
                    <g id="f-link" transform="translate(60.000000, 135.000000)" fill="#FFFFFF">
                        <path d="M9.025,1.25 L1,1.25 C0.701720088,1.25260135 0.405382588,1.2018005 0.125000088,1.09999999 L1.25000009,11.25 L8.75000009,11.25 L10.0000001,1.09999999 C9.68818761,1.21426074 9.35673761,1.26525324 9.02500011,1.24999999 Z" id="f"></path>
                    </g>
                    <g id="f-link" stroke-linejoin="round" transform="translate(60.000000, 135.000000)" stroke="#494949" stroke-width="2.5">
                        <path d="M9.025,1.25 L1,1.25 C0.701720088,1.25260135 0.405382588,1.2018005 0.125000088,1.09999999 L1.25000009,11.25 L8.75000009,11.25 L10.0000001,1.09999999 C9.68818761,1.21426074 9.35673761,1.26525324 9.02500011,1.24999999 Z" id="f"></path>
                    </g>
                    <g id="g-link" transform="translate(47.500000, 145.000000)" fill="#FFFFFF">
                        <path d="M32.65,7.5 L2.5,7.5 C2.08578749,7.50123547 1.74900249,7.1664525 1.74776749,6.75224 C1.74748447,6.6573545 1.76520924,6.56327675 1.80000124,6.475 L2.62500124,4.4 L2.6250011,4.40000034 C3.3831386,2.49639534 5.2259761,1.24802534 7.2750011,1.25000034 L28.0000011,1.25000034 L28.0000008,1.25000033 C29.9940883,1.30825533 31.7627258,2.54630033 32.5000008,4.40000033 L33.3250008,6.47500033 C33.4770678,6.86029032 33.2880033,7.29590532 32.9027133,7.44797282 C32.8221138,7.47978407 32.7366116,7.49738732 32.6500008,7.50000182 L32.65,7.5 Z" id="g"></path>
                    </g>
                    <g id="Group" stroke-linejoin="round" transform="translate(47.500000, 77.500000)" stroke="#494949" stroke-width="2.5">
                        <path d="M32.65,75 L2.5,75 C2.08578749,75.0012355 1.74900249,74.6664525 1.74776749,74.25224 C1.74748447,74.1573545 1.76520924,74.0632768 1.80000124,73.975 L2.62500124,71.9 L2.6250011,71.9000003 C3.3831386,69.9963953 5.2259761,68.7480253 7.2750011,68.7500003 L28.0000011,68.7500003 L28.0000008,68.7500003 C29.9940883,68.8082553 31.7627258,70.0463003 32.5000008,71.9000003 L33.3250008,73.9750003 C33.4770678,74.3602903 33.2880033,74.7959053 32.9027133,74.9479728 C32.8221138,74.9797841 32.7366116,74.9973873 32.6500008,75.0000018 L32.65,75 Z" id="g"></path>
                        <path d="M66.25,37.5 L66.25,63.75" id="Path" stroke-linecap="round"></path>
                        <path d="M113.75,37.5 L113.75,63.75" id="Path" stroke-linecap="round"></path>
                        <path d="M80.725,7.5 L80.7249995,7.50000013 C77.6230495,8.30945013 74.6456995,9.53739013 71.8749995,11.1500001 L81.3249995,21.6750001 L81.3249994,21.675 C82.2274094,22.7006 83.7859794,22.811925 84.8249994,21.925 L89.9999994,17.5 L80.725,7.5 Z" id="Path" fill="#FFFFFF" stroke-linecap="round"></path>
                        <path d="M98.675,21.675 L108.15,11.15 L108.150001,11.1500007 C105.377251,9.54152821 102.400501,8.31382571 99.3000012,7.50000071 L90.0000012,17.5000007 L95.2000012,21.9250007 L95.2000014,21.9250009 C96.2352539,22.7953934 97.7750014,22.6846209 98.6750014,21.6750009 L98.675,21.675 Z" id="Path" fill="#FFFFFF" stroke-linecap="round"></path>
                        <path d="M90,17.5 L90,63.75" id="Path" stroke-linecap="round"></path>
                        <path d="M113.75,58.75 L113.75,63.75 C113.75,68.5825 109.8325,72.5 105,72.5 L96.25,72.5 L96.2499997,72.5 C92.7982247,72.5000002 89.9999997,75.298225 89.9999997,78.75 C89.9999999,82.201775 92.7982247,85 96.2499997,85 L105,85 L105,85 C116.73035,84.9862238 126.236225,75.48035 126.25,63.75 L126.25,58.75" id="Path" fill="#FFFFFF" stroke-linecap="round"></path>
                        <g id="b-link" stroke-linecap="round" transform="translate(52.500000, 0.000000)">
                            <path d="M46.25,7.35 L46.25,2.15 L46.2499982,2.15000069 C40.6117232,4.28340569 34.3882732,4.28340569 28.7499982,2.14999931 L28.7499982,7.34999931 L28.7499962,7.34999979 C12.6024462,11.3664498 1.2629962,25.8604248 1.2499962,42.4999998 L1.2499962,49.9999998 L13.7499962,49.9999998 L13.7499962,63.7499998 L61.2499962,63.7499998 L61.2499962,49.9999998 L73.7499962,49.9999998 L73.7499962,42.4999998 L73.7499972,42.5085694 C73.7499972,25.8658944 62.4100972,11.3643194 46.2582472,7.35206942 L46.25,7.35 Z" id="b"></path>
                        </g>
                        <path d="M55,45 L66.25,45 L66.25,53.75 L55,53.75 C53.6192874,53.7499999 52.4999999,52.6307125 52.4999999,51.25 C52.4999999,51.25 52.4999999,51.25 52.4999999,51.25 L52.4999999,47.5 L52.4999999,47.5000004 C52.4999997,46.1192879 53.6192874,45.0000004 54.9999999,45.0000004 L55,45 Z" id="Path" fill="#FFFFFF" stroke-linecap="round"></path>
                    </g>
                    <g id="Group" transform="translate(161.275000, 121.250000)" fill="#FFFFFF" stroke="#494949" stroke-linecap="round" stroke-linejoin="round" stroke-width="2.5">
                        <path d="M2.50000011,1.25 L13.7500001,1.25 L13.7500001,10 L2.50000011,10 C1.1192875,9.99999994 -1.42108547e-14,8.8807125 -1.42108547e-14,7.5 C-1.42108547e-14,7.5 -1.42108547e-14,7.5 -1.42108547e-14,7.5 L-1.42108547e-14,3.75 L2.13162821e-14,3.75000038 C-2.08481744e-07,2.36928788 1.1192875,1.25000038 2.5,1.25000038 L2.50000011,1.25 Z" id="Path" transform="translate(6.875000, 5.625000) rotate(180.000000) translate(-6.875000, -5.625000) "></path>
                    </g>
                    <path d="M120,115 L131.25,115" id="Path" stroke="#494949" stroke-width="2.5" stroke-linecap="round" stroke-linejoin="round"></path>
                    <path d="M143.125,105 C142.089465,105 141.25,105.839465 141.25,106.875 C141.25,107.910535 142.089465,108.75 143.125,108.75 C144.160535,108.75 145,107.910535 145,106.875 L145,106.875005 C144.986538,105.8451 144.15491,105.013468 143.125005,105 L143.125,105 Z" id="Path" fill="#494949"></path>
                    <g id="Group" transform="translate(140.000000, 112.500000)" fill="#494949">
                        <path d="M3.125,0 C2.08946492,4.52647519e-08 1.24999992,0.839465 1.24999992,1.875 C1.24999996,2.910535 2.08946492,3.75 3.12499992,3.75 C4.16053492,3.74999995 4.99999992,2.910535 4.99999992,1.875 L4.99999998,1.87500503 C4.98653818,0.845100031 4.15490998,0.0134675312 3.12500498,3.12249959e-08 L3.125,0 Z" id="Path"></path>
                        <path d="M3.125,7.5 C2.08946492,7.50000005 1.24999992,8.339465 1.24999992,9.375 C1.24999996,10.410535 2.08946492,11.25 3.12499992,11.25 C4.16053492,11.25 4.99999992,10.410535 4.99999992,9.375 L4.99999998,9.37500503 C4.98653818,8.34510003 4.15490998,7.51346753 3.12500498,7.50000003 L3.125,7.5 Z" id="Path"></path>
                        <path d="M3.125,15 C2.08946492,15 1.24999992,15.839465 1.24999992,16.875 C1.24999996,17.910535 2.08946492,18.75 3.12499992,18.75 C4.16053492,18.75 4.99999992,17.910535 4.99999992,16.875 L4.99999998,16.875005 C4.98653818,15.8451 4.15490998,15.0134675 3.12500498,15 L3.125,15 Z" id="Path"></path>
                        <path d="M3.125,22.5 C2.08946492,22.5 1.24999992,23.339465 1.24999992,24.375 C1.24999996,25.410535 2.08946492,26.25 3.12499992,26.25 C4.16053492,26.25 4.99999992,25.410535 4.99999992,24.375 L4.99999998,24.375005 C4.98653818,23.3451 4.15490998,22.5134675 3.12500498,22.5 L3.125,22.5 Z" id="Path"></path>
                    </g>
                </g>
            </g>
        </g>
    </g>
</svg>