<?xml version="1.0" encoding="UTF-8"?>
<svg width="193px" height="193px" viewBox="0 0 193 193" version="1.1" xmlns="http://www.w3.org/2000/svg" xmlns:xlink="http://www.w3.org/1999/xlink">
    <!-- Generator: Sketch 52.5 (67469) - http://www.bohemiancoding.com/sketch -->
    <title>icon-licence</title>
    <desc>Created with Sketch.</desc>
    <g id="Page-1" stroke="none" stroke-width="1" fill="none" fill-rule="evenodd">
        <g id="Desktop-HD-Home" transform="translate(-319.000000, -2447.000000)">
            <g id="Angebot" transform="translate(-328.000000, 1908.000000)">
                <g id="icon-licence" transform="translate(647.428836, 539.026423)">
                    <path d="M163.88232,28.14168 C201.37272,65.63208 201.37272,126.41592 163.88232,163.90608 C126.39192,201.39648 65.60808,201.39648 28.11792,163.90608 C-9.37248,126.41568 -9.37248,65.63184 28.11792,28.14168 C65.60832,-9.34872 126.39216,-9.34872 163.88232,28.14168" id="Path" fill="#E3E3E3"></path>
                    <path d="M122.33832,157.71312 C136.884576,159.325205 136.884576,161.93892 122.33832,163.551 C107.792064,165.163085 84.20784,165.163085 69.66168,163.551 C55.115424,161.938915 55.115424,159.3252 69.66168,157.71312 C84.207936,156.101035 107.79216,156.101035 122.33832,157.71312" id="Path" fill="#989797"></path>
                    <g id="a-link" transform="translate(28.800000, 48.000000)" fill="#FFFFFF">
                        <path d="M3.36,83.64 C2.034528,83.64 0.96,82.565472 0.96,81.24 L0.96,4.632 C0.96,3.306528 2.034528,2.232 3.36,2.232 L131.04,2.232 C132.365472,2.232 133.44,3.306528 133.44,4.632 L133.44,81.24 C133.44,82.565472 132.365472,83.64 131.04,83.64 L3.36,83.64 Z" id="a"></path>
                    </g>
                    <g id="a-link" stroke-linecap="round" stroke-linejoin="round" transform="translate(28.800000, 48.000000)" stroke="#8A8A8A" stroke-width="2.4">
                        <path d="M3.36,83.64 C2.034528,83.64 0.96,82.565472 0.96,81.24 L0.96,4.632 C0.96,3.306528 2.034528,2.232 3.36,2.232 L131.04,2.232 C132.365472,2.232 133.44,3.306528 133.44,4.632 L133.44,81.24 C133.44,82.565472 132.365472,83.64 131.04,83.64 L3.36,83.64 Z" id="a"></path>
                    </g>
                    <g id="b-link" transform="translate(28.800000, 48.000000)" fill="#FFFFFF">
                        <path d="M133.44,4.992 L133.44,24.312 L0.959999982,24.312 L0.96,4.992 L0.959999982,4.99200204 C0.973037118,3.47312844 2.20112638,2.24503404 3.71999998,2.23200204 L130.68,2.23200204 L130.68,2.23200204 C132.198874,2.24503925 133.426968,3.47312844 133.44,4.99200204 L133.44,4.992 Z" id="b"></path>
                    </g>
                    <g id="b-link" stroke-linecap="round" stroke-linejoin="round" transform="translate(28.800000, 48.000000)" stroke="#8A8A8A" stroke-width="2.4">
                        <path d="M133.44,4.992 L133.44,24.312 L0.959999982,24.312 L0.96,4.992 L0.959999982,4.99200204 C0.973037118,3.47312844 2.20112638,2.24503404 3.71999998,2.23200204 L130.68,2.23200204 L130.68,2.23200204 C132.198874,2.24503925 133.426968,3.47312844 133.44,4.99200204 L133.44,4.992 Z" id="b"></path>
                    </g>
                    <g id="Group" transform="translate(37.000000, 55.200000)" fill="#8A8A8A">
                        <path d="M45.656,27.288 C45.6285411,26.8913039 45.9278672,26.5474583 46.3245632,26.5199999 C46.3576693,26.5177084 46.3908944,26.5177084 46.4240005,26.5199999 L48.1040005,26.5199999 C49.9284948,26.3893519 51.5134644,27.7624872 51.6440964,29.586984 C51.6585339,29.7886034 51.6544836,29.9911224 51.631996,30.1920024 L51.631996,30.1920021 C51.7280798,31.9788237 50.3574664,33.5052261 48.570652,33.6012981 C48.4471787,33.6079377 48.3234256,33.6075035 48.2000032,33.5999976 L46.4480032,33.5999976 C46.0523801,33.6400558 45.6991913,33.3518136 45.6591353,32.9561928 C45.6557651,32.922908 45.6547188,32.8894289 45.6560042,32.8559986 L45.656,27.288 Z M47.168,32.28 L48.176,32.28 C49.472,32.28 50.072,31.344 50.072,30.12 C50.072,28.896 49.472,27.888 48.08,27.888 L47.168,27.888 L47.168,32.28 Z" id="Shape" fill-rule="nonzero"></path>
                        <path d="M52.352,27.288 C52.3099258,26.90592 52.5855555,26.5620744 52.967636,26.52 C53.018271,26.5144242 53.0693648,26.5144242 53.1199998,26.52 L54.8959998,26.52 C56.4559998,26.52 57.4159998,27.216 57.4159998,28.776 L57.4159998,28.7759964 C57.3920424,29.8078764 56.5749462,30.6459276 55.5440022,30.6959988 L57.2480022,32.5199988 C57.3710515,32.632254 57.4480276,32.7862068 57.4640023,32.9519988 C57.4772571,33.3759469 57.1443247,33.7303693 56.7203767,33.7436245 C56.7122541,33.7438785 56.704128,33.7440035 56.6960015,33.7439995 C56.4925918,33.772506 56.2860624,33.7208742 56.1199992,33.5999998 L53.8879992,30.8879998 L53.8879992,33.0719998 C53.9626865,33.4895278 53.6847595,33.8885446 53.267232,33.9632326 C52.849704,34.0379198 52.4506872,33.7599929 52.3759992,33.3424654 C52.3599992,33.2530198 52.3599992,33.1614446 52.3759992,33.0719998 L52.352,27.288 Z M53.864,29.688 L54.896,29.688 C55.3714424,29.7286008 55.7897792,29.3760912 55.8303824,28.9006488 C55.8339225,28.8591929 55.8344636,28.8175351 55.8320012,28.7760012 L55.8320012,28.776001 C55.8616606,28.3130314 55.5103916,27.9136762 55.047422,27.884017 C54.996931,27.8807824 54.9462512,27.882116 54.8960002,27.8880018 L53.8640002,27.8880018 L53.864,29.688 Z" id="Shape" fill-rule="nonzero"></path>
                        <path d="M57.944,27.24 L57.944,27.2399997 C57.9039421,26.8443765 58.192184,26.4911901 58.5878072,26.4511317 C58.6210921,26.4477616 58.6545711,26.4467153 58.6880014,26.4480007 C59.0986582,26.4338741 59.4430126,26.7553255 59.457139,27.1659823 C59.4579879,27.1906586 59.4576078,27.2153621 59.4560003,27.2400007 L59.4560003,32.9520007 L59.4560003,32.9520005 C59.4827528,33.3620285 59.1720467,33.7161101 58.7620187,33.7428629 C58.73738,33.7444705 58.7126766,33.7448505 58.6880003,33.7440017 C58.290649,33.7592793 57.9561466,33.4495481 57.9408682,33.0521969 C57.9395829,33.0187666 57.9406291,32.9852873 57.9439993,32.9520026 L57.944,27.24 Z" id="Path"></path>
                        <path d="M59.936,27.552 C59.9130618,27.4250277 59.9130618,27.294972 59.936,27.168 C59.9490342,26.7573072 60.292532,26.4349416 60.7032272,26.447976 C60.7034851,26.4479842 60.7037431,26.4479925 60.704001,26.448001 C61.0170738,26.4583414 61.292493,26.6577831 61.400001,26.952001 L62.888001,31.200001 L64.448001,27.024001 C64.5406383,26.7292019 64.8110562,26.5263899 65.120001,26.5200011 C65.5306793,26.5065394 65.8745153,26.8285475 65.8879769,27.2392283 C65.8879854,27.2394862 65.8879937,27.2397441 65.8880019,27.2400021 C65.9114702,27.3669262 65.9114702,27.497078 65.8880019,27.624002 L63.6800019,33.216002 C63.5360019,33.552002 63.3680019,33.816002 62.9360019,33.816002 C62.5753419,33.8228104 62.2617555,33.569918 62.1920019,33.216002 L59.936,27.552 Z" id="Path"></path>
                        <path d="M66.2,27.384 C66.1466547,26.9632128 66.444524,26.5788528 66.8653112,26.525508 C66.9073165,26.5201827 66.9496904,26.5183404 66.9919993,26.5199998 L69.3919993,26.5199998 C69.7697617,26.4489286 70.1336137,26.6975513 70.2046849,27.0753142 C70.2757561,27.4530766 70.0271333,27.8169286 69.6493705,27.8879998 C69.564326,27.9039998 69.4770435,27.9039998 69.3919993,27.8879998 L67.6159993,27.8879998 L67.6159993,29.3759998 L69.2719993,29.3759998 C69.6421681,29.3492175 69.9639577,29.627587 69.9907417,29.9977534 C69.9925292,30.0224597 69.9929493,30.0472462 69.9920001,30.0719991 L69.9920001,30.0719968 C69.99223,30.456388 69.6808065,30.768184 69.2964153,30.768412 C69.2882755,30.7684168 69.2801362,30.7682789 69.2720013,30.7679983 L67.6160013,30.7679983 L67.6160013,32.2799983 L69.4880013,32.2799983 C69.8723925,32.2799983 70.1840013,32.5916071 70.1840013,32.9759983 C70.1840013,33.3603895 69.8723925,33.6719983 69.4880013,33.6719983 L67.0880013,33.6719983 C66.6923781,33.7120564 66.3391893,33.4238143 66.2991333,33.0281935 C66.2957631,32.9949086 66.2947169,32.9614295 66.2960022,32.9279992 L66.2,27.384 Z" id="Path"></path>
                        <path d="M71,27.288 C70.9579258,26.90592 71.2335555,26.5620744 71.615636,26.52 C71.666271,26.5144242 71.7173648,26.5144242 71.7679998,26.52 L73.3999998,26.52 C74.9599998,26.52 75.9199998,27.216 75.9199998,28.776 L75.9199998,28.7759964 C75.8960424,29.8078764 75.0789462,30.6459276 74.0480022,30.6959988 L75.7520022,32.5199988 C75.8750515,32.632254 75.9520276,32.7862068 75.9680023,32.9519988 C75.9812571,33.3759469 75.6483247,33.7303693 75.2243767,33.7436245 C75.2162541,33.7438785 75.208128,33.7440035 75.2000015,33.7439995 C74.9796312,33.7399811 74.7709032,33.6443139 74.6240016,33.4799995 L72.3920016,30.7679995 L72.3920016,32.9519995 C72.4666889,33.3695275 72.1887619,33.7685443 71.7712344,33.8432323 C71.3537064,33.9179196 70.9546896,33.6399927 70.8800016,33.2224651 C70.8640016,33.1330195 70.8640016,33.0414444 70.8800016,32.9519995 L71,27.288 Z M72.512,29.688 L73.4,29.688 C73.8754424,29.7286008 74.2937792,29.3760912 74.3343824,28.9006488 C74.3379225,28.8591929 74.3384636,28.8175351 74.3360012,28.7760012 L74.3360012,28.776001 C74.3656606,28.3130314 74.0143916,27.9136762 73.551422,27.884017 C73.500931,27.8807824 73.4502512,27.882116 73.4000002,27.8880018 L72.3680002,27.8880018 L72.512,29.688 Z" id="Shape" fill-rule="nonzero"></path>
                        <path d="M79.232,27.24 C79.1573129,26.8224719 79.4352397,26.4234551 79.8527672,26.3487671 C80.2702952,26.2740801 80.669312,26.5520068 80.744,26.9695343 C80.76,27.0589799 80.76,27.150555 80.744,27.2399999 L80.744,32.2799999 L82.544,32.2799999 C82.9281272,32.2658117 83.251028,32.5657079 83.2652168,32.9498351 C83.2661301,32.9745606 83.2657242,32.9993171 83.264001,33.0239994 L83.264001,33.0239992 C83.226891,33.3932872 82.9151466,33.6738592 82.544001,33.6719992 L80.024001,33.6719992 C79.614093,33.7005352 79.258665,33.391372 79.230129,32.981464 C79.227219,32.9396641 79.2278455,32.8976932 79.2320016,32.8559987 L79.232,27.24 Z" id="Path"></path>
                        <path d="M83.504,27.24 C83.4772474,26.8299721 83.7879536,26.4758905 84.1979816,26.4491377 C84.2226202,26.4475301 84.2473237,26.4471501 84.272,26.4479989 C84.6693512,26.4327213 85.0038536,26.7424525 85.019132,27.1398037 C85.0204174,27.1732341 85.0193712,27.2067133 85.016001,27.239998 L85.016001,32.951998 L85.016001,32.9519982 C85.0560589,33.3476214 84.767817,33.7008078 84.3721962,33.7408662 C84.3389113,33.7442364 84.3054323,33.7452826 84.2720019,33.7439972 C83.8613452,33.7581239 83.5169908,33.4366724 83.5028644,33.0260156 C83.5020155,33.0013393 83.5023955,32.9766359 83.5040031,32.9519972 L83.504,27.24 Z" id="Path"></path>
                        <path d="M89.096,26.4 C89.84,26.4 91.28,26.64 91.28,27.528 C91.2932549,27.8856361 91.01408,28.1863009 90.656444,28.1995561 C90.6482993,28.199858 90.6401496,28.2000061 90.6319993,28.2000006 C90.2239993,28.2000006 89.9599993,27.8400006 89.0959993,27.8400006 C87.8479993,27.8400006 87.2239993,28.8960006 87.2239993,30.1200006 C87.2239993,31.3440006 87.8719993,32.3520006 89.0959993,32.3520006 C90.3199993,32.3520006 90.2959993,31.9200006 90.7039993,31.9200006 C91.0737193,31.944523 91.3644601,32.245647 91.3759993,32.6160006 C91.3759993,33.5760006 89.8399993,33.7920006 88.9759993,33.7920006 C86.9347537,33.7920005 85.2799993,32.1372438 85.2799993,30.0960006 C85.2799994,28.0547574 86.9347537,26.4000006 88.9759993,26.4000006 L89.096,26.4 Z" id="Path"></path>
                        <path d="M92.072,27.384 C92.072,26.88 92.312,26.52 92.84,26.52 L95.24,26.52 C95.6101688,26.4932177 95.9319584,26.7715872 95.9587424,27.1417536 C95.96053,27.1664599 95.9609501,27.1912464 95.9600008,27.2159993 L95.9600008,27.2160109 C95.9609425,27.5871445 95.6608432,27.8887717 95.2897072,27.8897149 C95.2731188,27.889757 95.2565344,27.8891849 95.2399884,27.8879996 L93.4879884,27.8879996 L93.4879884,29.3759996 L95.1199884,29.3759996 C95.4889524,29.3359143 95.8205532,29.6025236 95.860638,29.9714876 C95.8642637,30.0048608 95.8653837,30.0384589 95.8639884,30.0719994 L95.8639884,30.0720092 C95.8648983,30.456398 95.554026,30.768746 95.1696372,30.7696556 C95.1530697,30.7696948 95.1365062,30.7691425 95.1199781,30.7679996 L93.4879781,30.7679996 L93.4879781,32.2799996 L95.3359781,32.2799996 C95.7201389,32.2667447 96.0423101,32.5674236 96.0555653,32.9515844 C96.0558459,32.9597194 96.0559839,32.9678586 96.0559791,32.9759984 L96.0559791,32.9759989 C96.0702012,33.3468613 95.7810879,33.6590341 95.4102231,33.6732565 C95.3854702,33.6742057 95.360684,33.6737856 95.3359774,33.671998 L92.8400014,33.671998 C92.4432574,33.6987597 92.0999398,33.39883 92.0731774,33.002086 C92.0715141,32.9774263 92.0711215,32.9526974 92.0720014,32.9279973 L92.072,27.384 Z" id="Path"></path>
                        <path d="M96.656,27.24 C96.5892766,26.8479936 96.8529714,26.4761184 97.2449792,26.409396 C97.296163,26.400684 97.3481391,26.397534 97.4000007,26.4000008 C97.6432431,26.428314 97.8664695,26.548513 98.0240007,26.7360008 L101.216001,30.9840008 L101.216001,27.2400008 L101.216001,27.2400005 C101.175943,26.8443773 101.464185,26.4911909 101.859808,26.4511325 C101.893093,26.4477623 101.926572,26.4467161 101.960002,26.4480015 C102.370659,26.4338748 102.715013,26.7553263 102.72914,27.1659831 C102.729989,27.1906594 102.729609,27.2153628 102.728001,27.2400015 L102.728001,32.9520015 L102.728001,32.9520013 C102.754754,33.3620293 102.444047,33.7161109 102.034019,33.7428637 C102.009381,33.7444713 101.984677,33.7448513 101.960001,33.7440025 C101.718187,33.7112261 101.496472,33.5918417 101.336001,33.4080024 L98.144001,29.2080024 L98.144001,32.9520024 C98.2186883,33.3695304 97.9407613,33.7685472 97.5232338,33.8432352 C97.1057058,33.9179225 96.706689,33.6399956 96.632001,33.222468 C96.616001,33.1330224 96.616001,33.0414473 96.632001,32.9520024 L96.656,27.24 Z" id="Path"></path>
                        <path d="M106.784,26.4 C107.528,26.4 108.944,26.64 108.944,27.528 C108.970511,27.8716056 108.713456,28.1716416 108.369853,28.1981544 C108.353267,28.1994341 108.336636,28.2000501 108.320001,28.2000008 C107.912001,28.2000008 107.624001,27.8400008 106.784001,27.8400008 C105.536001,27.8400008 104.888001,28.8960008 104.888001,30.1200008 L104.888001,30.120001 C104.741787,31.1970178 105.496353,32.1886426 106.57337,32.3348554 C106.643223,32.3443386 106.713535,32.3500617 106.784002,32.3519999 C107.624002,32.3519999 107.960002,31.9199999 108.392002,31.9199999 C108.752281,31.9560621 109.029733,32.2540679 109.040002,32.6159999 C109.040002,33.5759999 107.528002,33.7919999 106.784002,33.7919999 C104.742757,33.7919998 103.088002,32.1372431 103.088002,30.0959999 C103.088002,28.0547567 104.742757,26.3999999 106.784002,26.3999999 L106.784,26.4 Z" id="Path"></path>
                        <path d="M109.736,27.384 C109.682655,26.9632128 109.980524,26.5788528 110.401311,26.525508 C110.443316,26.5201827 110.48569,26.5183404 110.527999,26.5199998 L112.927999,26.5199998 C113.305762,26.4489286 113.669614,26.6975513 113.740685,27.0753142 C113.811756,27.4530766 113.563133,27.8169286 113.18537,27.8879998 C113.100326,27.9039998 113.013044,27.9039998 112.927999,27.8879998 L111.151999,27.8879998 L111.151999,29.3759998 L112.807999,29.3759998 C113.178168,29.3492175 113.499958,29.627587 113.526742,29.9977534 C113.528529,30.0224597 113.528949,30.0472462 113.528,30.0719991 L113.528,30.0719968 C113.52823,30.456388 113.216806,30.768184 112.832415,30.768412 C112.824275,30.7684168 112.816136,30.7682789 112.808001,30.7679983 L111.152001,30.7679983 L111.152001,32.2799983 L113.024001,32.2799983 C113.408392,32.2799983 113.720001,32.5916071 113.720001,32.9759983 C113.720001,33.3603895 113.408392,33.6719983 113.024001,33.6719983 L110.528001,33.6719983 C110.132378,33.7120564 109.779189,33.4238143 109.739133,33.0281935 C109.735763,32.9949086 109.734717,32.9614295 109.736002,32.9279992 L109.736,27.384 Z" id="Path"></path>
                        <path d="M9.83422106,8.73984327 C9.83422106,9.47584955 9.64468845,10.1371385 9.26561754,10.72373 C8.88654663,11.3103215 8.3317833,11.7696268 7.6013109,12.1016597 C6.8708385,12.4336926 6.00479898,12.5997065 5.00316637,12.5997065 C3.80231401,12.5997065 2.81176402,12.3728208 2.03148668,11.9190425 C1.4780985,11.5925435 1.02847734,11.1567568 0.682609728,10.6116694 C0.336742113,10.0665821 0.163810899,9.53672084 0.163810899,9.02206983 C0.163810899,8.72324021 0.267569627,8.46730201 0.475090196,8.25424756 C0.682610765,8.04119311 0.946849659,7.93466748 1.26781481,7.93466748 C1.52790725,7.93466748 1.74787576,8.01767447 1.92772692,8.18369092 C2.10757807,8.34970738 2.26114099,8.59596143 2.38842027,8.92246045 C2.54336897,9.30983218 2.71076638,9.63355941 2.89061754,9.89365186 C3.0704687,10.1537443 3.32364,10.368179 3.65013902,10.5369624 C3.97663805,10.7057458 4.40550746,10.7901362 4.93676012,10.7901362 C5.66723252,10.7901362 6.26073244,10.6199719 6.7172777,10.2796382 C7.17382295,9.93930446 7.40209215,9.51458539 7.40209215,9.00546827 C7.40209215,8.60149489 7.27896513,8.27361731 7.03270738,8.02182569 C6.78644964,7.77003406 6.46825621,7.57773456 6.07811754,7.44492139 C5.68797887,7.31210823 5.16641833,7.17099636 4.51342027,7.02158155 C3.63906694,6.81682792 2.90722205,6.57749112 2.31786363,6.30356397 C1.72850522,6.02963682 1.26089922,5.6561054 0.915031603,5.1829585 C0.569163988,4.7098116 0.396232774,4.12184548 0.396232774,3.41904248 C0.396232774,2.74944278 0.578848136,2.15455941 0.944084337,1.63437452 C1.30932054,1.11418962 1.83779833,0.714372658 2.52953356,0.434911625 C3.22126879,0.155450593 4.03473721,0.0157221723 4.96996324,0.0157221723 C5.71703729,0.0157221723 6.3631083,0.108413303 6.90819567,0.293798344 C7.45328303,0.479183386 7.90567108,0.725437434 8.2653734,1.03256788 C8.62507572,1.33969832 8.88793116,1.6620421 9.05394762,1.99960889 C9.21996407,2.33717568 9.30297106,2.66643671 9.30297106,2.98740186 C9.30297106,3.2806976 9.19921233,3.54493649 8.99169176,3.78012647 C8.78417119,4.01531645 8.52546609,4.13290967 8.21556871,4.13290967 C7.93334074,4.13290967 7.71890603,4.06235374 7.57225817,3.92123975 C7.4256103,3.78012576 7.26651358,3.54908966 7.09496324,3.22812452 C6.87360797,2.76881232 6.60798563,2.41049885 6.29808824,2.15317334 C5.98819086,1.89584784 5.49014897,1.76718702 4.80394762,1.76718702 C4.16755121,1.76718702 3.65429137,1.90691544 3.2641527,2.18637647 C2.87401403,2.4658375 2.67894762,2.80201578 2.67894762,3.19492139 C2.67894762,3.43841219 2.7453532,3.64869655 2.87816637,3.82578077 C3.01097953,4.00286498 3.19359489,4.15504445 3.42601793,4.28232373 C3.65844097,4.40960302 3.89362742,4.5092114 4.13158434,4.58115186 C4.36954126,4.65309232 4.76244097,4.7582345 5.31029527,4.89658155 C5.99649662,5.05706412 6.61766554,5.23414568 7.17382067,5.42783155 C7.72997579,5.62151741 8.20311559,5.85670386 8.59325426,6.13339795 C8.98339293,6.41009205 9.28775186,6.76010482 9.5063402,7.18344678 C9.72492853,7.60678874 9.83422106,8.12558238 9.83422106,8.73984327 Z M19.8947679,9.79404248 C19.8947679,10.0762705 19.8103775,10.3778625 19.6415941,10.6988276 C19.4728107,11.0197928 19.2154891,11.3255352 18.8696214,11.616064 C18.5237538,11.9065928 18.0879672,12.1403958 17.5622484,12.31748 C17.0365296,12.4945642 16.4444132,12.583105 15.7858812,12.583105 C14.3858091,12.583105 13.2928838,12.1749873 12.5070726,11.3587398 C11.7212614,10.5424922 11.3283617,9.44818346 11.3283617,8.07578077 C11.3283617,7.14608862 11.5082101,6.32431949 11.8679125,5.61044873 C12.2276148,4.89657798 12.7477919,4.34458154 13.4284593,3.95444288 C14.1091268,3.56430421 14.9225952,3.3692378 15.868889,3.3692378 C16.4554805,3.3692378 16.9936424,3.45501168 17.483391,3.62656202 C17.9731395,3.79811235 18.3881744,4.01946431 18.7285082,4.29062452 C19.0688419,4.56178473 19.3289304,4.85092571 19.5087816,5.15805616 C19.6886328,5.4651866 19.778557,5.75156069 19.778557,6.01718702 C19.778557,6.28834723 19.6775652,6.51799988 19.4755785,6.70615186 C19.2735918,6.89430384 19.0287212,6.98837842 18.7409593,6.98837842 C18.5528074,6.98837842 18.3964775,6.93995768 18.2719652,6.84311475 C18.1474529,6.74627182 18.0077244,6.589942 17.8527757,6.37412061 C17.5760817,5.95354559 17.2869407,5.63811906 16.9853441,5.42783155 C16.6837475,5.21754404 16.300532,5.11240186 15.8356859,5.11240186 C15.1660862,5.11240186 14.6265408,5.37387385 14.2170336,5.89682569 C13.8075263,6.41977752 13.6027757,7.13502102 13.6027757,8.04257764 C13.6027757,8.46868654 13.6553468,8.86020281 13.7604906,9.21713819 C13.8656343,9.57407357 14.0178138,9.8784325 14.2170336,10.1302241 C14.4162533,10.3820157 14.6569736,10.5729318 14.9392015,10.702978 C15.2214295,10.8330243 15.5313222,10.8980464 15.868889,10.8980464 C16.3226673,10.8980464 16.7114167,10.7929042 17.0351488,10.5826167 C17.3588809,10.3723292 17.645255,10.0513689 17.8942796,9.61972608 C18.0326267,9.36516751 18.1820393,9.16595076 18.3425218,9.02206983 C18.5030044,8.8781889 18.6994543,8.80624952 18.9318773,8.80624952 C19.2085714,8.80624952 19.438224,8.91139169 19.6208421,9.1216792 C19.8034602,9.33196671 19.8947679,9.55608557 19.8947679,9.79404248 Z M24.0866625,1.39365186 L24.0866625,4.75546827 C24.3744243,4.42343536 24.6552646,4.16057991 24.9291918,3.96689405 C25.2031189,3.77320818 25.5060944,3.62794596 25.8381273,3.53110303 C26.1701602,3.4342601 26.5270902,3.38583936 26.9089281,3.38583936 C27.4844518,3.38583936 27.9949447,3.50758293 28.4404222,3.75107373 C28.8858997,3.99456454 29.2359125,4.34872766 29.4904711,4.81357373 C29.6509536,5.08473394 29.7588627,5.38770943 29.8142015,5.72250928 C29.8695403,6.05730913 29.8972093,6.4432916 29.8972093,6.88046827 L29.8972093,11.2217769 C29.8972093,11.6755552 29.7934506,12.0186507 29.58593,12.2510737 C29.3784095,12.4834968 29.103103,12.5997065 28.7600023,12.5997065 C28.0129283,12.5997065 27.6393968,12.1404012 27.6393968,11.2217769 L27.6393968,7.3951167 C27.6393968,6.67017818 27.5314878,6.11264795 27.3156664,5.72250928 C27.099845,5.33237061 26.6903439,5.1373042 26.0871507,5.1373042 C25.6831774,5.1373042 25.3193301,5.25213053 24.995598,5.48178663 C24.6718659,5.71144272 24.4297622,6.02548581 24.2692796,6.4239253 C24.1475342,6.76149209 24.0866625,7.36190926 24.0866625,8.22519483 L24.0866625,11.2217769 C24.0866625,11.6700213 23.9856706,12.0117334 23.7836839,12.2469233 C23.5816973,12.4821133 23.300857,12.5997065 22.9411546,12.5997065 C22.1940806,12.5997065 21.8205492,12.1404012 21.8205492,11.2217769 L21.8205492,1.39365186 C21.8205492,0.934339667 21.9187741,0.58986069 22.1152269,0.360204594 C22.3116797,0.130548498 22.5869862,0.0157221723 22.9411546,0.0157221723 C23.300857,0.0157221723 23.5816973,0.131931948 23.7836839,0.364354985 C23.9856706,0.596778022 24.0866625,0.939873549 24.0866625,1.39365186 Z M33.5495531,4.79697217 L35.0270921,9.86044873 L36.3718187,5.15390577 C36.5156996,4.66139028 36.6222253,4.325212 36.6913988,4.14536084 C36.7605723,3.96550968 36.8906166,3.79396192 37.0815355,3.63071241 C37.2724544,3.46746289 37.5339264,3.38583936 37.8659593,3.38583936 C38.2035261,3.38583936 38.467765,3.46746289 38.6586839,3.63071241 C38.8496029,3.79396192 38.9837975,3.97104348 39.0612718,4.16196241 C39.1387462,4.35288133 39.2466553,4.68352581 39.3850023,5.15390577 L40.7297289,9.86044873 L42.2238695,4.79697217 C42.3234794,4.43173597 42.4037194,4.16749708 42.4645921,4.00424756 C42.5254648,3.84099805 42.6278401,3.69711928 42.7717211,3.57260694 C42.915602,3.4480946 43.1231194,3.38583936 43.3942796,3.38583936 C43.6654399,3.38583936 43.9006263,3.47991394 44.0998461,3.66806592 C44.2990658,3.8562179 44.3986742,4.07756986 44.3986742,4.33212842 C44.3986742,4.56455146 44.3129003,4.91594769 44.14135,5.38632764 L42.2902757,10.8150386 C42.1297932,11.2743508 42.0052827,11.6063787 41.9167406,11.8111323 C41.8281985,12.015886 41.6884701,12.1985013 41.4975511,12.3589839 C41.3066322,12.5194665 41.0451602,12.5997065 40.7131273,12.5997065 C40.3700266,12.5997065 40.1002539,12.5139327 39.9038011,12.3423823 C39.7073483,12.170832 39.5620861,11.9605476 39.4680101,11.711523 C39.3739341,11.4624983 39.2715588,11.138771 39.1608812,10.7403315 L37.8659593,6.32431592 L36.6125414,10.7403315 C36.4465249,11.3545924 36.2666765,11.8180481 36.0729906,12.1307124 C35.8793047,12.4433767 35.5389761,12.5997065 35.0519945,12.5997065 C34.8029698,12.5997065 34.591302,12.5512858 34.4169847,12.4544429 C34.2426674,12.3575999 34.0974052,12.219255 33.9811937,12.0394038 C33.8649822,11.8595527 33.7626069,11.6465014 33.6740648,11.4002437 C33.5855227,11.1539859 33.5163502,10.9589195 33.4665453,10.8150386 L31.6320726,5.38632764 C31.4494545,4.87721051 31.3581468,4.52581429 31.3581468,4.33212842 C31.3581468,4.08863762 31.4549883,3.87005257 31.6486742,3.6763667 C31.84236,3.48268084 32.0803134,3.38583936 32.3625414,3.38583936 C32.7388453,3.38583936 32.9934001,3.49236499 33.1262132,3.70541944 C33.2590264,3.91847389 33.4001383,4.28232116 33.5495531,4.79697217 Z M52.2844164,8.5489253 L47.8517992,8.5489253 C47.8573331,9.06357631 47.9610918,9.51734781 48.1630785,9.91025342 C48.3650652,10.303159 48.6334544,10.5992173 48.9682543,10.798437 C49.3030541,10.9976568 49.6724352,11.0972651 50.0764086,11.0972651 C50.3475688,11.0972651 50.5952063,11.0654458 50.8193285,11.0018062 C51.0434507,10.9381665 51.2606523,10.8385581 51.4709398,10.702978 C51.6812273,10.5673979 51.8749103,10.4221357 52.0519945,10.267187 C52.2290787,10.1122383 52.4587314,9.90195397 52.7409593,9.63632764 C52.8571709,9.53671777 53.0231848,9.48691358 53.2390062,9.48691358 C53.4714292,9.48691358 53.6595784,9.55055227 53.8034593,9.67783155 C53.9473403,9.80511083 54.0192796,9.98495929 54.0192796,10.2173823 C54.0192796,10.422136 53.9390396,10.6614728 53.778557,10.9353999 C53.6180744,11.2093271 53.3759707,11.4721825 53.0522386,11.7239741 C52.7285065,11.9757657 52.3217723,12.1846667 51.8320238,12.3506831 C51.3422752,12.5166996 50.7792112,12.5997065 50.1428148,12.5997065 C48.6874039,12.5997065 47.555742,12.1846716 46.7477953,11.3545894 C45.9398485,10.5245071 45.5358812,9.39837902 45.5358812,7.97617139 C45.5358812,7.30657169 45.6354896,6.68540277 45.8347093,6.112646 C46.0339291,5.53988923 46.3244535,5.04876458 46.7062914,4.63925733 C47.0881292,4.22975007 47.5585021,3.91570699 48.1174242,3.69711866 C48.6763462,3.47853032 49.2961317,3.3692378 49.9767992,3.3692378 C50.8622203,3.3692378 51.6217342,3.55600351 52.2553636,3.92954053 C52.8889931,4.30307756 53.3635164,4.7859015 53.6789476,5.37802686 C53.9943789,5.97015222 54.1520921,6.57333629 54.1520921,7.18759717 C54.1520921,7.757587 53.9888451,8.12696807 53.6623461,8.29575147 C53.335847,8.46453487 52.8765417,8.5489253 52.2844164,8.5489253 Z M47.8517992,7.2623042 L51.9606859,7.2623042 C51.9053471,6.48756075 51.6964462,5.90789532 51.3339769,5.52329053 C50.9715077,5.13868574 50.4942175,4.94638623 49.9020921,4.94638623 C49.3376362,4.94638623 48.8741806,5.14145264 48.5117113,5.53159131 C48.149242,5.92172998 47.9292735,6.49862851 47.8517992,7.2623042 Z M58.3273851,4.67246045 L58.3273851,11.2217769 C58.3273851,11.6755552 58.219476,12.0186507 58.0036546,12.2510737 C57.7878333,12.4834968 57.5139102,12.5997065 57.1818773,12.5997065 C56.8498444,12.5997065 56.5800717,12.4807299 56.3725511,12.242773 C56.1650306,12.004816 56.0612718,11.6644874 56.0612718,11.2217769 L56.0612718,4.7388667 C56.0612718,4.29062227 56.1650306,3.95306055 56.3725511,3.72617139 C56.5800717,3.49928224 56.8498444,3.38583936 57.1818773,3.38583936 C57.5139102,3.38583936 57.7878333,3.49928224 58.0036546,3.72617139 C58.219476,3.95306055 58.3273851,4.26848708 58.3273851,4.67246045 Z M57.2067796,2.33164014 C56.8913484,2.33164014 56.6215757,2.23479866 56.3974535,2.0411128 C56.1733313,1.84742693 56.0612718,1.57350389 56.0612718,1.21933545 C56.0612718,0.898370307 56.1760982,0.634131413 56.4057543,0.426610844 C56.6354104,0.219090275 56.9024161,0.115331547 57.2067796,0.115331547 C57.5000754,0.115331547 57.7601639,0.209406127 57.9870531,0.39755811 C58.2139422,0.585710092 58.3273851,0.859633134 58.3273851,1.21933545 C58.3273851,1.56797001 58.2167091,1.8405096 57.9953539,2.03696241 C57.7739986,2.23341521 57.5111432,2.33164014 57.2067796,2.33164014 Z M66.8273851,5.98398389 L62.6769945,10.6241206 L67.1179125,10.6241206 C67.4776148,10.6241206 67.7487709,10.708511 67.931389,10.8772944 C68.1140071,11.0460778 68.2053148,11.2632794 68.2053148,11.5289058 C68.2053148,11.7834643 68.1153906,11.9909818 67.9355394,12.1514644 C67.7556883,12.3119469 67.4831487,12.392187 67.1179125,12.392187 L60.9753343,12.392187 C60.5436916,12.392187 60.2213478,12.2981124 60.0082933,12.1099605 C59.7952389,11.9218085 59.6887132,11.6644868 59.6887132,11.3379878 C59.6887132,11.1443019 59.7634195,10.9492355 59.9128343,10.7527827 C60.0622491,10.5563299 60.3721419,10.1952495 60.8425218,9.66953077 C61.3405712,9.11614258 61.7929593,8.61533379 62.1996996,8.16708936 C62.6064399,7.71884493 62.9841217,7.29965967 63.3327562,6.909521 C63.6813908,6.51938233 63.9705318,6.18873785 64.2001879,5.91757764 C64.4298439,5.64641743 64.6138428,5.41399788 64.7521898,5.22031202 L61.3820726,5.22031202 C60.9172265,5.22031202 60.5658303,5.17880852 60.3278734,5.0958003 C60.0899165,5.01279207 59.9709398,4.79420702 59.9709398,4.44003858 C59.9709398,4.17994613 60.060864,3.97242868 60.2407152,3.81747998 C60.4205664,3.66253129 60.6765046,3.58505811 61.0085375,3.58505811 L66.2131273,3.58505811 C66.694575,3.58505811 67.0639561,3.65561404 67.3212816,3.79672803 C67.5786071,3.93784202 67.7072679,4.19101331 67.7072679,4.55624952 C67.7072679,4.67799492 67.6823658,4.80388884 67.6325609,4.93393506 C67.582756,5.06398129 67.527418,5.17050691 67.4665453,5.25351514 C67.4056726,5.33652337 67.3226656,5.4375152 67.2175218,5.55649366 C67.1123781,5.67547212 66.9823338,5.81796744 66.8273851,5.98398389 Z" id="Schweiz"></path>
                    </g>
                    <path d="M43.2,121.992 C41.874528,121.992 40.8,120.917472 40.8,119.592 L40.8,82.992 C40.8,81.666528 41.874528,80.592 43.2,80.592 L68.76,80.592 C70.085472,80.592 71.16,81.666528 71.16,82.992 L71.16,119.592 C71.16,120.917472 70.085472,121.992 68.76,121.992 L43.2,121.992 Z" id="Path" stroke="#8A8A8A" stroke-width="2.4" fill="#989797"></path>
                    <g id="Group" transform="translate(40.800000, 84.000000)" stroke="#8A8A8A" stroke-width="2.4">
                        <path d="M8.28,10.128 L8.28,10.128001 C8.28000055,13.786345 11.245656,16.752001 14.904,16.752001 C18.562344,16.7520004 21.528,13.786345 21.528,10.128001 L21.528,6.816001 C21.528,3.157657 18.562344,0.192001 14.904,0.192001 C11.245656,0.192001 8.28,3.157657 8.28,6.816001 L8.28,10.128 Z" id="Path" fill="#FFFFFF"></path>
                        <path d="M20.3520005,2.95199949 C17.3532485,6.32978349 12.5933765,7.52927949 8.35200045,5.97599949" id="Path"></path>
                        <path d="M29.784,36.888 C29.2780968,37.5883849 28.463952,37.9999297 27.6,37.9920001 L2.75999996,37.9920001 C1.45251586,38.0165883 0.304151856,37.1278537 -1.43821919e-07,35.8560001 L-2.31408237e-07,35.8560012 C0.654170169,27.6640812 7.82534377,21.5535372 16.0172638,22.2077052 C23.6929438,22.8206532 29.6330878,29.1882732 29.7119998,36.8880012 L29.784,36.888 Z" id="Path" fill="#FFFFFF"></path>
                        <path d="M55.2,14.544 C55.2,16.0683048 53.9643048,17.304 52.44,17.304 L44.16,17.304 C42.6356952,17.3039999 41.4,16.0683048 41.4,14.544 C41.4000001,13.0196952 42.6356952,11.784 44.16,11.784 L52.44,11.784 L52.4399999,11.784 C53.9509919,11.7706864 55.1866799,12.9847944 55.1999999,14.495784 C55.2001415,14.5118545 55.2001415,14.527926 55.1999999,14.5439964 L55.2,14.544 Z" id="Path" fill="#FFFFFF" stroke-linecap="round" stroke-linejoin="round"></path>
                        <path d="M74.52,14.544 C74.52,16.0683048 73.2843048,17.304 71.76,17.304 L63.48,17.304 C61.9556952,17.3039999 60.72,16.0683048 60.72,14.544 C60.7200001,13.0196952 61.9556952,11.784 63.48,11.784 L71.76,11.784 L71.7600002,11.784 C73.2709922,11.7706866 74.5066802,12.9847944 74.5200002,14.495784 C74.5201418,14.5118545 74.5201418,14.527926 74.5200002,14.5439964 L74.52,14.544 Z" id="Path" fill="#FFFFFF" stroke-linecap="round" stroke-linejoin="round"></path>
                        <path d="M103.488,14.544 L103.488,14.5439863 C103.488517,16.0406119 102.296129,17.2649383 100.800024,17.3040103 L92.448,17.3040103 C90.9236952,17.3040103 89.688,16.0683151 89.688,14.5440103 C89.6880001,13.0197055 90.9236952,11.7840103 92.448,11.7840103 L100.8,11.7840103 C102.301663,11.8102995 103.501416,13.0421791 103.488,14.5440103 L103.488,14.544 Z" id="Path" fill="#FFFFFF" stroke-linecap="round" stroke-linejoin="round"></path>
                        <path d="M55.2,25.584 C55.2,27.1083048 53.9643048,28.344 52.44,28.344 L44.16,28.344 C42.6356953,28.3440001 41.4000001,27.1083072 41.4000001,25.584 C41.4,24.0596952 42.6356929,22.824 44.1600001,22.824 C44.1600002,22.824 44.1600003,22.824 44.1600003,22.824 L52.4400003,22.824 C53.9509922,22.8106864 55.1866802,24.0247944 55.2000002,25.535784 C55.2001418,25.5518545 55.2001418,25.567926 55.2000002,25.5839964 L55.2,25.584 Z" id="Path" fill="#FFFFFF" stroke-linecap="round" stroke-linejoin="round"></path>
                        <path d="M80.04,25.584 C80.04,27.1083048 78.8043048,28.344 77.28,28.344 L63.48,28.344 C61.9556953,28.3440001 60.7200001,27.1083072 60.7200001,25.584 C60.72,24.0596952 61.9556929,22.824 63.4800001,22.824 C63.4800002,22.824 63.4800003,22.824 63.4800003,22.824 L77.2800003,22.824 L77.2800005,22.824 C78.7909925,22.8106866 80.0266805,24.0247944 80.0400005,25.535784 C80.0401421,25.5518545 80.0401421,25.567926 80.0400005,25.5839964 L80.04,25.584 Z" id="Path" fill="#FFFFFF" stroke-linecap="round" stroke-linejoin="round"></path>
                        <path d="M86.952,28.344 L86.9520002,28.344 C83.9034242,28.3307451 81.4212962,30.791376 81.4080482,33.839952 C81.3947933,36.888528 83.8554242,39.370656 86.9040002,39.383904 C89.9525762,39.3971589 92.4347042,36.936528 92.4479522,33.887952 C92.4479869,33.8799694 92.4480043,33.8719868 92.4480044,33.8640042 L92.4480044,33.8640046 C92.4480047,36.1570918 94.3069196,38.0160046 96.6000044,38.0160046 C98.8930916,38.0160042 100.752004,36.1570894 100.752004,33.8640046 L100.752004,33.864031 C100.73907,36.1438246 102.576724,38.002447 104.856508,38.015383 C106.728873,38.0260056 108.3739,36.7750894 108.864004,34.967983 L108.864004,34.9679835 C109.076024,34.2146427 109.587897,33.5813091 110.280004,33.2159835 L114.552004,31.2000099" id="Path" stroke-linecap="round" stroke-linejoin="round"></path>
                    </g>
                </g>
            </g>
        </g>
    </g>
</svg>