<?xml version="1.0" encoding="UTF-8"?>
<svg width="435px" height="435px" viewBox="0 0 435 435" version="1.1" xmlns="http://www.w3.org/2000/svg" xmlns:xlink="http://www.w3.org/1999/xlink">
    <!-- Generator: Sketch 52.2 (67145) - http://www.bohemiancoding.com/sketch -->
    <title>icon-testimonial</title>
    <desc>Created with Sketch.</desc>
    <g id="Symbols" stroke="none" stroke-width="1" fill="none" fill-rule="evenodd">
        <g id="Testimonial" transform="translate(-168.000000, -146.000000)">
            <g transform="translate(0.577490, 0.265545)" id="icon-testimonial">
                <g transform="translate(167.570875, 145.964673)">
                    <path d="M370.694343,63.6551983 C455.49592,148.456775 455.49592,285.947053 370.694343,370.748087 C285.892766,455.549664 148.402488,455.549664 63.6014542,370.748087 C-21.2001228,285.94651 -21.2001228,148.456232 63.6014542,63.6551983 C148.403031,-21.1463788 285.893309,-21.1463788 370.694343,63.6551983" id="Path" fill="#F0F0F0"></path>
                    <path d="M270.121334,389.056346 C299.377851,392.724008 299.377851,398.670449 270.121334,402.338127 C240.864817,406.005788 193.430763,406.005788 164.174463,402.338127 C134.917947,398.670465 134.917947,392.724024 164.174463,389.056346 C193.43098,385.388685 240.865034,385.388685 270.121334,389.056346" id="Path" fill="#C4C4C4"></path>
                    <path d="M132.840061,366.97949 C129.841904,366.97949 127.41137,364.548956 127.41137,361.550799 L127.41137,185.769795 C127.41137,182.771638 129.841904,180.341104 132.840061,180.341104 L301.455193,180.341104 C304.453351,180.341104 306.883884,182.771638 306.883884,185.769795 L306.883884,361.550799 C306.883884,364.548956 304.453351,366.97949 301.455193,366.97949 L132.840061,366.97949 Z" id="Path" stroke="#9B9B9B" fill="#FFFFFF" stroke-linejoin="round"></path>
                    <g id="a-link" transform="translate(148.940337, 201.807830)" fill="#C4C4C4">
                        <path d="M5.45162623,122.122142 C2.45346894,122.122142 0.0229355478,119.691609 0.0229355478,116.693452 L0.0229355478,5.51386657 C0.0229355478,2.51570928 2.45346894,0.0851758886 5.45162623,0.0851758886 L131.017242,0.0851758886 C134.015399,0.0851758886 136.445932,2.51570928 136.445932,5.51386657 L136.445932,116.693452 C136.445932,119.691609 134.015399,122.122142 131.017242,122.122142 L5.45162623,122.122142 Z" id="a"></path>
                    </g>
                    <g id="a-link" stroke-linejoin="round" transform="translate(148.940337, 201.807830)" stroke="#9B9B9B">
                        <path d="M5.45162623,122.122142 C2.45346894,122.122142 0.0229355478,119.691609 0.0229355478,116.693452 L0.0229355478,5.51386657 C0.0229355478,2.51570928 2.45346894,0.0851758886 5.45162623,0.0851758886 L131.017242,0.0851758886 C134.015399,0.0851758886 136.445932,2.51570928 136.445932,5.51386657 L136.445932,116.693452 C136.445932,119.691609 134.015399,122.122142 131.017242,122.122142 L5.45162623,122.122142 Z" id="a"></path>
                    </g>
                    <g id="b-link" transform="translate(175.610652, 24.080451)" fill="#FFFFFF">
                        <path d="M46.2599356,3.06300233 L55.2715622,21.3576899 C56.0185337,22.8291365 57.437474,23.8426676 59.0716456,24.0720352 L79.5378095,26.9492413 L79.5378098,26.9492413 C82.2609225,27.3885896 84.1122797,29.9522736 83.6729358,32.67537 C83.4878658,33.8224469 82.9086467,34.8691039 82.0350075,35.6351301 L67.4318296,49.7497259 C66.2432721,50.8810704 65.694046,52.5287541 65.9660832,54.1469653 L69.4404452,74.2874077 C70.0167061,76.9848699 68.2971358,79.638745 65.5996737,80.2149951 C64.4322718,80.4643886 63.214155,80.287397 62.1659997,79.7160849 L44.0884597,70.2158762 L44.0884601,70.2158764 C42.6448301,69.4533842 40.9177031,69.4533842 39.4740731,70.215876 L21.3965331,79.7160847 L21.3965334,79.7160845 C18.9746099,81.03619 15.9410793,80.1429897 14.6209846,77.7210678 C14.0496746,76.6729125 13.872683,75.4547957 14.1220743,74.2873938 L17.5964364,54.1469514 C17.8684762,52.5287401 17.3192491,50.8810565 16.1306899,49.7497119 L1.52751198,35.6351161 C-0.449633444,33.7117636 -0.493236688,30.5497902 1.43011205,28.572661 C2.19823921,27.7830525 3.20586934,27.2695472 4.29614586,27.1120881 L24.4908752,24.1805951 L24.4908756,24.180595 C26.1158293,23.9616587 27.5226256,22.9422401 28.2366722,21.4662497 L37.3025856,3.06298831 C38.5233082,0.589486744 41.5180725,-0.426090993 43.9915469,0.794636965 C44.9765285,1.28074636 45.7737914,2.07800658 46.2598981,3.06298822 L46.2599356,3.06300233 Z" id="b"></path>
                    </g>
                    <g id="b-link" stroke-linecap="round" stroke-linejoin="round" transform="translate(175.610652, 24.080451)" stroke="#9B9B9B">
                        <path d="M46.2599356,3.06300233 L55.2715622,21.3576899 C56.0185337,22.8291365 57.437474,23.8426676 59.0716456,24.0720352 L79.5378095,26.9492413 L79.5378098,26.9492413 C82.2609225,27.3885896 84.1122797,29.9522736 83.6729358,32.67537 C83.4878658,33.8224469 82.9086467,34.8691039 82.0350075,35.6351301 L67.4318296,49.7497259 C66.2432721,50.8810704 65.694046,52.5287541 65.9660832,54.1469653 L69.4404452,74.2874077 C70.0167061,76.9848699 68.2971358,79.638745 65.5996737,80.2149951 C64.4322718,80.4643886 63.214155,80.287397 62.1659997,79.7160849 L44.0884597,70.2158762 L44.0884601,70.2158764 C42.6448301,69.4533842 40.9177031,69.4533842 39.4740731,70.215876 L21.3965331,79.7160847 L21.3965334,79.7160845 C18.9746099,81.03619 15.9410793,80.1429897 14.6209846,77.7210678 C14.0496746,76.6729125 13.872683,75.4547957 14.1220743,74.2873938 L17.5964364,54.1469514 C17.8684762,52.5287401 17.3192491,50.8810565 16.1306899,49.7497119 L1.52751198,35.6351161 C-0.449633444,33.7117636 -0.493236688,30.5497902 1.43011205,28.572661 C2.19823921,27.7830525 3.20586934,27.2695472 4.29614586,27.1120881 L24.4908752,24.1805951 L24.4908756,24.180595 C26.1158293,23.9616587 27.5226256,22.9422401 28.2366722,21.4662497 L37.3025856,3.06298831 C38.5233082,0.589486744 41.5180725,-0.426090993 43.9915469,0.794636965 C44.9765285,1.28074636 45.7737914,2.07800658 46.2598981,3.06298822 L46.2599356,3.06300233 Z" id="b"></path>
                    </g>
                    <g id="c-link" transform="translate(270.264082, 66.090563)" fill="#FFFFFF">
                        <path d="M52.6887262,4.48241534 L51.602988,21.0399219 L51.6029879,21.0399242 C51.5152336,22.3607573 52.0838049,23.6400391 53.1230213,24.4599994 L66.3147396,34.8830855 C68.0670721,36.2922324 68.3452871,38.8551173 66.9361401,40.6074769 C66.389395,41.287377 65.6387102,41.7736682 64.7947062,41.994692 L48.5086342,46.06621 L48.508634,46.06621 C47.1989949,46.3888702 46.1386848,47.347229 45.6857148,48.6176946 L39.9855896,64.1980369 L39.9855896,64.1980371 C39.2503277,66.2913185 36.957341,67.3922081 34.8640596,66.6569408 C33.9894596,66.3497372 33.248009,65.7495189 32.765431,64.9580484 L23.9166652,50.9520264 C23.2073307,49.8237653 21.9907231,49.1140725 20.6594507,49.0519846 L4.04765723,48.4005417 L4.04765705,48.4005417 C1.83018348,48.3280529 0.0913358546,46.4716736 0.163825161,44.2542055 C0.194394444,43.3190755 0.550413625,42.4239387 1.17045099,41.7232522 L11.7563978,28.9115422 L11.756398,28.911542 C12.6172417,27.8892598 12.9215796,26.5096069 12.5707016,25.2200323 L8.06488832,9.25968172 L8.06488813,9.25968108 C7.43742378,7.13160176 8.65391193,4.89779326 10.7819912,4.27032891 C11.6767589,4.00650648 12.6354548,4.06230365 13.4935788,4.42814692 L28.9110603,10.5625674 L28.9110606,10.5625675 C30.1542579,11.0492187 31.5579924,10.8864665 32.6568571,10.1282722 L46.5000184,0.953784976 L46.500018,0.953785226 C48.4206181,-0.215685035 50.9256169,0.393234912 52.095098,2.3138351 C52.492603,2.96665144 52.6983287,3.71817766 52.6887362,4.48243417 L52.6887262,4.48241534 Z" id="c"></path>
                    </g>
                    <g id="c-link" stroke-linecap="round" stroke-linejoin="round" transform="translate(270.264082, 66.090563)" stroke="#9B9B9B">
                        <path d="M52.6887262,4.48241534 L51.602988,21.0399219 L51.6029879,21.0399242 C51.5152336,22.3607573 52.0838049,23.6400391 53.1230213,24.4599994 L66.3147396,34.8830855 C68.0670721,36.2922324 68.3452871,38.8551173 66.9361401,40.6074769 C66.389395,41.287377 65.6387102,41.7736682 64.7947062,41.994692 L48.5086342,46.06621 L48.508634,46.06621 C47.1989949,46.3888702 46.1386848,47.347229 45.6857148,48.6176946 L39.9855896,64.1980369 L39.9855896,64.1980371 C39.2503277,66.2913185 36.957341,67.3922081 34.8640596,66.6569408 C33.9894596,66.3497372 33.248009,65.7495189 32.765431,64.9580484 L23.9166652,50.9520264 C23.2073307,49.8237653 21.9907231,49.1140725 20.6594507,49.0519846 L4.04765723,48.4005417 L4.04765705,48.4005417 C1.83018348,48.3280529 0.0913358546,46.4716736 0.163825161,44.2542055 C0.194394444,43.3190755 0.550413625,42.4239387 1.17045099,41.7232522 L11.7563978,28.9115422 L11.756398,28.911542 C12.6172417,27.8892598 12.9215796,26.5096069 12.5707016,25.2200323 L8.06488832,9.25968172 L8.06488813,9.25968108 C7.43742378,7.13160176 8.65391193,4.89779326 10.7819912,4.27032891 C11.6767589,4.00650648 12.6354548,4.06230365 13.4935788,4.42814692 L28.9110603,10.5625674 L28.9110606,10.5625675 C30.1542579,11.0492187 31.5579924,10.8864665 32.6568571,10.1282722 L46.5000184,0.953784976 L46.500018,0.953785226 C48.4206181,-0.215685035 50.9256169,0.393234912 52.095098,2.3138351 C52.492603,2.96665144 52.6983287,3.71817766 52.6887362,4.48243417 L52.6887262,4.48241534 Z" id="c"></path>
                    </g>
                    <g id="d-link" transform="translate(324.077851, 137.136680)" fill="#FFFFFF">
                        <path d="M50.77324,16.2238317 L43.7159421,27.081213 C43.1280909,27.9439513 43.006092,29.0419692 43.3902207,30.0127059 L48.1131816,41.8472516 C48.7413246,43.4687853 47.9360261,45.2925105 46.3144935,45.9206535 C45.6930985,46.161367 45.0113581,46.1987224 44.3673851,46.0273441 L32.0985441,42.552982 C31.1166732,42.2742894 30.0605269,42.497705 29.275625,43.150138 L19.4496949,51.293174 C18.1501207,52.4029776 16.196932,52.2491393 15.0871285,50.9495634 C14.6250069,50.4084212 14.363522,49.724536 14.3467257,49.0131223 L13.8038566,36.2556992 L13.8038567,36.2557078 C13.7902201,35.2370195 13.2581105,34.2955922 12.3924026,33.7585047 L1.53502122,26.9726413 L1.53502109,26.9726412 C0.130586239,25.9472159 -0.176655939,23.9774209 0.848769443,22.5729915 C1.17782736,22.1223113 1.62074554,21.7671783 2.13217706,21.5439506 L14.0752966,17.1467111 L14.0752963,17.1467112 C15.0330151,16.771998 15.7575173,15.966997 16.029625,14.9752349 L19.1782656,2.59782019 L19.1782655,2.59782053 C19.6050268,0.94299818 21.2924854,-0.0525422603 22.9473023,0.3742234 C23.6043639,0.543672922 24.1875084,0.924404914 24.6069562,1.45779549 L32.4785577,11.4465863 L32.4785575,11.4465862 C33.1163744,12.2560094 34.1099117,12.7020903 35.138616,12.6408981 L47.8960391,11.8265945 C49.6045565,11.7874467 51.0213145,13.1407394 51.0604662,14.8492515 C51.0713305,15.3234009 50.9730583,15.7937025 50.7732401,16.2238286 L50.77324,16.2238317 Z" id="d"></path>
                    </g>
                    <g id="d-link" stroke-linecap="round" stroke-linejoin="round" transform="translate(324.077851, 137.136680)" stroke="#9B9B9B">
                        <path d="M50.77324,16.2238317 L43.7159421,27.081213 C43.1280909,27.9439513 43.006092,29.0419692 43.3902207,30.0127059 L48.1131816,41.8472516 C48.7413246,43.4687853 47.9360261,45.2925105 46.3144935,45.9206535 C45.6930985,46.161367 45.0113581,46.1987224 44.3673851,46.0273441 L32.0985441,42.552982 C31.1166732,42.2742894 30.0605269,42.497705 29.275625,43.150138 L19.4496949,51.293174 C18.1501207,52.4029776 16.196932,52.2491393 15.0871285,50.9495634 C14.6250069,50.4084212 14.363522,49.724536 14.3467257,49.0131223 L13.8038566,36.2556992 L13.8038567,36.2557078 C13.7902201,35.2370195 13.2581105,34.2955922 12.3924026,33.7585047 L1.53502122,26.9726413 L1.53502109,26.9726412 C0.130586239,25.9472159 -0.176655939,23.9774209 0.848769443,22.5729915 C1.17782736,22.1223113 1.62074554,21.7671783 2.13217706,21.5439506 L14.0752966,17.1467111 L14.0752963,17.1467112 C15.0330151,16.771998 15.7575173,15.966997 16.029625,14.9752349 L19.1782656,2.59782019 L19.1782655,2.59782053 C19.6050268,0.94299818 21.2924854,-0.0525422603 22.9473023,0.3742234 C23.6043639,0.543672922 24.1875084,0.924404914 24.6069562,1.45779549 L32.4785577,11.4465863 L32.4785575,11.4465862 C33.1163744,12.2560094 34.1099117,12.7020903 35.138616,12.6408981 L47.8960391,11.8265945 C49.6045565,11.7874467 51.0213145,13.1407394 51.0604662,14.8492515 C51.0713305,15.3234009 50.9730583,15.7937025 50.7732401,16.2238286 L50.77324,16.2238317 Z" id="d"></path>
                    </g>
                    <g id="e-link" transform="translate(97.019118, 66.090563)" fill="#FFFFFF">
                        <path d="M21.9234945,0.953766397 L35.7123689,9.91110602 L35.7123691,9.91110617 C36.8112338,10.6692988 38.2149683,10.832051 39.4581656,10.3454014 L54.984221,4.48241549 C57.0761723,3.65773225 59.4405734,4.6850555 60.2652566,6.77700905 C60.5838774,7.58524338 60.635616,8.47420777 60.4129094,9.31395021 L55.9070962,25.2743008 L55.907096,25.2743015 C55.5413727,26.5550436 55.8252123,27.9336976 56.6671127,28.9658111 L67.524494,41.7775211 L67.5244941,41.7775212 C68.935932,43.5280134 68.6610774,46.091262 66.9105852,47.5026727 C66.2357067,48.0468338 65.4047587,48.3613722 64.5387143,48.4005022 L47.9812077,49.051945 C46.6444035,49.0950542 45.4195335,49.8095622 44.7239933,50.9519868 L35.8752275,64.9580087 L35.8752277,64.9580084 C34.8896977,66.9791697 32.4522916,67.8187167 30.4311195,66.8331813 C29.3620203,66.3118804 28.5743282,65.349151 28.2750553,64.1979917 L22.4120694,48.6176495 L22.4120695,48.61765 C21.9956184,47.3436069 20.9471808,46.3774031 19.6434373,46.0661654 L3.35736526,41.9946474 C1.20183296,41.4691881 -0.119602638,39.2958118 0.405856619,37.1402796 C0.625593732,36.2388781 1.15056983,35.441322 1.89161868,34.8830626 L14.9204763,24.5685503 C15.9448268,23.7371246 16.5097907,22.4659586 16.4405097,21.1484751 L15.6262061,4.48239474 L15.6262061,4.48239408 C15.5016491,2.26723856 17.1964169,0.370524609 19.4115724,0.245968731 C20.3043151,0.195770334 21.1882851,0.444845556 21.9234873,0.953745135 L21.9234945,0.953766397 Z" id="e"></path>
                    </g>
                    <g id="e-link" stroke-linecap="round" stroke-linejoin="round" transform="translate(97.019118, 66.090563)" stroke="#9B9B9B">
                        <path d="M21.9234945,0.953766397 L35.7123689,9.91110602 L35.7123691,9.91110617 C36.8112338,10.6692988 38.2149683,10.832051 39.4581656,10.3454014 L54.984221,4.48241549 C57.0761723,3.65773225 59.4405734,4.6850555 60.2652566,6.77700905 C60.5838774,7.58524338 60.635616,8.47420777 60.4129094,9.31395021 L55.9070962,25.2743008 L55.907096,25.2743015 C55.5413727,26.5550436 55.8252123,27.9336976 56.6671127,28.9658111 L67.524494,41.7775211 L67.5244941,41.7775212 C68.935932,43.5280134 68.6610774,46.091262 66.9105852,47.5026727 C66.2357067,48.0468338 65.4047587,48.3613722 64.5387143,48.4005022 L47.9812077,49.051945 C46.6444035,49.0950542 45.4195335,49.8095622 44.7239933,50.9519868 L35.8752275,64.9580087 L35.8752277,64.9580084 C34.8896977,66.9791697 32.4522916,67.8187167 30.4311195,66.8331813 C29.3620203,66.3118804 28.5743282,65.349151 28.2750553,64.1979917 L22.4120694,48.6176495 L22.4120695,48.61765 C21.9956184,47.3436069 20.9471808,46.3774031 19.6434373,46.0661654 L3.35736526,41.9946474 C1.20183296,41.4691881 -0.119602638,39.2958118 0.405856619,37.1402796 C0.625593732,36.2388781 1.15056983,35.441322 1.89161868,34.8830626 L14.9204763,24.5685503 C15.9448268,23.7371246 16.5097907,22.4659586 16.4405097,21.1484751 L15.6262061,4.48239474 L15.6262061,4.48239408 C15.5016491,2.26723856 17.1964169,0.370524609 19.4115724,0.245968731 C20.3043151,0.195770334 21.1882851,0.444845556 21.9234873,0.953745135 L21.9234945,0.953766397 Z" id="e"></path>
                    </g>
                    <g id="f-link" transform="translate(59.018283, 136.663542)" fill="#FFFFFF">
                        <path d="M3.19451169,11.8654347 L15.9519348,12.6797383 L15.9519349,12.6797383 C16.9710793,12.7538812 17.9628251,12.3288467 18.6119933,11.5397132 L26.4835948,1.49663547 L26.4835949,1.49663534 C27.6039681,0.166714693 29.590326,-0.0031598952 30.9202521,1.11721492 C31.392875,1.5153692 31.7378835,2.04380013 31.9122856,2.63666201 L35.0609262,15.0140768 L35.0609262,15.0140766 C35.3168314,16.014606 36.0471184,16.8260324 37.0152548,17.1855528 L48.9583743,21.5827923 L48.9583741,21.5827922 C50.5521237,22.2784192 51.280198,24.1343257 50.584571,25.7280753 C50.3613454,26.2395068 50.0062146,26.6824282 49.5555301,27.0114829 L38.6981488,33.8516331 L38.6981489,33.8516331 C37.8247268,34.3812757 37.2899737,35.3273738 37.2866893,36.3488308 L36.7438202,49.1062539 L36.7438203,49.1062521 C36.6419939,50.8422171 35.1521717,52.1669425 33.4162121,52.0651166 C32.768629,52.0271313 32.1485857,51.7900557 31.6408565,51.3863022 L21.8149264,43.1889793 C21.0300245,42.5365483 19.9738782,42.3131306 18.9920072,42.5918233 L6.72316625,46.0661853 C5.0884518,46.5644414 3.35933239,45.6431578 2.8610763,44.0084401 C2.64802734,43.3094527 2.6892235,42.5576171 2.97736917,41.8860935 L7.70033006,30.0515478 L7.70033012,30.0515477 C8.08480302,29.0990404 7.96228453,28.016793 7.37460867,27.1743416 L0.317310793,16.3169602 L0.317310906,16.3169605 C-0.433075292,14.781553 0.203307316,12.9285509 1.73871584,12.1781593 C2.19129384,11.9569743 2.69102762,11.8496236 3.19451697,11.8654314 L3.19451169,11.8654347 Z" id="f"></path>
                    </g>
                    <g id="Group" stroke-linecap="round" stroke-linejoin="round" transform="translate(59.018283, 136.663542)" stroke="#9B9B9B">
                        <path d="M3.19451169,11.8654347 L15.9519348,12.6797383 L15.9519349,12.6797383 C16.9710793,12.7538812 17.9628251,12.3288467 18.6119933,11.5397132 L26.4835948,1.49663547 L26.4835949,1.49663534 C27.6039681,0.166714693 29.590326,-0.0031598952 30.9202521,1.11721492 C31.392875,1.5153692 31.7378835,2.04380013 31.9122856,2.63666201 L35.0609262,15.0140768 L35.0609262,15.0140766 C35.3168314,16.014606 36.0471184,16.8260324 37.0152548,17.1855528 L48.9583743,21.5827923 L48.9583741,21.5827922 C50.5521237,22.2784192 51.280198,24.1343257 50.584571,25.7280753 C50.3613454,26.2395068 50.0062146,26.6824282 49.5555301,27.0114829 L38.6981488,33.8516331 L38.6981489,33.8516331 C37.8247268,34.3812757 37.2899737,35.3273738 37.2866893,36.3488308 L36.7438202,49.1062539 L36.7438203,49.1062521 C36.6419939,50.8422171 35.1521717,52.1669425 33.4162121,52.0651166 C32.768629,52.0271313 32.1485857,51.7900557 31.6408565,51.3863022 L21.8149264,43.1889793 C21.0300245,42.5365483 19.9738782,42.3131306 18.9920072,42.5918233 L6.72316625,46.0661853 C5.0884518,46.5644414 3.35933239,45.6431578 2.8610763,44.0084401 C2.64802734,43.3094527 2.6892235,42.5576171 2.97736917,41.8860935 L7.70033006,30.0515478 L7.70033012,30.0515477 C8.08480302,29.0990404 7.96228453,28.016793 7.37460867,27.1743416 L0.317310793,16.3169602 L0.317310906,16.3169605 C-0.433075292,14.781553 0.203307316,12.9285509 1.73871584,12.1781593 C2.19129384,11.9569743 2.69102762,11.8496236 3.19451697,11.8654314 L3.19451169,11.8654347 Z" id="f"></path>
                        <path d="M158.129344,159.145813 L158.129343,159.145813 C171.685761,159.139661 183.677033,150.354808 187.769994,137.43105 C197.650211,137.43105 198.247367,121.796421 189.344314,121.796421 L189.344314,115.444853 C189.344314,98.2052855 175.36891,84.2298814 158.129343,84.2298814 C140.889776,84.2298814 126.914372,98.2052855 126.914372,115.444853 L126.914372,121.687847 C118.011319,121.687847 118.608475,137.322476 128.488692,137.322476 L128.488691,137.322473 C132.543076,150.289172 144.543555,159.124692 158.129342,159.145809 L158.129344,159.145813 Z" id="Path" fill="#FFFFFF"></path>
                    </g>
                    <path d="M207.050262,255.148462 L207.050262,255.148462 C204.891571,255.148462 203.141605,256.898427 203.141605,259.057119 C203.141605,261.215811 204.891571,262.965776 207.050262,262.965776 C209.208954,262.965776 210.95892,261.215811 210.95892,259.057119 C210.95892,259.057119 210.95892,259.057119 210.95892,259.057119 C210.95892,256.898427 209.208954,255.148462 207.050262,255.148462 L207.050262,255.148462 Z" id="Path" fill="#9B9B9B"></path>
                    <path d="M227.299279,255.148462 L227.299279,255.148462 C225.140587,255.148462 223.390621,256.898427 223.390621,259.057119 C223.390621,261.215811 225.140587,262.965776 227.299279,262.965776 C229.45797,262.965776 231.207936,261.215811 231.207936,259.057119 C231.207936,259.057119 231.207936,259.057119 231.207936,259.057119 L231.207936,259.057119 C231.238132,256.928621 229.537126,255.178656 227.408629,255.148462 C227.372181,255.147944 227.335727,255.147944 227.299279,255.148462 L227.299279,255.148462 Z" id="Path" fill="#9B9B9B"></path>
                    <path d="M200.699237,265.516718 C201.928857,266.746338 201.928857,268.739949 200.699237,269.969569 C199.469617,271.199189 197.476006,271.199189 196.246386,269.969569 C195.016766,268.739949 195.016766,266.746338 196.246386,265.516718 C197.476006,264.287098 199.469617,264.287098 200.699237,265.516718" id="Path" fill="#C4C4C4"></path>
                    <path d="M238.118659,265.554719 C239.32708,266.76314 239.32708,268.722376 238.118659,269.930797 C236.910238,271.139219 234.951002,271.139219 233.742581,269.930797 C232.53416,268.722376 232.53416,266.76314 233.742581,265.554719 C234.951002,264.346298 236.910238,264.346298 238.118659,265.554719" id="Path" fill="#C4C4C4"></path>
                    <path d="M209.384599,277.406094 L209.3846,277.406094 C214.12015,280.556114 220.283674,280.556114 225.019229,277.406093" id="Path" stroke="#9B9B9B" stroke-linecap="round" stroke-linejoin="round"></path>
                    <g id="Group" stroke-linecap="round" stroke-linejoin="round" transform="translate(179.146792, 212.665212)" stroke="#9B9B9B">
                        <path d="M20.9004591,26.9029078 C34.6350465,40.1489131 58.1955641,37.7602892 72.4187336,33.200189 L72.4187339,33.2001964 C71.6645585,14.2366942 55.6802348,-0.524892959 36.7167325,0.22926075 C18.8106849,0.941380107 4.45793251,15.2940945 3.74579686,33.2001421 L3.74579686,44.0575235 C3.74579686,44.0575235 20.9004594,39.7688579 20.9004594,26.902861" id="g" fill="#FFFFFF"></path>
                        <g id="g-link" transform="translate(3.311964, 0.000000)">
                            <path d="M17.5884954,26.9029078 C31.3230828,40.1489131 54.8836004,37.7602892 69.10677,33.200189 L69.1067702,33.2001964 C68.3525948,14.2366942 52.3682711,-0.524892959 33.4047689,0.22926075 C15.4987212,0.941380107 1.14596882,15.2940945 0.433833172,33.2001421 L0.433833172,44.0575235 C0.433833172,44.0575235 17.5884957,39.7688579 17.5884957,26.902861" id="g"></path>
                        </g>
                        <path d="M20.9004591,26.9029078 L20.9004594,26.9029081 C19.696555,25.995117 18.6510109,24.8945368 17.8061057,23.6456937" id="Path"></path>
                        <path d="M75.5673764,111.264763 C54.9743984,90.5173389 21.4613536,90.3921533 0.713875022,110.985105 C0.620309366,111.077974 0.527090604,111.171193 0.43422145,111.264763 L75.5673764,111.264763 Z" id="Path" fill="#FFFFFF"></path>
                        <path d="M28.7177737,111.264761 L47.2838958,111.264761 L47.2838962,111.264761 C51.2515308,108.337187 53.6056065,103.709489 53.6354643,98.7787721 C53.6616165,98.5624117 53.6616165,98.3436897 53.6354643,98.1273293 L53.6354607,98.127328 C43.5525906,94.7973963 32.66622,94.7973963 22.58335,98.1273305 C22.58335,98.1273305 22.58335,98.5616257 22.58335,98.7787733 L22.5833496,98.7788282 C22.5534036,103.673347 24.8252577,108.29744 28.7178244,111.264817 L28.7177737,111.264761 Z" id="Path" fill="#FFFFFF"></path>
                    </g>
                </g>
            </g>
        </g>
    </g>
</svg>