<?xml version="1.0" encoding="UTF-8"?>
<svg width="211px" height="158px" viewBox="0 0 211 158" version="1.1" xmlns="http://www.w3.org/2000/svg" xmlns:xlink="http://www.w3.org/1999/xlink">
    <!-- Generator: Sketch 52.5 (67469) - http://www.bohemiancoding.com/sketch -->
    <title>icon-trailer</title>
    <desc>Created with Sketch.</desc>
    <g id="Page-1" stroke="none" stroke-width="1" fill="none" fill-rule="evenodd">
        <g id="Desktop-HD-Home" transform="translate(-303.000000, -2696.000000)">
            <g id="icon-trailer" transform="translate(303.000000, 2696.702106)">
                <path d="M200.451003,100 L200.451006,100.004878 C200.417979,44.7763783 155.619756,0.03162825 100.391256,0.06462825 C45.1627563,0.097656 0.41800634,44.8958783 0.45100634,100.124378 C0.459486915,114.305478 3.48405634,128.322628 9.32395634,141.245378 L191.525956,141.245378 L191.52596,141.245371 C197.412085,128.291921 200.45536,114.227871 200.45096,99.9998706 L200.451003,100 Z" id="Path-Copy" fill="#DCDCDC"></path>
                <path d="M102.812866,20.1478006 C101.957179,20.1485969 101.109216,20.3097098 100.312866,20.6228006 L100.312866,20.6227999 C99.1360986,14.4095999 93.1453411,10.3267499 86.9321411,11.5035249 C82.3067411,12.3795674 78.6889161,15.9973999 77.8128661,20.6227999 L77.8128659,20.6227998 C77.0168459,20.3085623 76.1686659,20.1474073 75.3128659,20.1477998 L75.3128656,20.1477998 C71.5020906,20.1478 68.4128656,23.2370248 68.4128656,27.0477998 C68.4128657,30.8585748 71.5020906,33.9477998 75.3128656,33.9477998 L102.812866,33.9477998 L102.812865,33.9477998 C106.62364,33.9478 109.712865,30.8585748 109.712865,27.0477998 C109.712865,23.2370248 106.62364,20.1477998 102.812865,20.1477998 L102.812866,20.1478006 Z" id="d" stroke="#494949" stroke-width="2.5" stroke-linejoin="round"></path>
                <path d="M2.9510033,141.25 L197.951003,141.25" id="Path-Copy-2" stroke="#494949" stroke-width="2.5" stroke-linecap="round" stroke-linejoin="round"></path>
                <path d="M202.951003,141.25 L209.201003,141.25" id="Path-Copy-3" stroke="#494949" stroke-width="2.5" stroke-linecap="round" stroke-linejoin="round"></path>
                <path d="M80.4608892,120.45 L153.485707,120.45 L153.485707,126.575 C153.485707,127.955713 152.79156,129.075 151.935286,129.075 L80.4608892,129.075 L80.4608892,120.45 Z" id="Path-Copy-8" stroke="#494949" stroke-width="2.5" fill="#FFFFFF" stroke-linecap="round" stroke-linejoin="round"></path>
                <g id="a-link-copy" stroke-linecap="round" stroke-linejoin="round" transform="translate(80.460889, 71.000000)" stroke="#494949" stroke-width="2.5">
                    <path d="M-6.9504818e-08,0.575 L75.2109835,0.575 C76.0891631,0.57499994 76.8010677,1.6942875 76.8010677,3.075 L76.8010677,46.95 C76.8010677,48.3307125 76.0891631,49.45 75.2109834,49.45 C75.2109834,49.45 75.2109834,49.45 75.2109834,49.45 L-6.9504818e-08,49.45 L-6.9504818e-08,0.575 Z" id="a"></path>
                </g>
                <path d="M76.3760035,129.075 L74.0010035,129.075 C71.9519834,129.073016 70.1091284,130.321395 69.3510034,132.225 L68.5260034,134.3 L68.5260033,134.3 C68.2219658,135.010913 68.5518026,135.833693 69.2627158,136.13773 C69.4484181,136.21715 69.6491058,136.255449 69.8510033,136.249999 L73.5510033,136.249999 L73.5510032,136.249999 C75.1802432,136.249999 76.5010032,134.929239 76.5010032,133.299999 C76.5010032,133.299999 76.5010032,133.299999 76.5010032,133.299999 L76.3760035,129.075 Z" id="Path-Copy-10" stroke="#494949" stroke-width="2.5" fill="#FFFFFF" stroke-linecap="round" stroke-linejoin="round"></path>
                <polygon id="Path-Copy-9" stroke="#494949" stroke-width="2.5" fill="#FFFFFF" stroke-linecap="round" stroke-linejoin="round" points="73.9606811 129.074999 148.876918 129.074999 148.876918 134.824999 73.9606811 134.824999"></polygon>
                <g id="Group-2" transform="translate(89.451003, 125.000000)">
                    <g id="e-link-copy" stroke-linecap="round" stroke-linejoin="round" transform="translate(0.951003, 0.500000)" fill="#D8D8D8" stroke="#494949" stroke-width="2.5">
                        <path d="M17.74175,3.13325 C21.68605,7.07755 21.68605,13.4725 17.74175,17.4168 C13.79745,21.3611 7.4025,21.3611 3.4582,17.4168 C-0.4861,13.4725 -0.4861,7.07755 3.4582,3.13325 C7.4025,-0.81105 13.79745,-0.81105 17.74175,3.13325" id="e"></path>
                    </g>
                    <path d="M11.4510033,10.45 C11.6437703,10.4356603 11.8116633,10.5803042 11.8260033,10.77307 C11.8272892,10.7903557 11.8272892,10.807713 11.8260033,10.8249987 C11.8260033,11.0321055 11.6581101,11.1999987 11.4510033,11.1999987 C11.4510033,11.1999987 11.4510033,11.1999987 11.4510033,11.1999987 C11.2438965,11.1999987 11.0760033,11.0321055 11.0760033,10.8249987 C11.0760033,10.8249987 11.0760033,10.8249987 11.0760033,10.8249987 C11.0760033,10.6178921 11.2438965,10.4499988 11.4510033,10.4499988 C11.4510033,10.4499988 11.4510033,10.4499988 11.4510033,10.4499988 L11.4510033,10.45 Z M11.4510033,7.94999881 L11.4510032,7.94999881 C9.86318567,7.94999887 8.57600317,9.23718131 8.57600317,10.8249988 C8.57600324,12.4128163 9.86318567,13.6999988 11.4510032,13.6999988 C13.0388207,13.6999987 14.3260032,12.4128163 14.3260032,10.8249988 C14.3260032,9.23718131 13.0388207,7.94999881 11.4510032,7.94999881 C11.4510032,7.94999881 11.4510032,7.94999881 11.4510032,7.94999881 L11.4510033,7.94999881 Z" id="Shape-Copy" fill="#494949" fill-rule="nonzero"></path>
                </g>
                <g id="Group-2-Copy" transform="translate(124.401003, 125.000000)">
                    <g id="e-link-copy" stroke-linecap="round" stroke-linejoin="round" transform="translate(0.951003, 0.500000)" fill="#D8D8D8" stroke="#494949" stroke-width="2.5">
                        <path d="M17.74175,3.13325 C21.68605,7.07755 21.68605,13.4725 17.74175,17.4168 C13.79745,21.3611 7.4025,21.3611 3.4582,17.4168 C-0.4861,13.4725 -0.4861,7.07755 3.4582,3.13325 C7.4025,-0.81105 13.79745,-0.81105 17.74175,3.13325" id="e"></path>
                    </g>
                    <path d="M11.4510033,10.45 C11.6437703,10.4356603 11.8116633,10.5803042 11.8260033,10.77307 C11.8272892,10.7903557 11.8272892,10.807713 11.8260033,10.8249987 C11.8260033,11.0321055 11.6581101,11.1999987 11.4510033,11.1999987 C11.4510033,11.1999987 11.4510033,11.1999987 11.4510033,11.1999987 C11.2438965,11.1999987 11.0760033,11.0321055 11.0760033,10.8249987 C11.0760033,10.8249987 11.0760033,10.8249987 11.0760033,10.8249987 C11.0760033,10.6178921 11.2438965,10.4499988 11.4510033,10.4499988 C11.4510033,10.4499988 11.4510033,10.4499988 11.4510033,10.4499988 L11.4510033,10.45 Z M11.4510033,7.94999881 L11.4510032,7.94999881 C9.86318567,7.94999887 8.57600317,9.23718131 8.57600317,10.8249988 C8.57600324,12.4128163 9.86318567,13.6999988 11.4510032,13.6999988 C13.0388207,13.6999987 14.3260032,12.4128163 14.3260032,10.8249988 C14.3260032,9.23718131 13.0388207,7.94999881 11.4510032,7.94999881 C11.4510032,7.94999881 11.4510032,7.94999881 11.4510032,7.94999881 L11.4510033,7.94999881 Z" id="Shape-Copy" fill="#494949" fill-rule="nonzero"></path>
                </g>
                <path d="M86.7894244,83.075 L150.790314,83.075" id="Path-Copy-4" stroke="#494949" stroke-width="2.5" stroke-linecap="round" stroke-linejoin="round"></path>
                <path d="M86.7894244,88.825 L150.790314,88.825" id="Path-Copy-5" stroke="#494949" stroke-width="2.5" stroke-linecap="round" stroke-linejoin="round"></path>
                <path d="M86.7894244,104.625 L150.790314,104.625" id="Path-Copy-6" stroke="#494949" stroke-width="2.5" stroke-linecap="round" stroke-linejoin="round"></path>
                <path d="M86.7894244,110.375 L150.790314,110.375" id="Path-Copy-7" stroke="#494949" stroke-width="2.5" stroke-linecap="round" stroke-linejoin="round"></path>
                <g id="Group-3" transform="translate(26.456934, 55.075000)">
                    <path d="M38.8078283,97.5494198 C47.5653383,98.5628303 47.5653383,100.20589 38.8078283,101.219305 C30.0503183,102.232715 15.8515283,102.232715 7.0940783,101.219305 C-1.6634317,100.205894 -1.6634317,98.5628348 7.0940783,97.5494198 C15.8515883,96.5360093 30.0503783,96.5360093 38.8078283,97.5494198" id="Path" fill="#DDDDDD"></path>
                    <path d="M18.1660283,98.5293698 C19.1184833,98.5081828 19.8734333,97.7188898 19.8522383,96.7664348 C19.8464952,96.5082608 19.78286,96.2546693 19.6660268,96.0243713 L19.6660267,96.0243711 C18.7595932,94.3857411 17.0386267,93.3646311 15.1660267,93.3543711 L14.2960267,93.3543711 C12.4234268,93.3646313 10.7024618,94.3857381 9.79602678,96.0243711 L9.79602664,96.0243714 C9.36500914,96.8739849 9.70434874,97.9121364 10.5539631,98.3431614 C10.7842611,98.459994 11.0378526,98.5236294 11.2960266,98.5293714 L18.1660283,98.5293698 Z" id="Path" stroke="#4A4A4A" stroke-width="1.5" fill="#FFFFFF" stroke-linecap="round" stroke-linejoin="round"></path>
                    <path d="M27.7210283,98.5293698 C26.7685732,98.5081828 26.0136232,97.7188898 26.0348182,96.7664348 C26.0405612,96.5082608 26.1041965,96.2546693 26.2210297,96.0243713 L26.2210299,96.024371 C27.1274634,94.385741 28.8484299,93.364631 30.7210299,93.354371 L31.5910299,93.354371 C33.4636299,93.3646312 35.1845949,94.385738 36.0910299,96.024371 C36.5220475,96.8739846 36.1827082,97.9121361 35.3330935,98.3431611 C35.1027955,98.4599937 34.849204,98.5236291 34.59103,98.5293726 L27.7210283,98.5293698 Z" id="Path" stroke="#4A4A4A" stroke-width="1.5" fill="#FFFFFF" stroke-linecap="round" stroke-linejoin="round"></path>
                    <g id="e-link" transform="translate(10.951028, 65.229370)" fill="#FFFFFF">
                        <path d="M0.795,1.37999913 L0.795,28.815 L0.795000196,28.8149999 C1.5792737,28.3619129 2.4692552,28.1238944 3.3750002,28.1249999 L4.2450002,28.1249999 C6.0341553,28.1254601 7.6961553,29.0500544 8.6400003,30.5699999 L9.2250003,11.8349999 L9.22500033,11.8349994 C9.33760278,10.3065444 10.6679373,9.15877438 12.1963803,9.27137938 C13.5681873,9.37244188 14.6589303,10.4631894 14.7600003,11.8349994 L15.3600003,30.5699994 L15.3600005,30.5699991 C16.3017815,29.0478891 17.9650955,28.1225691 19.7550005,28.1249991 L20.6250005,28.1249991 L20.6250008,28.1249991 C21.5305583,28.1253044 22.4201858,28.3632276 23.2050008,28.8149991 L23.2050008,1.37999913 L0.795,1.37999913 Z" id="e"></path>
                    </g>
                    <g id="Group" stroke-linecap="round" stroke-linejoin="round" transform="translate(10.951028, 33.729370)" stroke="#4A4A4A" stroke-width="1.5">
                        <path d="M0.795,32.8799991 L0.795,60.315 L0.795000196,60.3149999 C1.5792737,59.8619129 2.4692552,59.6238944 3.3750002,59.6249999 L4.2450002,59.6249999 C6.0341553,59.6254601 7.6961553,60.5500544 8.6400003,62.0699999 L9.2250003,43.3349999 L9.22500033,43.3349994 C9.33760278,41.8065444 10.6679373,40.6587744 12.1963803,40.7713794 C13.5681873,40.8724419 14.6589303,41.9631894 14.7600003,43.3349994 L15.3600003,62.0699994 L15.3600005,62.0699991 C16.3017815,60.5478891 17.9650955,59.6225691 19.7550005,59.6249991 L20.6250005,59.6249991 L20.6250008,59.6249991 C21.5305583,59.6253044 22.4201858,59.8632276 23.2050008,60.3149991 L23.2050008,32.8799991 L0.795,32.8799991 Z" id="e"></path>
                        <path d="M6.21,1.995 L8.55,6.15 C8.55,6.15 8.55,27.42 7.74,34.65 L16.26,34.65 C15.45,27.465 15.45,6.15 15.45,6.15 L17.79,1.995 L17.7899993,1.99499974 C14.0360393,0.654778243 9.93395928,0.654778243 6.17999928,1.99500026 L6.21,1.995 Z" id="Path" fill="#FFFFFF"></path>
                        <path d="M17.22,1.785 L17.2199986,1.78499955 C13.8047236,0.695890047 10.1352736,0.695891547 6.71999858,1.78500045 C6.71999858,1.78500045 6.71999858,7.00500045 11.9549986,7.00500045 C17.1899986,7.00500045 17.2199986,1.78500045 17.2199986,1.78500045 L17.22,1.785 Z" id="Path" fill="#FFFFFF"></path>
                    </g>
                    <g id="f-link" transform="translate(4.951028, 35.229370)" fill="#A2A2A2">
                        <path d="M12.21,0.495 L12.210001,0.494999653 C5.34232598,2.93735965 0.753675976,9.43595965 0.750000976,16.7249997 L0.750000976,23.6249997 L0.750000972,23.6249999 C0.675938322,28.6239599 2.88478597,33.3840149 6.75000097,36.5549999 L11.070001,33.1049999 L11.0700006,33.1049997 C10.6356921,32.8546152 10.2371046,32.5468452 9.88500062,32.1899997 L9.88500049,32.1899999 C10.199174,31.8174644 10.608812,31.5374579 11.0700005,31.3799999 C12.7950005,31.3799999 11.2950005,32.2349999 12.9000005,35.2649999 C14.5050005,38.2949999 14.5500005,4.64999989 14.5500005,4.64999989 L12.21,0.495 Z" id="f"></path>
                    </g>
                    <g id="Group" stroke-linecap="round" stroke-linejoin="round" transform="translate(4.951028, 35.229370)" stroke="#4A4A4A" stroke-width="1.5">
                        <path d="M12.21,0.495 L12.210001,0.494999653 C5.34232598,2.93735965 0.753675976,9.43595965 0.750000976,16.7249997 L0.750000976,23.6249997 L0.750000972,23.6249999 C0.675938322,28.6239599 2.88478597,33.3840149 6.75000097,36.5549999 L11.070001,33.1049999 L11.0700006,33.1049997 C10.6356921,32.8546152 10.2371046,32.5468452 9.88500062,32.1899997 L9.88500049,32.1899999 C10.199174,31.8174644 10.608812,31.5374579 11.0700005,31.3799999 C12.7950005,31.3799999 11.2950005,32.2349999 12.9000005,35.2649999 C14.5050005,38.2949999 14.5500005,4.64999989 14.5500005,4.64999989 L12.21,0.495 Z" id="f"></path>
                        <path d="M12.21,0.495 L12.2100013,0.49499955 C10.1561863,1.22125005 8.26162627,2.33659455 6.63000127,3.77999955 C6.88500127,4.18499955 8.13000127,6.20999955 8.43000127,6.61499955 L8.43000119,6.61499942 C8.94042719,7.41941642 10.0063212,7.65774242 10.8107412,7.14731792 C10.8222514,7.14001435 10.8336747,7.13257457 10.8450085,7.12500017 L14.5500085,4.65000017 L12.21,0.495 Z" id="Path" fill="#A2A2A2"></path>
                        <path d="M6.78,14.13 L6.78,23.835 L6.78000002,23.8350029 C6.80299172,26.9033129 7.91389202,29.8639379 9.91500002,32.1900029" id="Path"></path>
                    </g>
                    <g id="g-link" transform="translate(25.951028, 35.229370)" fill="#A2A2A2">
                        <path d="M2.79,0.495 L2.78999954,0.494999837 C9.65767454,2.93735984 14.2463245,9.43595984 14.2499995,16.7249998 L14.2499995,23.6249998 L14.2499996,23.6250012 C14.3240619,28.6239612 12.1152146,33.3840162 8.24999956,36.5550012 L3.94499956,33.1050012 L3.94499997,33.1050009 C4.37708547,32.8580214 4.77116697,32.5498284 5.11499997,32.1900009 C4.80864457,31.8156595 4.40322157,31.534981 3.94500007,31.380001 C2.22000007,31.380001 3.72000007,32.235001 2.10000007,35.265001 C0.480000066,38.295001 0.450000066,4.65000104 0.450000066,4.65000104 L2.79,0.495 Z" id="g"></path>
                    </g>
                    <g id="Group" stroke-linecap="round" stroke-linejoin="round" transform="translate(10.951028, 6.729370)" stroke="#4A4A4A" stroke-width="1.5">
                        <path d="M17.79,28.995 L17.7899995,28.9949998 C24.6576745,31.4373598 29.2463245,37.9359598 29.2499995,45.2249998 L29.2499995,52.1249998 L29.2499996,52.1250012 C29.3240619,57.1239612 27.1152146,61.8840162 23.2499996,65.0550012 L18.9449996,61.6050012 L18.945,61.6050009 C19.3770855,61.3580214 19.771167,61.0498284 20.115,60.6900009 C19.8086446,60.3156595 19.4032216,60.034981 18.9450001,59.880001 C17.2200001,59.880001 18.7200001,60.735001 17.1000001,63.765001 C15.4800001,66.795001 15.4500001,33.150001 15.4500001,33.150001 L17.79,28.995 Z" id="g"></path>
                        <path d="M17.79,28.995 L17.7899984,28.9949994 C19.8422384,29.7246354 21.7361834,30.8396244 23.3699984,32.2799994 L21.5699984,35.1149994 C21.0595724,35.9194164 19.9936784,36.1577424 19.1892584,35.6473164 C19.1777482,35.6400129 19.1663249,35.6325731 19.1549911,35.6249987 L15.4499911,33.1499987 L17.79,28.995 Z" id="Path" fill="#A2A2A2"></path>
                        <path d="M23.2050002,42.63 L23.205,52.335 L23.2050002,52.3349687 C23.1810274,55.4004287 22.0761737,58.3591187 20.0850152,60.6899687" id="Path"></path>
                        <path d="M23.205,48.675 L20.625,48.675 C19.68063,48.6833209 18.908325,47.9245035 18.9,46.980135 C18.8999115,46.9700909 18.8999115,46.9600463 18.9,46.9500023 L18.9,45.2250023 L18.8999999,45.2249999 C18.8916803,44.2806299 19.6504994,43.5083249 20.5948649,43.4999999 C20.604909,43.4999114 20.6149537,43.4999114 20.6249977,43.4999999 L23.2049977,43.4999999 L23.205,48.675 Z" id="Path"></path>
                        <path d="M3.30872245e-24,14.175 L-1.06879039e-08,14.1750011 C0.0100570093,13.1627591 0.731164489,12.2974361 1.72499999,12.1050011 L1.72499999,10.7250011 L1.72499999,10.7249998 C1.72500085,5.00885977 6.35885999,0.374999767 12.075,0.374999767 C17.79114,0.37500063 22.425,5.00885977 22.425,10.7249998 L22.425,12.1049998 C23.5721655,12.3250663 24.32373,13.4334253 24.103665,14.5805848 C23.9247735,15.5131108 23.146335,16.2121198 22.2,16.2899998 L22.2000004,16.2899978 C21.0343084,21.8860178 15.5528554,25.4775128 9.9568354,24.3118328 C5.9250754,23.4719888 2.7748504,20.3217728 1.9350004,16.2900128 C0.844446337,16.1827758 0.0100653369,15.2707793 3.36858568e-07,14.1750128 L3.30872245e-24,14.175 Z" id="Path" fill="#FFFFFF"></path>
                    </g>
                    <path d="M29.4581783,21.2822198 C29.9619548,21.7859963 29.9619548,22.6027793 29.4581783,23.1065498 C28.9544018,23.6103263 28.1376188,23.6103263 27.6338483,23.1065498 C27.1300718,22.6027733 27.1300718,21.7859903 27.6338483,21.2822198 C28.1376248,20.7784433 28.9544078,20.7784433 29.4581783,21.2822198" id="Path" fill="#A2A2A2"></path>
                    <path d="M18.2531783,21.2822198 C18.7569548,21.7859963 18.7569548,22.6027793 18.2531783,23.1065498 C17.7494018,23.6103263 16.9326188,23.6103263 16.4288483,23.1065498 C15.9250718,22.6027733 15.9250718,21.7859903 16.4288483,21.2822198 C16.9326248,20.7784433 17.7494078,20.7784433 18.2531783,21.2822198" id="Path" fill="#A2A2A2"></path>
                    <path d="M25.5310283,25.2993698 C23.9617282,26.3358564 21.9253282,26.3358564 20.3560282,25.2993697" id="Path" stroke="#4A4A4A" stroke-width="1.5" stroke-linecap="round" stroke-linejoin="round"></path>
                    <g id="h-link" transform="translate(9.451028, 0.729370)" fill="#FFFFFF">
                        <path d="M24.69,18.48 L24.6900003,18.4799995 C25.9799268,16.1734045 26.4154503,13.4859145 25.9200003,10.8899995 C25.8048027,10.4235252 25.3332648,10.1387607 24.8667903,10.2539577 C24.8425695,10.2599391 24.8186173,10.2669595 24.795,10.2749997 L24.7950003,10.2749996 C23.9293983,10.5389786 23.0299503,10.6754126 22.1250003,10.6799996 C22.8829307,9.46882313 23.2592177,8.05774463 23.2050002,6.62999963 L23.2050002,6.62999981 C23.1526874,6.15236831 22.7230832,5.80757981 22.2454517,5.85989231 C22.17349,5.86777395 22.1027933,5.88460646 22.0350002,5.90999966 L22.0349996,5.90999988 C21.2279096,6.18923838 20.3835296,6.34597788 19.5299996,6.37499988 L19.5299997,6.3749995 C19.7510847,5.4878545 19.6278093,4.5498895 19.1849997,3.7499995 C18.9679272,3.32134151 18.4444587,3.14981651 18.0158007,3.36688901 C17.9844903,3.38274461 17.9541679,3.40048031 17.9249998,3.41999891 L16.0799998,4.64999891 L14.2349998,1.57499891 C14.0082763,1.16078591 13.4886958,1.00879391 13.0744813,1.23551741 C12.9312201,1.31393246 12.8134138,1.43173841 12.7349998,1.57499891 L10.9049998,4.64999891 L8.99999985,3.41999891 C8.60067282,3.1527784 8.06033082,3.2598709 7.79311032,3.6591979 C7.77359172,3.68836585 7.75585602,3.7186882 7.74000042,3.74999875 C7.33954241,4.56560728 7.25408441,5.50028878 7.50000041,6.37499878 L7.50000069,6.37499879 C6.64658469,6.34486154 5.80237569,6.18815279 4.99500069,5.90999879 C4.54504265,5.74145727 4.04364965,5.96959002 3.87510815,6.41954877 C3.8497151,6.48734112 3.83288255,6.55803777 3.8250008,6.63000027 L3.82500073,6.63000204 C3.77244553,8.05962654 4.15421173,9.47163204 4.92000223,10.680002 C4.0101068,10.6758053 3.1056473,10.5393793 2.2350023,10.275002 C1.78831426,10.121879 1.30207276,10.3598603 1.14894976,10.806548 C1.13955898,10.8339427 1.13156611,10.8617968 1.12500196,10.8900025 L1.12500168,10.8900039 C0.636814684,13.4602689 1.08371433,16.1203689 2.38500318,18.3900039 C4.96500318,18.3900039 3.88500318,15.0300039 4.92000318,14.9400039 L4.92000359,14.9400039 C6.76420859,14.6697249 8.29734359,13.3804989 8.88000359,11.6100039 C9.0597276,11.1823119 9.5521341,10.9812939 9.9798261,11.1610164 C10.0363036,11.1847492 10.0900155,11.214589 10.1400036,11.2500036 L10.1400057,11.2500049 C13.6906557,13.4071849 17.6128557,14.8824649 21.7050057,15.6000049 L21.705006,15.6000049 C22.531854,15.7456876 23.221191,16.3153939 23.520006,17.1000049 L23.895006,18.0600049 C24.1868729,18.1418405 24.4579094,18.2850289 24.6900059,18.4800019 L24.69,18.48 Z" id="h"></path>
                    </g>
                    <g id="h-link" stroke-linecap="round" stroke-linejoin="round" transform="translate(9.451028, 0.729370)" stroke="#4A4A4A" stroke-width="1.5">
                        <path d="M24.69,18.48 L24.6900003,18.4799995 C25.9799268,16.1734045 26.4154503,13.4859145 25.9200003,10.8899995 C25.8048027,10.4235252 25.3332648,10.1387607 24.8667903,10.2539577 C24.8425695,10.2599391 24.8186173,10.2669595 24.795,10.2749997 L24.7950003,10.2749996 C23.9293983,10.5389786 23.0299503,10.6754126 22.1250003,10.6799996 C22.8829307,9.46882313 23.2592177,8.05774463 23.2050002,6.62999963 L23.2050002,6.62999981 C23.1526874,6.15236831 22.7230832,5.80757981 22.2454517,5.85989231 C22.17349,5.86777395 22.1027933,5.88460646 22.0350002,5.90999966 L22.0349996,5.90999988 C21.2279096,6.18923838 20.3835296,6.34597788 19.5299996,6.37499988 L19.5299997,6.3749995 C19.7510847,5.4878545 19.6278093,4.5498895 19.1849997,3.7499995 C18.9679272,3.32134151 18.4444587,3.14981651 18.0158007,3.36688901 C17.9844903,3.38274461 17.9541679,3.40048031 17.9249998,3.41999891 L16.0799998,4.64999891 L14.2349998,1.57499891 C14.0082763,1.16078591 13.4886958,1.00879391 13.0744813,1.23551741 C12.9312201,1.31393246 12.8134138,1.43173841 12.7349998,1.57499891 L10.9049998,4.64999891 L8.99999985,3.41999891 C8.60067282,3.1527784 8.06033082,3.2598709 7.79311032,3.6591979 C7.77359172,3.68836585 7.75585602,3.7186882 7.74000042,3.74999875 C7.33954241,4.56560728 7.25408441,5.50028878 7.50000041,6.37499878 L7.50000069,6.37499879 C6.64658469,6.34486154 5.80237569,6.18815279 4.99500069,5.90999879 C4.54504265,5.74145727 4.04364965,5.96959002 3.87510815,6.41954877 C3.8497151,6.48734112 3.83288255,6.55803777 3.8250008,6.63000027 L3.82500073,6.63000204 C3.77244553,8.05962654 4.15421173,9.47163204 4.92000223,10.680002 C4.0101068,10.6758053 3.1056473,10.5393793 2.2350023,10.275002 C1.78831426,10.121879 1.30207276,10.3598603 1.14894976,10.806548 C1.13955898,10.8339427 1.13156611,10.8617968 1.12500196,10.8900025 L1.12500168,10.8900039 C0.636814684,13.4602689 1.08371433,16.1203689 2.38500318,18.3900039 C4.96500318,18.3900039 3.88500318,15.0300039 4.92000318,14.9400039 L4.92000359,14.9400039 C6.76420859,14.6697249 8.29734359,13.3804989 8.88000359,11.6100039 C9.0597276,11.1823119 9.5521341,10.9812939 9.9798261,11.1610164 C10.0363036,11.1847492 10.0900155,11.214589 10.1400036,11.2500036 L10.1400057,11.2500049 C13.6906557,13.4071849 17.6128557,14.8824649 21.7050057,15.6000049 L21.705006,15.6000049 C22.531854,15.7456876 23.221191,16.3153939 23.520006,17.1000049 L23.895006,18.0600049 C24.1868729,18.1418405 24.4579094,18.2850289 24.6900059,18.4800019 L24.69,18.48 Z" id="h"></path>
                    </g>
                    <g id="Group" stroke-linecap="round" stroke-linejoin="round" transform="translate(16.951028, 17.229370)" stroke="#4A4A4A" stroke-width="1.5">
                        <path d="M1.335,1.95 C1.91444697,1.39761903 2.82555297,1.39761903 3.40499997,1.94999997" id="Path"></path>
                        <path d="M8.58,1.95 C9.16139549,1.388019 10.0836,1.388019 10.665,1.95" id="Path"></path>
                    </g>
                </g>
            </g>
        </g>
    </g>
</svg>