<?xml version="1.0" encoding="UTF-8"?>
<svg width="195px" height="195px" viewBox="0 0 195 195" version="1.1" xmlns="http://www.w3.org/2000/svg" xmlns:xlink="http://www.w3.org/1999/xlink">
    <!-- Generator: Sketch 52.4 (67378) - http://www.bohemiancoding.com/sketch -->
    <title>icon-desk</title>
    <desc>Created with Sketch.</desc>
    <g id="Page-1" stroke="none" stroke-width="1" fill="none" fill-rule="evenodd">
        <g id="Desktop-HD-Home" transform="translate(-582.000000, -2698.000000)">
            <g id="Angebot" transform="translate(-328.000000, 1908.000000)">
                <g id="icon-desk" transform="translate(910.418836, 790.137343)">
                    <path d="M165.9312,28.46928 C203.8902,66.42828 203.8902,127.97184 165.9312,165.93048 C127.9722,203.88948 66.42864,203.88948 28.47,165.93048 C-9.489,127.97148 -9.489,66.42792 28.47,28.46928 C66.429,-9.48972 127.97256,-9.48972 165.9312,28.46928" id="Path" fill="#DCDCDC"></path>
                    <path d="M42,155.544 C41.3520493,156.297823 41.4323629,157.43292 42.1800001,158.088 L44.2320001,159.852 C44.9783316,160.498619 46.10754,160.417787 46.75416,159.671455 C46.7574561,159.667651 46.7607361,159.663832 46.7639999,159.66 L61.6799999,142.296 C62.0048604,141.919796 61.9632384,141.351468 61.5870332,141.026604 C61.586024,141.025733 61.585013,141.024864 61.5839999,141.023997 L61.4639999,140.927997 L62.3519999,139.883997 L62.3519997,139.883997 C63.6171117,140.119732 64.9118517,139.662228 65.7479997,138.683997 C66.6839997,137.567997 66.6479997,134.651997 66.5519997,133.151997 C66.5291961,132.662098 66.1135689,132.283443 65.6236701,132.306247 C65.6010482,132.3073 65.5784747,132.309217 65.5559993,132.311996 C64.0679993,132.479996 61.1759993,132.923996 60.2399993,134.039996 C59.4244254,135.018979 59.187111,136.356152 59.6159994,137.555996 L58.7399994,138.575996 L58.1759994,138.095996 C57.7997945,137.771136 57.2314673,137.812758 56.9066033,138.188963 C56.9057319,138.189972 56.9048627,138.190983 56.9039958,138.191996 L42,155.544 Z" id="Path" fill="#BCBCBC"></path>
                    <g id="Group" transform="translate(34.800000, 68.400000)" fill="#BCBCBC">
                        <path d="M23.556,50.292 L9.6,53.46 C8.67353411,53.6899788 7.72645211,53.1667284 7.42800011,52.26 L1.06800011,27.516 L1.06800016,27.5160002 C0.859233764,26.6051534 1.42838176,25.6975322 2.33923216,25.4887562 C2.3594092,25.4841316 2.37966952,25.4798777 2.40000268,25.4759966 L16.3920027,22.3079966 C17.3192835,22.0717382 18.2704347,22.5972362 18.5640027,23.5079966 L24.8880027,48.1919966 C25.1232315,49.1032178 24.5752311,50.0326046 23.6640147,50.2678286 C23.6282837,50.2770524 23.5922625,50.2851132 23.5560081,50.2919979 L23.556,50.292 Z" id="Path"></path>
                        <path d="M104.472,45.828 L101.856,53.112 C100.491204,56.5989119 102.211518,60.5319959 105.698424,61.8967919 C109.185336,63.2615879 113.11842,61.5412739 114.483216,58.0543679 C114.52949,57.9361432 114.572434,57.8166419 114.611998,57.6960059 L117.227998,50.4120059 L117.227998,50.4120061 C118.394875,46.8539701 116.45646,43.0236781 112.898422,41.8567981 C109.480906,40.7360041 105.78289,42.4788049 104.471998,45.8280061 L104.472,45.828 Z" id="Path"></path>
                        <path d="M83.1,47.784 L41.7,47.784 L41.6999998,47.784 C38.7176638,47.7839999 36.2999998,45.366336 36.2999998,42.384 C36.2999998,42.384 36.2999998,42.384 36.2999998,42.384 L36.2999998,29.784 L88.4999998,29.784 L88.4999998,42.384 C88.4999998,45.366336 86.0823358,47.784 83.0999998,47.784 L83.1,47.784 Z" id="Path"></path>
                        <path d="M110.1,4.584 C110.1,3.048 97.296,1.728 79.284,1.212 L79.284,0.984 L45.6,0.984 L45.6,1.212 C27.6,1.728 14.784,3.048 14.784,4.584 C14.784,6.12 27.216,7.392 44.784,7.932 L44.496,10.332 L44.4959999,10.3320014 C44.0387087,14.4888254 47.0377679,18.2292974 51.1945919,18.6865934 C51.4686959,18.7167474 51.7442423,18.7319056 52.0199999,18.7319999 L72.8279999,18.7319999 L72.828,18.7319999 C77.009904,18.7305678 80.398836,15.3393119 80.397408,11.1574079 C80.3973136,10.8816503 80.3821554,10.6061039 80.3520012,10.3319999 L80.0640012,7.93199991 C97.6680012,7.39199991 110.100001,6.09599991 110.100001,4.58399991 L110.1,4.584 Z" id="Path"></path>
                    </g>
                    <g id="a-link" transform="translate(72.000000, 90.000000)" fill="#FFFFFF">
                        <path d="M46.8,21.684 L3.6,21.684 L3.59999984,21.684 C1.61177984,21.6839999 -1.57360802e-07,20.07222 -1.57360802e-07,18.084 C-1.57360802e-07,18.084 -1.57360802e-07,18.084 -1.57360802e-07,18.084 L-1.57360802e-07,1.884 L-1.57360785e-07,1.88400027 C-3.07467587e-07,0.889887872 0.805887443,0.0840002718 1.79999984,0.0840002718 L48.5999998,0.0840002718 C49.5941122,0.0840002283 50.3999998,0.889887872 50.3999998,1.88400027 L50.3999998,18.0840003 C50.3999998,20.0722204 48.7882198,21.6840004 46.7999998,21.6840004 L46.8,21.684 Z" id="a"></path>
                    </g>
                    <g id="Group" stroke-linecap="round" stroke-linejoin="round" transform="translate(72.000000, 90.000000)" stroke="#494949" stroke-width="1.2">
                        <path d="M46.8,21.684 L3.6,21.684 L3.59999984,21.684 C1.61177984,21.6839999 -1.57360802e-07,20.07222 -1.57360802e-07,18.084 C-1.57360802e-07,18.084 -1.57360802e-07,18.084 -1.57360802e-07,18.084 L-1.57360802e-07,1.884 L-1.57360785e-07,1.88400027 C-3.07467587e-07,0.889887872 0.805887443,0.0840002718 1.79999984,0.0840002718 L48.5999998,0.0840002718 C49.5941122,0.0840002283 50.3999998,0.889887872 50.3999998,1.88400027 L50.3999998,18.0840003 C50.3999998,20.0722204 48.7882198,21.6840004 46.7999998,21.6840004 L46.8,21.684 Z" id="a"></path>
                        <path d="M5.4,16.284 L9,16.284" id="Path"></path>
                        <path d="M5.4,10.884 L9,10.884" id="Path"></path>
                        <path d="M5.4,5.484 L9,5.484" id="Path"></path>
                        <path d="M12.6,10.884 L16.2,10.884" id="Path"></path>
                        <path d="M12.6,5.484 L16.2,5.484" id="Path"></path>
                        <path d="M19.8,10.884 L23.4,10.884" id="Path"></path>
                        <path d="M19.8,5.484 L23.4,5.484" id="Path"></path>
                        <path d="M27,10.884 L30.6,10.884" id="Path"></path>
                        <path d="M27,5.484 L30.6,5.484" id="Path"></path>
                        <path d="M34.2,10.884 L37.8,10.884" id="Path"></path>
                        <path d="M34.2,5.484 L37.8,5.484" id="Path"></path>
                        <path d="M41.4,16.284 L45,16.284" id="Path"></path>
                        <path d="M41.4,10.884 L45,10.884" id="Path"></path>
                        <path d="M41.4,5.484 L45,5.484" id="Path"></path>
                        <path d="M12.6,16.284 L37.8,16.284" id="Path"></path>
                    </g>
                    <g id="b-link" transform="translate(24.000000, 37.200000)" fill="#FFFFFF">
                        <path d="M139.728,0.684 L6.672,0.684 L6.67199983,0.684 C3.15284383,0.676736652 0.294119832,3.52368 0.286859832,7.042836 C0.284943228,7.971444 0.486014232,8.889252 0.875997432,9.732 L145.523997,9.732 L145.523998,9.73199957 C147.001918,6.53822357 145.610942,2.75105957 142.417162,1.27313957 C141.57441,0.883156369 140.656606,0.682084369 139.727998,0.684001969 L139.728,0.684 Z" id="b"></path>
                    </g>
                    <g id="b-link" stroke-linecap="round" stroke-linejoin="round" transform="translate(24.000000, 37.200000)" stroke="#494949" stroke-width="1.2">
                        <path d="M139.728,0.684 L6.672,0.684 L6.67199983,0.684 C3.15284383,0.676736652 0.294119832,3.52368 0.286859832,7.042836 C0.284943228,7.971444 0.486014232,8.889252 0.875997432,9.732 L145.523997,9.732 L145.523998,9.73199957 C147.001918,6.53822357 145.610942,2.75105957 142.417162,1.27313957 C141.57441,0.883156369 140.656606,0.682084369 139.727998,0.684001969 L139.728,0.684 Z" id="b"></path>
                    </g>
                    <g id="c-link" transform="translate(79.200000, 51.600000)" fill="#FFFFFF">
                        <path d="M25.992,0.684 L10.008,0.684 L10.0080004,0.684000002 C6.33775235,0.658945682 3.23612435,3.398724 2.80800035,7.044 L0.900000353,23.244 L0.900000092,23.2440022 C0.435988892,27.1932862 3.26136009,30.7709662 7.21064409,31.2349822 C7.50579969,31.2696608 7.80282009,31.2860319 8.10000009,31.2840015 L27.9000001,31.2840015 L27.8999999,31.2840015 C31.8763559,31.3111672 35.1218519,28.1097135 35.1490199,24.1333575 C35.1510502,23.8361775 35.134679,23.5391583 35.1000003,23.2440015 L33.1920003,7.04400151 L33.1920001,7.04400014 C32.7638797,3.39872414 29.6622481,0.658944135 25.9920001,0.684000135 L25.992,0.684 Z" id="c"></path>
                    </g>
                    <g id="c-link" stroke-linecap="round" stroke-linejoin="round" transform="translate(79.200000, 51.600000)" stroke="#494949" stroke-width="1.2">
                        <path d="M25.992,0.684 L10.008,0.684 L10.0080004,0.684000002 C6.33775235,0.658945682 3.23612435,3.398724 2.80800035,7.044 L0.900000353,23.244 L0.900000092,23.2440022 C0.435988892,27.1932862 3.26136009,30.7709662 7.21064409,31.2349822 C7.50579969,31.2696608 7.80282009,31.2860319 8.10000009,31.2840015 L27.9000001,31.2840015 L27.8999999,31.2840015 C31.8763559,31.3111672 35.1218519,28.1097135 35.1490199,24.1333575 C35.1510502,23.8361775 35.134679,23.5391583 35.1000003,23.2440015 L33.1920003,7.04400151 L33.1920001,7.04400014 C32.7638797,3.39872414 29.6622481,0.658944135 25.9920001,0.684000135 L25.992,0.684 Z" id="c"></path>
                    </g>
                    <g id="d-link" transform="translate(24.000000, 40.800000)" fill="#BCBCBC">
                        <path d="M142.44,0.684 L3.96,0.684 L3.95999986,0.684 C1.97177986,0.687026052 0.362459859,2.301252 0.365483859,4.289472 C0.366471574,4.9384356 0.542865459,5.575068 0.876001059,6.132 L12.2280011,25.056 L12.2280008,25.0559996 C13.2008996,26.6871596 14.9607368,27.6856196 16.8600008,27.6839996 L129.600001,27.6839996 L129.600001,27.6839996 C131.499265,27.6856165 133.259101,26.687162 134.232001,25.0559996 L145.584001,6.1319996 C146.604853,4.42586356 146.049321,2.21519956 144.343189,1.19434756 C143.768601,0.85054756 143.109517,0.67380916 142.440001,0.68399596 L142.44,0.684 Z" id="d"></path>
                    </g>
                    <path d="M40.86,68.484 L70.2,68.484 L97.2,41.484 L27.96,41.484 L27.9599999,41.484 C25.9717799,41.4870261 24.3624599,43.101252 24.3654839,45.089472 C24.3664716,45.7384356 24.5428655,46.375068 24.8760011,46.932 L36.2280011,65.856 L36.2280007,65.8559995 C37.2008995,67.4871595 38.9607367,68.4856195 40.8600007,68.4839995 L40.86,68.484 Z" id="Path" fill="#FFFFFF"></path>
                    <g id="d-link" stroke-linecap="round" stroke-linejoin="round" transform="translate(24.000000, 40.800000)" stroke="#494949" stroke-width="1.2">
                        <path d="M142.44,0.684 L3.96,0.684 L3.95999986,0.684 C1.97177986,0.687026052 0.362459859,2.301252 0.365483859,4.289472 C0.366471574,4.9384356 0.542865459,5.575068 0.876001059,6.132 L12.2280011,25.056 L12.2280008,25.0559996 C13.2008996,26.6871596 14.9607368,27.6856196 16.8600008,27.6839996 L129.600001,27.6839996 L129.600001,27.6839996 C131.499265,27.6856165 133.259101,26.687162 134.232001,25.0559996 L145.584001,6.1319996 C146.604853,4.42586356 146.049321,2.21519956 144.343189,1.19434756 C143.768601,0.85054756 143.109517,0.67380916 142.440001,0.68399596 L142.44,0.684 Z" id="d"></path>
                    </g>
                    <g id="e-link" transform="translate(33.600000, 62.400000)" fill="#FFFFFF">
                        <path d="M0.96,0.683999599 L2.628,3.456 L2.62799976,3.4559996 C3.60089856,5.0871596 5.36073576,6.0856196 7.25999976,6.0839996 L120,6.0839996 L119.999999,6.0839996 C121.899263,6.08561648 123.659099,5.087162 124.631999,3.4559996 L126.299999,0.683999599 L0.96,0.683999599 Z" id="e"></path>
                    </g>
                    <g id="e-link" stroke-linecap="round" stroke-linejoin="round" transform="translate(33.600000, 62.400000)" stroke="#494949" stroke-width="1.2">
                        <path d="M0.96,0.683999599 L2.628,3.456 L2.62799976,3.4559996 C3.60089856,5.0871596 5.36073576,6.0856196 7.25999976,6.0839996 L120,6.0839996 L119.999999,6.0839996 C121.899263,6.08561648 123.659099,5.087162 124.631999,3.4559996 L126.299999,0.683999599 L0.96,0.683999599 Z" id="e"></path>
                    </g>
                    <path d="M131.412,71.448 L131.412,71.4480003 C131.080585,72.3852435 131.571705,73.4136963 132.508947,73.7451123 C132.696287,73.8113567 132.893303,73.8461241 133.092,73.8480039 L144.804,73.8480039 C145.420859,73.8418143 145.993378,73.5262527 146.328,73.0080039 L148.572,69.4080039 C149.102194,68.5670786 148.850297,67.4555678 148.009372,66.9253718 C147.721568,66.743915 147.388231,66.6477422 147.048,66.6480014 L134.4,66.6480014 C133.640184,66.6536787 132.964608,67.1328074 132.708,67.8480014 L131.412,71.448 Z" id="Path" stroke="#494949" stroke-width="1.2" fill="#BCBCBC" stroke-linecap="round" stroke-linejoin="round"></path>
                    <g id="f-link" transform="translate(135.600000, 108.000000)" fill="#FFFFFF">
                        <path d="M3.108,4.68 L0.708,11.46 L0.707999599,11.4600012 C-0.411630401,14.7543372 1.3513136,18.3325572 4.6456436,19.4521812 C7.8595436,20.544474 11.3610236,18.8941008 12.5640116,15.7199772 L14.9640116,8.93997718 L14.9640118,8.93997653 C16.1971198,5.68641653 14.559211,2.04926453 11.3056558,0.816156526 C8.05209585,-0.416951474 4.41494385,1.22095733 3.18183585,4.47451253 C3.15604545,4.54256105 3.13143597,4.61105093 3.10801857,4.67995253 L3.108,4.68 Z" id="f"></path>
                    </g>
                    <g id="f-link" stroke-linecap="round" stroke-linejoin="round" transform="translate(135.600000, 108.000000)" stroke="#494949" stroke-width="1.2">
                        <path d="M3.108,4.68 L0.708,11.46 L0.707999599,11.4600012 C-0.411630401,14.7543372 1.3513136,18.3325572 4.6456436,19.4521812 C7.8595436,20.544474 11.3610236,18.8941008 12.5640116,15.7199772 L14.9640116,8.93997718 L14.9640118,8.93997653 C16.1971198,5.68641653 14.559211,2.04926453 11.3056558,0.816156526 C8.05209585,-0.416951474 4.41494385,1.22095733 3.18183585,4.47451253 C3.15604545,4.54256105 3.13143597,4.61105093 3.10801857,4.67995253 L3.108,4.68 Z" id="f"></path>
                    </g>
                    <path d="M144.936,113.064 C144.439098,113.076363 144.046301,113.489204 144.058663,113.986106 C144.067729,114.350494 144.295686,114.673434 144.636,114.804 C144.735276,114.821014 144.836724,114.821014 144.936,114.804 C145.433024,114.80962 145.840499,114.411258 145.846118,113.914234 C145.850518,113.525152 145.60438,113.177303 145.236,113.052 C145.136744,113.034749 145.035256,113.034749 144.936,113.052 L144.936,113.064 Z" id="Path" fill="#494949"></path>
                    <g id="Group" transform="translate(133.200000, 80.400000)" fill="#BCBCBC">
                        <path d="M28.14,10.656 L28.1400001,10.6559999 C28.5746737,9.77082706 28.2161793,8.70069586 27.3360001,8.25599986 L14.4720001,1.78799986 L14.4720002,1.78799994 C13.5868274,1.35332634 12.5166962,1.71182034 12.0720002,2.59199994 L11.6640002,3.39599994 L2.71200024,3.39599994 C1.71788776,3.39599998 0.912000162,4.20188754 0.912000162,5.19599994 C0.912000162,5.19599994 0.912000162,5.19599994 0.912000162,5.19599994 L0.912000162,19.5959999 L0.912000162,19.5960002 C0.912000312,20.5901126 1.71788776,21.3960002 2.71200016,21.3960002 L13.4160002,21.3960002 L19.2720002,24.3360002 C20.1534878,24.7794854 21.2276042,24.4250275 21.6720002,23.5440002 L28.14,10.656 Z" id="Path"></path>
                        <path d="M3.6,18.684 C2.605896,18.684 1.8,17.878104 1.8,16.884 L1.8,4.284 C1.8,3.289896 2.605896,2.484 3.6,2.484 L16.2,2.484 C17.194104,2.484 18,3.289896 18,4.284 L18,16.884 C18,17.878104 17.194104,18.684 16.2,18.684 L3.6,18.684 Z" id="Path" stroke="#494949" stroke-width="1.2" stroke-linecap="round" stroke-linejoin="round"></path>
                        <path d="M6.168,12.78 C5.74713243,13.6783451 6.12689991,14.7481079 7.02000003,15.1799999 L18.396,20.6039999 C19.2907681,21.0335903 20.3644201,20.6578108 20.7960001,19.7639999 L26.2200001,8.39999994 L26.2200001,8.39999982 C26.6476825,7.50258822 26.2668922,6.42838782 25.3694809,6.00070782 C25.3689874,6.00047264 25.3684938,6.00023768 25.3680001,6.00000294 L14.0040001,0.576002942 C13.5725822,0.366689359 13.0748582,0.340721359 12.6240002,0.504002959 L12.6240003,0.504002909 C12.1778787,0.663018509 11.8117467,0.990383309 11.6040003,1.41600291 L6.168,12.78 Z" id="Path" stroke="#494949" stroke-width="1.2" stroke-linecap="round" stroke-linejoin="round"></path>
                    </g>
                    <g id="Group" transform="translate(39.096000, 133.620000)" fill="#FFFFFF">
                        <g id="g-link" transform="translate(12.432157, 12.620638) rotate(-49.990004) translate(-12.432157, -12.620638) translate(-0.767838, 9.020639)">
                            <path d="M2.20799916,6.3119976 C1.21389554,6.3119976 0.407999845,5.50610191 0.407999845,4.51199829 L0.407999845,2.71199897 C0.407999845,1.71789535 1.21389554,0.911999654 2.20799916,0.911999654 L23.807991,0.911999654 C24.8020946,0.911999654 25.6079903,1.71789535 25.6079903,2.71199897 L25.6079903,4.51199829 C25.6079903,5.50610191 24.8020946,6.3119976 23.807991,6.3119976 L2.20799916,6.3119976 Z" id="g"></path>
                        </g>
                    </g>
                    <g id="Group" stroke-linecap="round" stroke-linejoin="round" transform="translate(40.800000, 141.600000)" stroke="#494949" stroke-width="1.2">
                        <path d="M6.228,5.832 L10.356,9.3" id="Path"></path>
                        <path d="M1.596,11.34 C0.0779039857,10.06272 -0.120660014,7.79797199 1.15199999,6.27599999 L5.78399999,0.755999988" id="Path"></path>
                    </g>
                    <g id="h-link" transform="translate(57.600000, 130.800000)" fill="#BCBCBC">
                        <path d="M5.712,5.628 C4.75433884,6.77122916 3.05122804,6.92165996 1.90800004,5.96399996 C0.764770835,5.00633876 0.614340035,3.30322796 1.57200004,2.15999996 C2.53200004,0.959999958 6.54000004,0.443999958 6.54000004,0.443999958 C6.54000004,0.443999958 6.67200004,4.48799996 5.71200004,5.62799996 Z" id="h"></path>
                    </g>
                    <g id="h-link" stroke-linecap="round" stroke-linejoin="round" transform="translate(57.600000, 130.800000)" stroke="#494949" stroke-width="1.2">
                        <path d="M5.712,5.628 C4.75433884,6.77122916 3.05122804,6.92165996 1.90800004,5.96399996 C0.764770835,5.00633876 0.614340035,3.30322796 1.57200004,2.15999996 C2.53200004,0.959999958 6.54000004,0.443999958 6.54000004,0.443999958 C6.54000004,0.443999958 6.67200004,4.48799996 5.71200004,5.62799996 Z" id="h"></path>
                    </g>
                    <g id="Group" transform="translate(39.096000, 133.620000)" stroke="#494949" stroke-linecap="round" stroke-linejoin="round" stroke-width="1.19999954">
                        <g id="g-link" transform="translate(12.432157, 12.620638) rotate(-49.990004) translate(-12.432157, -12.620638) translate(-0.767838, 9.020639)">
                            <path d="M2.20799916,6.3119976 C1.21389554,6.3119976 0.407999845,5.50610191 0.407999845,4.51199829 L0.407999845,2.71199897 C0.407999845,1.71789535 1.21389554,0.911999654 2.20799916,0.911999654 L23.807991,0.911999654 C24.8020946,0.911999654 25.6079903,1.71789535 25.6079903,2.71199897 L25.6079903,4.51199829 C25.6079903,5.50610191 24.8020946,6.3119976 23.807991,6.3119976 L2.20799916,6.3119976 Z" id="g"></path>
                        </g>
                    </g>
                    <path d="M134.58,137.652 L128.88,136.056 L128.76,130.5 L128.76,130.499998 C128.740319,129.50608 127.918636,128.716306 126.92472,128.735986 C126.92448,128.735991 126.92424,128.735996 126.924,128.736001 L104.496,129.240001 L84.3120001,123.600001 C83.3678125,123.320449 82.3753081,123.856935 82.0920001,124.800001 L80.7120001,129.720001 L74.7120001,129.852001 C73.718082,129.87168 72.928308,130.693363 72.947988,131.687281 C72.9479928,131.687521 72.9479976,131.687761 72.9480024,131.688 L73.4760024,155.52 L71.8920024,161.196 C71.6194488,162.139448 72.15339,163.127245 73.0920024,163.416001 L73.6080024,163.560001 L73.7400024,169.476001 L73.7400023,169.476011 C73.7328273,170.470098 74.5328771,171.281783 75.5269583,171.288959 C75.5513118,171.289135 75.5756663,171.288816 75.6000069,171.288004 L99.2160069,170.760004 L123.384007,177.516004 C124.328195,177.795556 125.320699,177.259069 125.604007,176.316004 L127.320007,170.184004 L127.788007,170.184004 C128.784107,170.157811 129.572143,169.332245 129.552007,168.336004 L129.420007,162.660004 L135.780007,139.920004 C136.084627,138.980677 135.570096,137.972259 134.630769,137.667639 C134.613923,137.662176 134.596997,137.656964 134.579996,137.652004 L134.58,137.652 Z" id="Path" fill="#BCBCBC"></path>
                    <g id="Group" transform="translate(73.356000, 126.408000)" fill="#FFFFFF" stroke="#494949" stroke-linecap="round" stroke-linejoin="round" stroke-width="1.20000049">
                        <path d="M3.2130981,41.1820872 C2.2189937,41.1820872 1.41309736,40.3761908 1.41309736,39.3820864 L1.41309736,3.38207166 C1.41309736,2.38796725 2.2189937,1.58207092 3.2130981,1.58207092 L53.6131188,1.58207092 C54.6072232,1.58207092 55.4131195,2.38796725 55.4131195,3.38207166 L55.4131195,39.3820864 C55.4131195,40.3761908 54.6072232,41.1820872 53.6131188,41.1820872 L3.2130981,41.1820872 Z" id="Path" transform="translate(28.413108, 21.382079) rotate(-0.819999) translate(-28.413108, -21.382079) "></path>
                    </g>
                    <g id="Group" transform="translate(71.424000, 120.936000)" fill="#FFFFFF" stroke="#494949" stroke-linecap="round" stroke-linejoin="round" stroke-width="1.20000042">
                        <path d="M14.1884082,53.9871761 C13.1943038,53.9871761 12.3884076,53.1812799 12.3884076,52.1871755 L12.3884076,1.78715807 C12.3884076,0.793053725 13.1943038,-0.012842554 14.1884082,-0.012842554 L50.1884206,-0.012842554 C51.182525,-0.012842554 51.9884213,0.793053725 51.9884213,1.78715807 L51.9884213,52.1871755 C51.9884213,53.1812799 51.182525,53.9871761 50.1884206,53.9871761 L14.1884082,53.9871761 Z" id="Path" transform="translate(32.188414, 26.987167) rotate(-74.380006) translate(-32.188414, -26.987167) "></path>
                    </g>
                    <g id="Group" transform="translate(81.600000, 127.200000)" fill="#BCBCBC">
                        <path d="M18.516,17.112 C15.1525321,21.4226759 8.93140809,22.1905319 4.62072009,18.8270639 C0.310044086,15.4635959 -0.457811914,9.24247189 2.90565609,4.93178389 C6.26884809,0.62146789 12.4892761,-0.14667611 16.7999761,3.21598789 L16.7999764,3.21598813 C21.1051924,6.58275613 21.8728324,12.7990441 18.5159764,17.1119881 L18.516,17.112 Z" id="i"></path>
                        <path d="M4.62,18.828 L4.61999969,18.8279998 C0.178475694,15.6393118 -0.837156306,9.45380378 2.35153169,5.01227978 C5.54021969,0.57075578 11.7257277,-0.44487622 16.1672517,2.74381178 C16.3805085,2.89691378 16.5875901,3.05843738 16.7880069,3.22800098 L4.62,18.828 Z" id="Path"></path>
                        <path d="M10.704,11.016 L16.788,3.216 L16.7880002,3.21600016 C14.7214802,1.59926416 12.0954242,0.873648163 9.49200021,1.20000016 L10.704,11.016 Z" id="Path"></path>
                        <path d="M18.516,17.112 C21.8794681,12.8013239 21.1116121,6.58019989 16.8009361,3.21671989 C16.8006245,3.21647681 16.800313,3.21623374 16.8000014,3.2159907 L10.7160014,11.0159907 L18.516,17.112 Z" id="Path"></path>
                    </g>
                    <g id="i-link" stroke-linecap="round" stroke-linejoin="round" transform="translate(81.600000, 127.200000)" stroke="#494949" stroke-width="1.2">
                        <path d="M18.516,17.112 C15.1525321,21.4226759 8.93140809,22.1905319 4.62072009,18.8270639 C0.310044086,15.4635959 -0.457811914,9.24247189 2.90565609,4.93178389 C6.26884809,0.62146789 12.4892761,-0.14667611 16.7999761,3.21598789 L16.7999764,3.21598813 C21.1051924,6.58275613 21.8728324,12.7990441 18.5159764,17.1119881 L18.516,17.112 Z" id="i"></path>
                    </g>
                    <g id="Group" stroke-linecap="round" stroke-linejoin="round" transform="translate(79.200000, 128.400000)" stroke="#494949" stroke-width="1.2">
                        <path d="M1.188,22.38 L9.852,24.804" id="Path"></path>
                        <path d="M1.944,26.328 L12.348,29.232" id="Path"></path>
                        <path d="M42.588,41.424 L14.844,33.672" id="Path"></path>
                        <path d="M21.264,30.792 C21.3946116,30.3150647 21.1159704,29.8220843 20.64,29.6879999 L18.9,29.1959999 C18.4287805,29.0600855 17.9366017,29.3319047 17.8006873,29.8031243 C17.7990693,29.8087339 17.7975067,29.8143593 17.7959997,29.8199997 L16.5959997,34.1519997 L20.0639997,35.1239997 L21.264,30.792 Z" id="Path" fill="#BCBCBC"></path>
                        <path d="M29.652,27.528 C29.7826116,27.0510647 29.5039704,26.5580843 29.028,26.4239999 L27.288,25.9319999 C26.8110648,25.8013883 26.3180844,26.0800295 26.184,26.5559999 L23.508,36.1559999 L26.976,37.1279999 L29.652,27.528 Z" id="Path" fill="#BCBCBC"></path>
                        <path d="M36.576,29.472 C36.7134324,28.9943207 36.4376076,28.4956739 35.9599296,28.3582415 C35.95729,28.3574821 35.9546469,28.3567347 35.9520004,28.3559995 L34.2240004,27.8759995 C33.7470652,27.7453879 33.2540848,28.0240291 33.1200004,28.4999995 L30.4440004,38.0399995 L33.9120004,38.9999995 L36.576,29.472 Z" id="Path" fill="#BCBCBC"></path>
                        <path d="M45.456,24.48 C45.5872524,24.0000649 45.3096036,23.5035001 44.832,23.3640001 L43.092,22.8840001 C42.6150648,22.7533885 42.1220844,23.0320297 41.988,23.5080001 L37.38,39.9720001 L40.848,40.9440001 L45.456,24.48 Z" id="Path" fill="#BCBCBC"></path>
                        <path d="M30.024,6.144 L36.96,8.076" id="Path"></path>
                        <path d="M34.248,11.064 L46.392,14.46" id="Path"></path>
                        <path d="M29.82,13.56 L38.484,15.984" id="Path"></path>
                        <path d="M19.188,2.016 L7.02,17.628" id="Path"></path>
                        <path d="M13.104,9.816 L20.916,15.912" id="Path"></path>
                        <path d="M11.892,0 L13.104,9.816" id="Path"></path>
                    </g>
                    <g id="Group" transform="translate(38.616000, 88.908000)">
                        <path d="M4.15322271,28.1738108 C3.49048649,28.1738108 2.95322232,27.6365466 2.95322232,26.9738104 L2.95322232,3.45380281 C2.95322232,2.79106659 3.49048649,2.25380242 4.15322271,2.25380242 L16.8732268,2.25380242 C17.535963,2.25380242 18.0732272,2.79106659 18.0732272,3.45380281 L18.0732272,26.9738104 C18.0732272,27.6365466 17.535963,28.1738108 16.8732268,28.1738108 L4.15322271,28.1738108 Z" id="Path" stroke="#494949" stroke-width="1.20000039" fill="#FFFFFF" stroke-linecap="round" stroke-linejoin="round" transform="translate(10.513225, 15.213807) rotate(-13.529968) translate(-10.513225, -15.213807) "></path>
                        <g id="j-link" transform="translate(10.498566, 14.896428) rotate(-13.529968) translate(-10.498566, -14.896428) translate(2.098563, 5.896425)" fill="#BCBCBC">
                            <polygon id="j" points="0.780000253 0.672000218 15.9000051 0.672000218 15.9000051 17.9520058 0.780000253 17.9520058"></polygon>
                        </g>
                    </g>
                    <polygon id="Path" fill="#FFFFFF" points="43.044 111.132 53.412 94.2 39.768 97.488"></polygon>
                    <g id="Group" transform="translate(38.616000, 92.508000)" stroke="#494949" stroke-linecap="round" stroke-linejoin="round" stroke-width="1.20000039">
                        <g id="j-link" transform="translate(10.498566, 11.296428) rotate(-13.529968) translate(-10.498566, -11.296428) translate(2.098563, 2.296425)">
                            <polygon id="j" points="0.780000253 0.672000218 15.9000051 0.672000218 15.9000051 17.9520058 0.780000253 17.9520058"></polygon>
                        </g>
                    </g>
                </g>
            </g>
        </g>
    </g>
</svg>