<?xml version="1.0" encoding="UTF-8"?>
<svg width="439px" height="376px" viewBox="0 0 439 376" version="1.1" xmlns="http://www.w3.org/2000/svg" xmlns:xlink="http://www.w3.org/1999/xlink">
    <!-- Generator: Sketch 52.2 (67145) - http://www.bohemiancoding.com/sketch -->
    <title>icon-faq</title>
    <desc>Created with Sketch.</desc>
    <defs>
        <path d="M343.10193,343.101428 C264.612508,421.59085 137.356238,421.59085 58.8673179,343.101428 C-19.6221043,264.612006 -19.6221043,137.355735 58.8673179,58.8668154 C137.35674,-19.6226068 264.61301,-19.6226068 343.10193,58.8668154 C421.591352,137.356238 421.591352,264.612508 343.10193,343.101428 Z" id="path-1"></path>
    </defs>
    <g id="Symbols" stroke="none" stroke-width="1" fill="none" fill-rule="evenodd">
        <g id="FAQ" transform="translate(-184.000000, -207.000000)">
            <g transform="translate(-1.000000, 1.265545)" id="icon-faq">
                <g transform="translate(185.000000, 206.000000)">
                    <path d="M420.067183,239.181247 L420.067184,239.200071 C420.067184,128.199417 330.083465,38.2156981 219.082811,38.2156981 C108.082157,38.2156981 18.0984382,128.199417 18.0984382,239.200071 C18.0984382,267.780501 24.1939927,296.032422 35.9783094,322.069947 L402.179374,322.069947 L402.179372,322.06995 C413.986702,296.032726 420.085774,267.770505 420.066981,239.18098 L420.067183,239.181247 Z" id="Path" fill="#F0F0F0"></path>
                    <path d="M23.1230466,322.087301 L415.042574,322.087301" id="Path" stroke="#9B9B9B" stroke-linecap="round" stroke-linejoin="round"></path>
                    <g id="Group" stroke-linecap="round" stroke-linejoin="round" transform="translate(0.000000, 319.574996)" stroke="#9B9B9B">
                        <path d="M0.51230466,2.51230466 L13.073828,2.51230466" id="Path"></path>
                        <path d="M425.091792,2.51230466 L437.653315,2.51230466" id="Path"></path>
                    </g>
                    <g id="b-link" transform="translate(193.959763, 23.123047)" fill="#FFFFFF">
                        <path d="M70.3445305,35.1722652 L70.3445312,35.1736521 C70.3350463,15.7485627 54.5802214,0.00907448463 35.1550818,0.0185709962 C15.7299924,0.028055901 -0.00949580711,15.7828808 7.04505498e-07,35.2080204 C0.00399878614,43.3960735 2.86463097,51.3262134 8.08871728,57.6312439 L8.08871756,57.6312443 C12.5907876,63.0351111 15.0617196,69.8430547 15.0738289,76.8765531 L15.0738289,90.4429983 L15.0738289,90.4429998 C15.0738298,95.9930325 19.5730199,100.492218 25.1230476,100.492218 L45.2214849,100.492218 L45.2214844,100.492218 C50.7715171,100.492219 55.2707031,95.9930325 55.2707031,90.4429998 L55.2707031,76.8765546 L55.2707035,76.8763149 C55.2828446,69.8432688 57.7535036,63.0357773 62.2550612,57.6321115 L62.2550615,57.6321111 C67.4874384,51.3174836 70.348853,43.3730235 70.3445318,35.1723084 L70.3445305,35.1722652 Z" id="b"></path>
                    </g>
                    <g id="b-link" stroke-linejoin="round" transform="translate(193.959763, 23.123047)" stroke="#9B9B9B">
                        <path d="M70.3445305,35.1722652 L70.3445312,35.1736521 C70.3350463,15.7485627 54.5802214,0.00907448463 35.1550818,0.0185709962 C15.7299924,0.028055901 -0.00949580711,15.7828808 7.04505498e-07,35.2080204 C0.00399878614,43.3960735 2.86463097,51.3262134 8.08871728,57.6312439 L8.08871756,57.6312443 C12.5907876,63.0351111 15.0617196,69.8430547 15.0738289,76.8765531 L15.0738289,90.4429983 L15.0738289,90.4429998 C15.0738298,95.9930325 19.5730199,100.492218 25.1230476,100.492218 L45.2214849,100.492218 L45.2214844,100.492218 C50.7715171,100.492219 55.2707031,95.9930325 55.2707031,90.4429998 L55.2707031,76.8765546 L55.2707035,76.8763149 C55.2828446,69.8432688 57.7535036,63.0357773 62.2550612,57.6321115 L62.2550615,57.6321111 C67.4874384,51.3174836 70.348853,43.3730235 70.3445318,35.1723084 L70.3445305,35.1722652 Z" id="b"></path>
                    </g>
                    <path d="M262.264303,359.835181 C295.131679,363.26909 295.131679,368.836568 262.264303,372.270436 C229.396926,375.704344 176.108331,375.704344 143.240855,372.270436 C110.373478,368.836528 110.373478,363.269049 143.240855,359.835181 C176.108231,356.401273 229.396826,356.401273 262.264303,359.835181" id="Path" fill="#F0F0F0"></path>
                    <g id="Group" stroke-linejoin="round" transform="translate(170.836717, 0.000000)" stroke="#9B9B9B">
                        <path d="M38.1968746,108.541405 L38.1968746,113.566014 L38.1968746,113.566016 C38.1968754,119.116049 42.6960655,123.615235 48.2460932,123.615235 L68.3445305,123.615235 L68.34453,123.615235 C73.8945628,123.615235 78.3937487,119.116049 78.3937487,113.566016 L78.3937487,108.541405 L38.1968746,108.541405 Z" id="Path" fill="#C4C4C4"></path>
                        <path d="M68.3445305,126.127538 C68.3445305,131.67757 63.8453395,136.176756 58.2953118,136.176756 C52.7452791,136.176756 48.2460932,131.677565 48.2460932,126.127538 L48.2460932,123.615233 L68.3445305,123.615233 L68.3445305,126.127538 Z" id="Path" fill="#C4C4C4"></path>
                        <path d="M58.2953118,10.5615233 L58.2953118,0.51230466" id="Path" stroke-linecap="round"></path>
                        <path d="M92.0606865,24.5299372 L99.1453856,17.4452381" id="Path" stroke-linecap="round"></path>
                        <path d="M106.0291,58.2953118 L116.078319,58.2953118" id="Path" stroke-linecap="round"></path>
                        <path d="M24.5299372,24.5299372 L17.4452381,17.4452381" id="Path" stroke-linecap="round"></path>
                        <path d="M10.5615233,58.2953118 L0.51230466,58.2953118" id="Path" stroke-linecap="round"></path>
                    </g>
                    <g id="Clipped" transform="translate(18.098437, 38.196875)">
                        <mask id="mask-2" fill="white">
                            <use xlink:href="#path-1"></use>
                        </mask>
                        <g id="Path"></g>
                        <g id="Group" mask="url(#mask-2)">
                            <g transform="translate(5.024609, 152.738280)">
                                <g id="c-link" stroke="none" stroke-width="1" fill="none" fill-rule="evenodd" transform="translate(0.000000, 15.073828)">
                                    <path d="M155.762889,78.3937491 C155.762889,35.3810333 120.89416,0.51230466 77.8814445,0.51230466 C34.8687286,0.51230466 0,35.3810333 0,78.3937491 L0,116.078319 L155.762889,116.078319 L155.762889,78.3937491 Z" id="c" fill="#FFFFFF"></path>
                                </g>
                                <g id="c-link" stroke-linecap="round" stroke-linejoin="round" stroke="none" stroke-width="1" fill="none" fill-rule="evenodd" transform="translate(0.000000, 15.073828)">
                                    <path d="M155.762889,78.3937491 C155.762889,35.3810333 120.89416,0.51230466 77.8814445,0.51230466 C34.8687286,0.51230466 0,35.3810333 0,78.3937491 L0,116.078319 L155.762889,116.078319 L155.762889,78.3937491 Z" id="c" stroke="#9B9B9B"></path>
                                </g>
                                <path d="M125.615233,73.3691398 L125.615233,131.152147" id="Path" stroke="#9B9B9B" stroke-width="1" fill="none" stroke-linecap="round" stroke-linejoin="round"></path>
                                <path d="M95.4675771,156.275194 C95.4675771,163.212722 89.8435821,168.836717 82.9060538,168.836717 L55.2707025,168.836717 L55.2707025,143.71367 L82.9060538,143.71367 L82.9060532,143.71367 C89.8435816,143.71367 95.4675765,149.337665 95.4675765,156.275194 L95.4675771,156.275194 Z" id="Path" stroke="#9B9B9B" stroke-width="1" fill="#FFFFFF" fill-rule="evenodd" stroke-linecap="round" stroke-linejoin="round"></path>
                                <path d="M30.1476559,126.529506 L30.1476559,126.529504 C30.1476547,134.632541 36.7164784,141.201363 44.8195151,141.201363 C44.8195151,141.201363 44.8195151,141.201363 44.8195151,141.201363 L65.3199212,141.201363 L65.3199209,141.201363 C68.0949373,141.201363 70.3445303,143.450956 70.3445303,146.225973 L70.3445303,166.32441 C70.3445303,169.099426 68.0949373,171.349019 65.3199209,171.349019 L44.8195149,171.349019 L44.819513,171.349019 C20.0663781,171.349018 -2.17875785e-06,151.282639 -2.17875785e-06,126.529504 L30.1476559,126.529506 Z" id="Path" stroke="none" fill="#FFFFFF" fill-rule="evenodd"></path>
                                <path d="M30.1476559,73.3691398 L30.1476559,126.529506 L30.1476559,126.529504 C30.1476547,134.632541 36.7164784,141.201363 44.8195151,141.201363 C44.8195151,141.201363 44.8195151,141.201363 44.8195151,141.201363 L65.3199212,141.201363 L65.3199209,141.201363 C68.0949373,141.201363 70.3445303,143.450956 70.3445303,146.225973 L70.3445303,166.32441 C70.3445303,169.099426 68.0949373,171.349019 65.3199209,171.349019 L44.8195149,171.349019 L44.819513,171.349019 C20.0663781,171.349018 -2.17875785e-06,151.282639 -2.17875785e-06,126.529504" id="Path" stroke="#9B9B9B" stroke-width="1" fill="none" stroke-linecap="round" stroke-linejoin="round"></path>
                                <path d="M115.566014,90.9552724 L99.2360341,90.9552724" id="Path" stroke="#9B9B9B" stroke-width="1" fill="none" stroke-linecap="round" stroke-linejoin="round"></path>
                                <path d="M65.3199212,45.7337885 L90.4429678,45.7337885 L86.3730342,62.0135227 C85.8061779,64.3106887 83.7134934,65.9011333 81.3484249,65.8322258 L74.2637257,65.8322258 C71.8986573,65.9011313 69.8059728,64.3106887 69.2391165,62.0135228 L65.3199212,45.7337885 Z" id="Path" stroke="#9B9B9B" stroke-width="1" fill="#C4C4C4" fill-rule="evenodd" stroke-linecap="round" stroke-linejoin="round"></path>
                                <polygon id="Path" stroke="#9B9B9B" stroke-width="1" fill="#C4C4C4" fill-rule="evenodd" stroke-linecap="round" stroke-linejoin="round" points="72.8568351 65.8322258 65.3199212 131.152147 90.4429678 131.152147 82.9060538 65.8322258"></polygon>
                                <path d="M77.8814445,21.716156 L77.8814445,51.8638119 L57.7830072,61.9130305 L53.7130736,63.9228743 L53.713074,63.9228741 C51.2243548,65.1504716 48.2116795,64.1281289 46.9841172,61.6394103 C46.7608542,61.1867869 46.6070584,60.7031095 46.5279073,60.2046632 L43.4126495,40.1062259 L43.4126482,40.1062184 C41.8540395,30.9266591 46.0562409,21.7255945 54.0145739,16.8925233 L54.0145741,16.8925232 C54.8285006,16.3895196 55.7076464,16.0006651 56.627371,15.736863 C59.5416444,15.0334177 62.55641,20.7614723 65.6214217,20.2590114 L77.8814445,21.716156 Z" id="Path" stroke="#9B9B9B" stroke-width="1" fill="#FFFFFF" fill-rule="evenodd" stroke-linecap="round" stroke-linejoin="round"></path>
                                <path d="M112.249772,40.05598 L109.184761,60.1544173 L109.184761,60.1544163 C108.762417,62.8971044 106.196651,64.7781121 103.453943,64.3557685 C102.930052,64.2750949 102.422224,64.1120318 101.949303,63.8726277 L97.8793696,61.862784 L77.7809323,51.8135654 L77.7809323,21.6659095 L89.9404869,20.1082806 C93.0054986,20.5102493 96.0202641,15.0836712 98.9345376,15.5861322 L98.9345374,15.5861321 C99.9355451,15.9118891 100.896366,16.3501592 101.798565,16.8925306 L101.798564,16.8925298 C109.680216,21.7597483 113.815922,30.9259622 112.249751,40.0559788 L112.249772,40.05598 Z" id="Path" stroke="#9B9B9B" stroke-width="1" fill="#FFFFFF" fill-rule="evenodd" stroke-linecap="round" stroke-linejoin="round"></path>
                                <g id="d-link" stroke-linecap="round" stroke-linejoin="round" stroke="none" stroke-width="1" fill="none" fill-rule="evenodd" transform="translate(60.295312, 0.000000)">
                                    <polygon id="d" stroke="#9B9B9B" fill="#FFFFFF" points="35.1722652 28.1476559 17.5861326 45.7337885 0 28.1476559 0 0.51230466 35.1722652 0.51230466"></polygon>
                                </g>
                                <g id="d-link" stroke-linecap="round" stroke-linejoin="round" stroke="none" stroke-width="1" fill="none" fill-rule="evenodd" transform="translate(60.295312, 0.000000)">
                                    <polygon id="d" stroke="#9B9B9B" points="35.1722652 28.1476559 17.5861326 45.7337885 0 28.1476559 0 0.51230466 35.1722652 0.51230466"></polygon>
                                </g>
                                <g id="d-link" stroke-linecap="round" stroke-linejoin="round" stroke="none" stroke-width="1" fill="none" fill-rule="evenodd" transform="translate(60.295312, 0.000000)">
                                    <polygon id="d" stroke="#9B9B9B" points="35.1722652 28.1476559 17.5861326 45.7337885 0 28.1476559 0 0.51230466 35.1722652 0.51230466"></polygon>
                                </g>
                                <g id="e-link" stroke="none" stroke-width="1" fill="none" fill-rule="evenodd" transform="translate(260.255075, 12.073828)">
                                    <path d="M73.8814445,1 L73.8814404,0.999999976 C38.9343782,0.79575212 8.48213043,24.7656986 0.471898248,58.7830072 L0.471898065,58.7830081 C0.0947307913,60.6962336 0.858614609,62.6549117 2.4314957,63.8076174 L2.43151066,63.8076282 C9.76482747,69.1078876 17.510715,73.81258 25.5949596,77.8765343 C27.4684908,78.6699453 28.6786227,80.5149014 28.6599713,82.549421 L28.6599713,119.078331 L119.102939,119.078331 L119.102939,82.5996671 L119.102939,82.5996676 C119.084287,80.565148 120.29442,78.7201919 122.167951,77.926781 L122.167959,77.9267768 C130.252204,73.8627974 137.998091,69.1581301 145.331408,63.8578707 L145.331408,63.8578705 C146.904292,62.7051649 147.668173,60.7464867 147.291006,58.8332612 L147.291006,58.8332611 C139.300822,24.7960048 108.843399,0.801033263 73.8814637,1.00000779 L73.8814445,1 Z" id="e" fill="#C4C4C4"></path>
                                </g>
                                <g id="e-link" stroke-linecap="round" stroke-linejoin="round" stroke="none" stroke-width="1" fill="none" fill-rule="evenodd" transform="translate(260.255075, 12.073828)">
                                    <path d="M73.8814445,1 L73.8814404,0.999999976 C38.9343782,0.79575212 8.48213043,24.7656986 0.471898248,58.7830072 L0.471898065,58.7830081 C0.0947307913,60.6962336 0.858614609,62.6549117 2.4314957,63.8076174 L2.43151066,63.8076282 C9.76482747,69.1078876 17.510715,73.81258 25.5949596,77.8765343 C27.4684908,78.6699453 28.6786227,80.5149014 28.6599713,82.549421 L28.6599713,119.078331 L119.102939,119.078331 L119.102939,82.5996671 L119.102939,82.5996676 C119.084287,80.565148 120.29442,78.7201919 122.167951,77.926781 L122.167959,77.9267768 C130.252204,73.8627974 137.998091,69.1581301 145.331408,63.8578707 L145.331408,63.8578705 C146.904292,62.7051649 147.668173,60.7464867 147.291006,58.8332612 L147.291006,58.8332611 C139.300822,24.7960048 108.843399,0.801033263 73.8814637,1.00000779 L73.8814445,1 Z" id="e" stroke="#9B9B9B"></path>
                                </g>
                                <g id="f-link" stroke-linecap="round" stroke-linejoin="round" stroke="none" stroke-width="1" fill="none" fill-rule="evenodd" transform="translate(316.550387, 0.000000)">
                                    <polygon id="f" stroke="#9B9B9B" fill="#FFFFFF" points="0 28.1476559 17.5861326 28.1476559 35.1722652 28.1476559 35.1722652 0.51230466 0 0.51230466"></polygon>
                                </g>
                                <g id="f-link" stroke-linecap="round" stroke-linejoin="round" stroke="none" stroke-width="1" fill="none" fill-rule="evenodd" transform="translate(316.550387, 0.000000)">
                                    <polygon id="f" stroke="#9B9B9B" points="0 28.1476559 17.5861326 28.1476559 35.1722652 28.1476559 35.1722652 0.51230466 0 0.51230466"></polygon>
                                </g>
                                <path d="M361.771871,20.6107419 L361.771871,35.6845699" id="Path" stroke="#9B9B9B" stroke-width="1" fill="none" stroke-linecap="round" stroke-linejoin="round"></path>
                                <path d="M306.501169,35.6845699 L306.501169,20.6107419" id="Path" stroke="#9B9B9B" stroke-width="1" fill="none" stroke-linecap="round" stroke-linejoin="round"></path>
                                <path d="M334.136521,35.6845688 C334.136521,35.6845688 311.525778,38.1968746 316.550387,45.7337885 C318.409493,48.4973237 321.223274,47.8943705 324.087301,46.0352651 L324.087303,46.035264 C327.928988,43.0992993 331.315354,39.6113512 334.136521,35.6845688 Z" id="Path" stroke="#9B9B9B" stroke-width="1" fill="none" stroke-linecap="round" stroke-linejoin="round"></path>
                                <path d="M334.13652,35.6845699 C329.688744,49.5107413 327.152914,63.88032 326.599604,78.3937533" id="Path" stroke="#9B9B9B" stroke-width="1" fill="none" stroke-linecap="round" stroke-linejoin="round"></path>
                                <path d="M334.13652,35.6845697 C334.13652,35.6845697 356.747262,38.1968746 351.722652,45.7337885 C349.913793,48.4973237 347.049766,47.8943705 344.185738,46.0352651 L344.185738,46.0352649 C340.344053,43.0993003 336.957687,39.6113521 334.13652,35.6845697 Z" id="Path" stroke="#9B9B9B" stroke-width="1" fill="none" stroke-linecap="round" stroke-linejoin="round"></path>
                                <path d="M334.136517,35.6845608 C338.584296,49.5107281 341.120121,63.8803068 341.673431,78.3937401" id="Path" stroke="#9B9B9B" stroke-width="1" fill="none" stroke-linecap="round" stroke-linejoin="round"></path>
                                <path d="M286.402731,58.2953118 L288.915036,95.9798817" id="Path" stroke="#9B9B9B" stroke-width="1" fill="none" stroke-linecap="round" stroke-linejoin="round"></path>
                                <path d="M267.25897,79.0469483 L271.379149,70.8568351" id="Path" stroke="#9B9B9B" stroke-width="1" fill="none" stroke-linecap="round" stroke-linejoin="round"></path>
                                <path d="M381.870308,58.2953118 L379.358004,95.9798817" id="Path" stroke="#9B9B9B" stroke-width="1" fill="none" stroke-linecap="round" stroke-linejoin="round"></path>
                                <path d="M382.423015,90.0005966 C380.549484,90.7940075 379.339352,92.6389637 379.358004,94.6734833 L379.357791,131.152147 L404.48105,131.152147 L404.48105,76.6853819 C397.498451,81.7097855 390.121822,86.1626496 382.423015,90.0005969 L382.423015,90.0005966 Z" id="Path" stroke="#9B9B9B" stroke-width="1" fill="#FFFFFF" fill-rule="evenodd" stroke-linecap="round" stroke-linejoin="round"></path>
                                <path d="M288.915036,94.6734833 L288.915036,94.6734835 C288.933688,92.6389639 287.723555,90.7940077 285.850024,90.0005968 L285.850014,90.0005919 C278.151207,86.1626345 270.774579,81.7097855 263.791979,76.6853772 L263.791979,108.5414 C263.791979,111.316417 261.542387,113.56601 258.76737,113.56601 C255.992354,113.56601 253.742761,111.316417 253.742761,108.5414 L253.742761,75.8814397 L253.742761,68.3445257 L258.214663,66.0834515 L258.214664,66.0834511 C261.62968,64.3864898 263.789971,60.9027774 263.79198,57.0894004 L263.79198,55.783002 C263.79198,50.2329693 259.292789,45.7337833 253.742762,45.7337833 L253.742762,18.0984321 C253.742762,13.93591 250.36837,10.5615181 246.205848,10.5615181 C242.043326,10.5615181 238.668934,13.93591 238.668934,18.0984321 L238.668934,40.2569592 L230.026606,42.4175412 L230.026605,42.4175413 C225.02018,43.9806872 222.228864,49.3063811 223.79202,54.3128014 C223.79338,54.3171578 223.794744,54.3215132 223.79611,54.3258676 L225.002016,59.3504769 L225.002016,59.3504766 C225.597171,61.7815233 227.017975,63.9304935 229.021704,65.4302539 C229.021704,68.5957578 228.619735,71.2588007 228.619735,72.0627382 L228.619735,76.0321796 L228.619735,108.541402 L228.619734,108.541725 C228.558356,125.191723 242.006097,138.738924 258.656044,138.800325 C270.688175,138.844679 281.594491,131.730297 286.402892,120.700677 L286.402892,120.700676 C288.073559,116.951866 288.946223,112.896554 288.965443,108.792352 L288.915036,94.6734833 Z" id="Path" stroke="#9B9B9B" stroke-width="1" fill="#FFFFFF" fill-rule="evenodd" stroke-linecap="round" stroke-linejoin="round"></path>
                                <path d="M231.132029,66.7869016 L244.095521,63.5711516 L244.095521,63.5711516 C249.087902,61.9835409 251.86829,56.6693985 250.326036,51.6628275 L249.12013,46.6382182 L249.120131,46.63822 C248.154742,41.4957836 243.211642,38.1030166 238.06599,39.0510599 L225.102498,42.2668099 L225.102498,42.26681 C220.096072,43.8299559 217.304756,49.1556498 218.867912,54.1620701 C218.869272,54.1664265 218.870636,54.1707819 218.872002,54.1751363 L220.077908,59.1997456 L220.077908,59.1997444 C221.043296,64.3421808 225.986397,67.7349478 231.132049,66.7869045 L231.132029,66.7869016 Z" id="Path" stroke="#9B9B9B" stroke-width="1" fill="#FFFFFF" fill-rule="evenodd" stroke-linecap="round" stroke-linejoin="round"></path>
                                <path d="M334.13652,35.6845699 C313.68636,35.6845699 307.305106,23.3742771 307.053876,22.8718161 C305.623138,20.4940655 306.390843,17.4066993 308.768594,15.9759418 C311.146344,14.5452044 314.233711,15.3129094 315.664468,17.6906601 C315.791552,17.901861 315.902923,18.1221273 315.997678,18.3496728 C315.997678,18.3496728 320.218349,25.6353563 334.136517,25.6353563 C348.054685,25.6353563 352.124619,18.5506571 352.325603,18.2491806 C353.633077,15.84186 356.627925,14.925527 359.05858,16.1890906 L359.05858,16.1890907 C361.543897,17.4235568 362.557914,20.4390359 361.323453,22.9243283 C361.290173,22.9913294 361.255401,23.0575789 361.219163,23.123027 C360.967933,23.3742574 354.586679,35.6845503 334.136519,35.6845503 L334.13652,35.6845699 Z" id="Path" stroke="#9B9B9B" stroke-width="1" fill="#C4C4C4" fill-rule="evenodd"></path>
                            </g>
                        </g>
                    </g>
                    <g id="Group" stroke-linecap="round" stroke-linejoin="round" transform="translate(40.196875, 75.369140)" stroke="#9B9B9B">
                        <path d="M111.05371,63.3199212 L111.05371,50.7583979 C111.05371,23.0082343 88.5577801,0.51230466 60.8076165,0.51230466 C33.0574529,0.51230466 10.5615233,23.0082343 10.5615233,50.7583979 L10.5615233,63.3199212 L10.5615229,63.3199212 C5.01149014,63.3199214 0.512304221,67.8191121 0.512304221,73.3691398 C0.512304463,78.9191725 5.01149517,83.4183584 10.5615229,83.4183584 L11.164476,83.4183584 L11.1644747,83.4183503 C15.450587,110.835483 41.1511421,129.586923 68.5681239,125.30078 C90.148218,121.927172 107.076981,104.998444 110.450554,83.4183503 L111.053507,83.4183503 L111.053507,83.4183503 C116.603539,83.4183505 121.102725,78.9191644 121.102725,73.3691317 C121.102725,67.8190989 116.603539,63.319913 111.053507,63.319913 L111.05371,63.3199212 Z" id="Path" fill="#FFFFFF"></path>
                        <path d="M45.6332964,97.4872634 C54.1047889,105.45092 67.3094622,105.45092 75.7809535,97.4872634" id="Path"></path>
                    </g>
                    <path d="M76.5542396,155.602398 C79.0070278,158.055187 79.0070278,162.031939 76.5542396,164.484752 C74.1014515,166.93754 70.1246993,166.93754 67.671886,164.484752 C65.2190979,162.031964 65.2190979,158.055212 67.671886,155.602398 C70.1246742,153.14961 74.1014264,153.14961 76.5542396,155.602398" id="Path" fill="#C4C4C4"></path>
                    <path d="M134.337247,155.602398 C136.790035,158.055187 136.790035,162.031939 134.337247,164.484752 C131.884459,166.93754 127.907706,166.93754 125.454893,164.484752 C123.002105,162.031964 123.002105,158.055212 125.454893,155.602398 C127.907681,153.14961 131.884434,153.14961 134.337247,155.602398" id="Path" fill="#C4C4C4"></path>
                    <path d="M128.639842,143.71367 L128.639842,143.71367 C126.869698,139.551148 122.060317,137.611735 117.89778,139.381889 C115.94787,140.211106 114.395216,141.76376 113.565999,143.71367" id="Path" stroke="#9B9B9B" stroke-linecap="round" stroke-linejoin="round"></path>
                    <path d="M88.4429678,143.71367 L88.4429678,143.71367 C86.6728231,139.551148 81.8634429,137.611735 77.7009058,139.381889 C75.7509956,140.211106 74.1983411,141.76376 73.3691248,143.71367" id="Path" stroke="#9B9B9B" stroke-linecap="round" stroke-linejoin="round"></path>
                    <g id="g-link" transform="translate(48.246093, 70.344530)" fill="#FFFFFF">
                        <path d="M55.2707025,0.51230466 L55.2707001,0.51230466 C24.7455453,0.512305994 -2.41595778e-06,25.2578524 -2.41595778e-06,55.7830072 C-2.41595778e-06,55.7830072 -2.41595778e-06,55.7830072 -2.41595778e-06,55.7830072 L-2.41595778e-06,68.3445329 C7.56962262,68.3485067 14.2822494,63.4813367 16.6314553,56.2854681 L21.0531115,43.2214839 L21.0531114,43.221484 C21.9149626,40.5865839 24.7480182,39.147576 27.3841192,40.0057341 L27.3841185,40.0057339 C36.3889219,43.1273076 45.7645414,45.0531047 55.2707003,45.7337885 L55.2707026,45.7337883 C66.4396554,44.6578687 77.4196829,42.1240235 87.9306631,38.1968743 L94.0104404,56.38596 L94.0104397,56.385958 C96.3697702,63.5166826 103.030518,68.3350819 110.541404,68.3445329 L110.541404,55.7830049 C110.541404,25.2578501 85.7958567,0.51230236 55.2707019,0.51230236 L55.2707025,0.51230466 Z" id="g"></path>
                    </g>
                    <g id="g-link" stroke-linecap="round" stroke-linejoin="round" transform="translate(48.246093, 70.344530)" stroke="#9B9B9B">
                        <path d="M55.2707025,0.51230466 L55.2707001,0.51230466 C24.7455453,0.512305994 -2.41595778e-06,25.2578524 -2.41595778e-06,55.7830072 C-2.41595778e-06,55.7830072 -2.41595778e-06,55.7830072 -2.41595778e-06,55.7830072 L-2.41595778e-06,68.3445329 C7.56962262,68.3485067 14.2822494,63.4813367 16.6314553,56.2854681 L21.0531115,43.2214839 L21.0531114,43.221484 C21.9149626,40.5865839 24.7480182,39.147576 27.3841192,40.0057341 L27.3841185,40.0057339 C36.3889219,43.1273076 45.7645414,45.0531047 55.2707003,45.7337885 L55.2707026,45.7337883 C66.4396554,44.6578687 77.4196829,42.1240235 87.9306631,38.1968743 L94.0104404,56.38596 L94.0104397,56.385958 C96.3697702,63.5166826 103.030518,68.3350819 110.541404,68.3445329 L110.541404,55.7830049 C110.541404,25.2578501 85.7958567,0.51230236 55.2707019,0.51230236 L55.2707025,0.51230466 Z" id="g"></path>
                    </g>
                    <g id="h-link" transform="translate(75.369140, 60.295312)" fill="#FFFFFF">
                        <path d="M88.4429678,78.3937491 C88.4429678,78.3937491 68.3445305,83.4183584 53.2707025,58.2953118 C53.2707025,58.2953118 50.7583979,70.8568351 40.7091792,70.8568351 C40.7091792,70.8568351 48.2460932,55.7830072 28.1476559,55.7830072 L28.1476547,55.7830072 C12.8850522,55.7830065 0.512303452,43.4102585 0.512303452,28.1476559 C0.512304119,12.8850534 12.8850522,0.51230466 28.1476547,0.51230466 C28.1476547,0.51230466 68.3445293,0.51230466 85.9306619,35.6845699 C85.9306607,35.6845699 93.4675759,50.7583979 88.4429665,78.3937491 L88.4429678,78.3937491 Z" id="h"></path>
                    </g>
                    <g id="h-link" stroke-linecap="round" stroke-linejoin="round" transform="translate(75.369140, 60.295312)" stroke="#9B9B9B">
                        <path d="M88.4429678,78.3937491 C88.4429678,78.3937491 68.3445305,83.4183584 53.2707025,58.2953118 C53.2707025,58.2953118 50.7583979,70.8568351 40.7091792,70.8568351 C40.7091792,70.8568351 48.2460932,55.7830072 28.1476559,55.7830072 L28.1476547,55.7830072 C12.8850522,55.7830065 0.512303452,43.4102585 0.512303452,28.1476559 C0.512304119,12.8850534 12.8850522,0.51230466 28.1476547,0.51230466 C28.1476547,0.51230466 68.3445293,0.51230466 85.9306619,35.6845699 C85.9306607,35.6845699 93.4675759,50.7583979 88.4429665,78.3937491 L88.4429678,78.3937491 Z" id="h"></path>
                    </g>
                    <g id="i-link" transform="translate(324.599606, 48.246093)" fill="#FFFFFF">
                        <path d="M45.6852553,7.72634175 C55.9869606,18.028047 55.9869606,34.7304513 45.6852553,45.0321566 C35.3835501,55.3338619 18.6811457,55.3338619 8.37944047,45.0321566 C-1.92226479,34.7304513 -1.92226479,18.028047 8.37944047,7.72634175 C18.6811457,-2.57536351 35.3835501,-2.57536351 45.6852553,7.72634175" id="i"></path>
                    </g>
                    <g id="i-link" stroke-linecap="round" stroke-linejoin="round" transform="translate(324.599606, 48.246093)" stroke="#9B9B9B">
                        <path d="M45.6852553,7.72634175 C55.9869606,18.028047 55.9869606,34.7304513 45.6852553,45.0321566 C35.3835501,55.3338619 18.6811457,55.3338619 8.37944047,45.0321566 C-1.92226479,34.7304513 -1.92226479,18.028047 8.37944047,7.72634175 C18.6811457,-2.57536351 35.3835501,-2.57536351 45.6852553,7.72634175" id="i"></path>
                    </g>
                    <g id="j-link" transform="translate(296.451950, 65.319921)" fill="#FFFFFF">
                        <path d="M103.442934,18.172299 C126.98971,41.7190754 126.98971,79.8961073 103.442934,103.442934 C79.8961576,126.98971 41.7191257,126.98971 18.172299,103.442934 C-5.37447737,79.8961576 -5.37447737,41.7191257 18.172299,18.172299 C41.7190754,-5.37447737 79.8961073,-5.37447737 103.442934,18.172299" id="j"></path>
                    </g>
                    <g id="Group" stroke-linecap="round" stroke-linejoin="round" transform="translate(296.451950, 65.319921)" stroke="#9B9B9B">
                        <path d="M103.442934,18.172299 C126.98971,41.7190754 126.98971,79.8961073 103.442934,103.442934 C79.8961576,126.98971 41.7191257,126.98971 18.172299,103.442934 C-5.37447737,79.8961576 -5.37447737,41.7191257 18.172299,18.172299 C41.7190754,-5.37447737 79.8961073,-5.37447737 103.442934,18.172299" id="j"></path>
                        <path d="M0.51230466,83.4183584 L0.51230466,83.41836 C0.512305498,88.9683927 5.01149561,93.4675786 10.5615233,93.4675786 L11.1644764,93.4675786 L11.1644751,93.4675705 C15.4505875,120.884703 41.1511426,139.636143 68.5681243,135.35 C90.1482184,131.976392 107.076981,115.047665 110.450554,93.4675705 L111.053507,93.4675705 L111.053507,93.4675705 C116.60354,93.4675707 121.102726,88.9683845 121.102726,83.4183518 C121.102726,77.8683191 116.60354,73.3691332 111.053507,73.3691332 L111.053507,65.2795122 L111.053509,65.2795123 C98.1991016,64.4078783 86.1522491,58.6986308 77.3383809,49.3012547 L77.3383806,49.3012543 C72.7909434,43.2146436 68.9635125,36.6220044 65.9325175,29.6550319 L65.9325199,29.6550248 C62.2611786,40.0976704 56.0644887,49.4704259 47.8941725,56.9386534 L47.8941752,56.9386515 C37.1519122,64.7892015 23.5966217,67.744727 10.5613279,65.0785185 L10.5613279,73.3691239 L10.5613284,73.3691239 C5.01129567,73.3691116 0.512109742,77.8682898 0.512109742,83.4183426 C0.512109742,83.4183499 0.512109742,83.4183572 0.512109742,83.4183645 L0.51230466,83.4183584 Z" id="Path" fill="#FFFFFF"></path>
                        <path d="M33.1722652,78.3937491 L33.1722654,78.3937488 C34.9424101,74.2312268 39.7517903,72.291813 43.9143274,74.0619678 C45.8642376,74.8911841 47.4168921,76.4438387 48.2461084,78.3937488" id="Path"></path>
                        <path d="M73.3691398,78.3937491 L73.3691399,78.3937488 C75.1392847,74.2312268 79.9486648,72.291813 84.1112019,74.0619678 C86.0611121,74.8911841 87.6137666,76.4438387 88.442983,78.3937488" id="Path"></path>
                    </g>
                    <path d="M390.592322,155.602398 C393.04511,158.055187 393.04511,162.031939 390.592322,164.484752 C388.139534,166.93754 384.162782,166.93754 381.709969,164.484752 C379.25718,162.031964 379.25718,158.055212 381.709969,155.602398 C384.162757,153.14961 388.139509,153.14961 390.592322,155.602398" id="Path" fill="#C4C4C4"></path>
                    <path d="M332.809315,155.602398 C335.262103,158.055187 335.262103,162.031939 332.809315,164.484752 C330.356527,166.93754 326.379775,166.93754 323.926961,164.484752 C321.474173,162.031964 321.474173,158.055212 323.926961,155.602398 C326.37975,153.14961 330.356502,153.14961 332.809315,155.602398" id="Path" fill="#C4C4C4"></path>
                    <path d="M369.218137,173.861326 L369.218136,173.861327 C362.178608,180.548077 351.134617,180.548077 344.095089,173.861325" id="Path" stroke="#9B9B9B" stroke-linecap="round" stroke-linejoin="round"></path>
                    <g id="Group" stroke-linecap="round" stroke-linejoin="round" transform="translate(299.476559, 50.246093)" stroke="#9B9B9B">
                        <path d="M8.57751057,104.988504 C10.5397411,106.950734 10.5397411,110.132146 8.57751057,112.094357 C6.61528004,114.056587 3.43386826,114.056587 1.47165782,112.094357 C-0.490572706,110.132126 -0.490572706,106.950714 1.47165782,104.988504 C3.43388835,103.026273 6.61530014,103.026273 8.57751057,104.988504" id="Path" fill="#C4C4C4"></path>
                        <polygon id="Path" fill="#C4C4C4" points="5.02460932 113.566014 10.0492186 118.590624 5.02460932 136.176756 0 118.590624"></polygon>
                        <path d="M114.094306,104.988504 C116.056537,106.950734 116.056537,110.132146 114.094306,112.094357 C112.132076,114.056587 108.950664,114.056587 106.988454,112.094357 C105.026223,110.132126 105.026223,106.950714 106.988454,104.988504 C108.950684,103.026273 112.132096,103.026273 114.094306,104.988504" id="Path" fill="#C4C4C4"></path>
                        <polygon id="Path" fill="#C4C4C4" points="110.541405 113.566014 105.516796 118.590624 110.541405 136.176756 115.566014 118.590624"></polygon>
                        <path d="M38.3377691,13.073828 L23.2639412,0.51230466" id="Path"></path>
                    </g>
                    <path d="M323.045494,40.4041854 C325.98884,43.3475312 325.98884,48.1196238 323.045494,51.0629897 C320.102148,54.0063355 315.330056,54.0063355 312.38669,51.0629897 C309.443344,48.1196439 309.443344,43.3475513 312.38669,40.4041854 C315.330036,37.4608396 320.102128,37.4608396 323.045494,40.4041854" id="Path" stroke="#9B9B9B" fill="#C4C4C4"></path>
                    <g id="k-link" transform="translate(301.476559, 77.393749)" fill="#FFFFFF">
                        <path d="M55.7830072,1 L55.7830049,1.00000001 C84.2738461,0.857220713 108.204754,22.3952387 111.053707,50.7436323 L111.053707,50.7436324 C111.331244,53.5047356 109.317916,55.9680202 106.556813,56.2455796 C106.381469,56.2632045 106.205321,56.2715925 106.029098,56.2707089 L5.83838824,56.2707089 L5.8383885,56.2707089 C3.06340731,56.2846225 0.802574298,54.0463345 0.788656131,51.2713533 C0.787772553,51.0951287 0.796160586,50.91898 0.813785458,50.7436387 L0.813785756,50.7436357 C3.6513384,22.5103559 27.4075355,1.01256497 55.7830117,1.00000344 L55.7830072,1 Z" id="k"></path>
                    </g>
                    <g id="k-link" stroke-linecap="round" stroke-linejoin="round" transform="translate(301.476559, 77.393749)" stroke="#9B9B9B">
                        <path d="M55.7830072,1 L55.7830049,1.00000001 C84.2738461,0.857220713 108.204754,22.3952387 111.053707,50.7436323 L111.053707,50.7436324 C111.331244,53.5047356 109.317916,55.9680202 106.556813,56.2455796 C106.381469,56.2632045 106.205321,56.2715925 106.029098,56.2707089 L5.83838824,56.2707089 L5.8383885,56.2707089 C3.06340731,56.2846225 0.802574298,54.0463345 0.788656131,51.2713533 C0.787772553,51.0951287 0.796160586,50.91898 0.813785458,50.7436387 L0.813785756,50.7436357 C3.6513384,22.5103559 27.4075355,1.01256497 55.7830117,1.00000344 L55.7830072,1 Z" id="k"></path>
                    </g>
                    <g id="Group" stroke-linecap="round" stroke-linejoin="round" transform="translate(321.574996, 115.566014)" stroke="#9B9B9B">
                        <path d="M73.3691398,18.0984373 L73.3691398,0.51230466" id="Path"></path>
                        <path d="M55.7830072,18.0984373 L55.7830072,0.51230466" id="Path"></path>
                        <path d="M38.1968746,18.0984373 L38.1968746,0.51230466" id="Path"></path>
                        <path d="M20.6107419,18.0984373 L20.6107419,0.51230466" id="Path"></path>
                        <path d="M3.02460932,18.0984373 L3.02460932,0.51230466" id="Path"></path>
                    </g>
                    <path d="M175.720432,349.722652 L164.515553,349.722652 L188.482939,275.308188 L188.482939,275.308188 C189.183345,273.150932 191.242148,271.730355 193.507549,271.841207 L201.044463,271.841207 L175.720432,349.722652 Z" id="Path" stroke="#9B9B9B" fill="#FFFFFF" stroke-linejoin="round"></path>
                    <g id="Group" transform="translate(122.590624, 271.328903)" fill="#FFFFFF">
                        <path d="M151.10969,78.3937491 L53.129808,78.3937491 L78.2528546,0.51230466 L169.349022,0.51230466 C172.120611,0.374478623 174.479148,2.50956677 174.616973,5.28115634 C174.647519,5.89541986 174.565033,6.51007027 174.373618,7.09454287 L151.10969,78.3937491 Z" id="l"></path>
                        <path d="M151.10969,78.3937491 L48.1051986,78.3937491 L48.1051986,90.9552724 L141.060471,90.9552724 L141.060471,90.9552724 C146.610503,90.9552727 151.109689,86.4560865 151.109689,80.9060538 L151.10969,78.3937491 Z" id="Path" stroke="#9B9B9B" stroke-linejoin="round"></path>
                        <path d="M48.1051986,78.3937491 L2.88371477,78.3937491 C1.49620899,78.3937492 0.371409998,79.5185481 0.371409998,80.9060538 C0.371409998,80.9060538 0.371409998,80.9060538 0.371409998,80.9060538 L0.371409998,80.9060553 C0.371410837,86.456088 4.87060095,90.9552739 10.4206286,90.9552739 L48.356429,90.9552739 L48.1051986,78.3937491 Z" id="Path" stroke="#9B9B9B" stroke-linejoin="round"></path>
                    </g>
                    <path d="M245.311271,308.018395 L245.311271,308.018402 C245.322435,306.089434 246.329573,304.30318 247.974309,303.295264 C246.936149,301.818034 245.257276,300.922638 243.45216,300.883451 C241.492563,300.883451 239.683703,301.988865 238.729027,301.988865 C237.774352,301.988865 236.216723,300.883451 234.659094,300.933697 L234.659094,300.933697 C232.562531,301.003241 230.655747,302.16638 229.634485,303.998709 C227.972887,308.143434 228.561404,312.851568 231.192114,316.45974 C232.247282,317.967123 233.453188,319.625244 235.111309,319.574998 C236.76943,319.524752 237.271891,318.570076 239.130996,318.570076 C240.990102,318.570076 241.542809,319.574998 243.20093,319.524752 C244.859051,319.474506 245.964465,318.017369 246.969387,316.509986 L246.969387,316.509986 C247.725621,315.437865 248.302597,314.249972 248.677755,312.992759 C246.656585,312.163463 245.329812,310.203001 245.311271,308.018396 L245.311271,308.018395 Z" id="Path" stroke="#9B9B9B" fill="#C4C4C4" stroke-linejoin="round"></path>
                    <path d="M241.040353,294.45195 L243.301427,292.190876" id="Path" stroke="#9B9B9B" stroke-linecap="round" stroke-linejoin="round"></path>
                    <g id="l-link" stroke-linejoin="round" transform="translate(174.861326, 271.328903)" stroke="#9B9B9B">
                        <path d="M98.8389872,78.3937491 L0.859105448,78.3937491 L25.982152,0.51230466 L117.078319,0.51230466 C119.849909,0.374478623 122.208445,2.50956677 122.34627,5.28115634 C122.376816,5.89541986 122.294331,6.51007027 122.102915,7.09454287 L98.8389872,78.3937491 Z" id="l"></path>
                    </g>
                </g>
            </g>
        </g>
    </g>
</svg>