<?xml version="1.0" encoding="UTF-8"?>
<svg width="25px" height="24px" viewBox="0 0 25 24" version="1.1" xmlns="http://www.w3.org/2000/svg" xmlns:xlink="http://www.w3.org/1999/xlink">
    <!-- Generator: Sketch 52.2 (67145) - http://www.bohemiancoding.com/sketch -->
    <title>check</title>
    <desc>Created with Sketch.</desc>
    <g id="Page-1" stroke="none" stroke-width="1" fill="none" fill-rule="evenodd">
        <g id="check" transform="translate(0.807339, -0.066270)">
            <path d="M22.3086,9.7573 C22.0274,9.541 21.7031,9.2925 21.333,8.9941 C21.458,8.5366 21.5742,8.145 21.6758,7.8051 C22.0742,6.4651 22.294,5.7265 21.7412,4.9638 C21.1884,4.2011 20.4189,4.1801 19.0225,4.143 C18.667,4.133 18.2579,4.1225 17.7832,4.0991 C17.6162,3.6543 17.4795,3.268 17.3613,2.9331 C16.8974,1.6152 16.6413,0.8896 15.747,0.5981 C14.8554,0.3061 14.2158,0.7412 13.0605,1.5346 C12.7675,1.7358 12.4305,1.9667 12.0361,2.2246 C11.6621,1.978 11.3379,1.7515 11.0517,1.5513 C9.9639,0.7925 9.2441,0.29 8.3291,0.59 C7.4326,0.88 7.1748,1.6055 6.708,2.9229 C6.5889,3.2574 6.4531,3.6429 6.2842,4.087 C5.8096,4.109 5.4014,4.1192 5.0469,4.128 C3.6494,4.1627 2.8789,4.1817 2.3242,4.9425 C1.7685,5.7057 1.9873,6.4449 2.3847,7.7877 C2.4853,8.1277 2.6015,8.5191 2.7255,8.9737 C2.3555,9.2701 2.0302,9.5186 1.7489,9.7337 C0.6377,10.5845 0.0254,11.0527 0.0244,11.9946 C0.0234,12.9365 0.6338,13.4062 1.7422,14.2578 C2.0244,14.4736 2.3477,14.7226 2.7178,15.0205 C2.5928,15.4775 2.4766,15.8696 2.375,16.2095 C1.9766,17.5503 1.7568,18.2886 2.3086,19.0503 C2.8633,19.8145 3.6338,19.835 5.0322,19.8721 C5.3867,19.8814 5.7949,19.8921 6.2666,19.9151 C6.4346,20.3594 6.5703,20.7451 6.6885,21.0801 C7.1533,22.398 7.4092,23.124 8.3047,23.417 C9.2002,23.7075 9.8389,23.272 10.9912,22.48 C11.2832,22.2793 11.6191,22.0484 12.0146,21.79 C12.3896,22.0371 12.7128,22.2636 13,22.4638 C13.6107449,23.0212099 14.3723699,23.3860399 15.1894999,23.5125999 C15.3707739,23.5118042 15.5507629,23.4821323 15.7226989,23.4247001 C16.6191989,23.1347001 16.8759989,22.4096001 17.3426989,21.0927001 C17.4608989,20.7582001 17.5975989,20.3727001 17.7664989,19.9277001 C18.2400989,19.9057001 18.6482989,19.8960001 19.0027989,19.8872001 C20.4011989,19.8525001 21.1716989,19.8335001 21.7263989,19.0723001 C22.2810989,18.3111001 22.0632989,17.5723001 21.6663989,16.2315001 C21.5657989,15.8907001 21.4485989,15.4976001 21.3245989,15.0415001 C21.6966989,14.7441001 22.0218989,14.4951001 22.3040989,14.2788001 C23.4134989,13.4288001 24.0247989,12.9614001 24.0257989,12.0205001 C24.0273,11.0771001 23.4169999,10.6084001 22.3085989,9.75730011 L22.3086,9.7573 Z" id="Path" fill="#2DB674"></path>
            <path d="M10.377,17.2622 L10.3409,17.2622 C10.067697,17.2521044 9.8105,17.130749 9.629,16.9263 L6.709,13.6338 C6.34710599,13.216606 6.39193599,12.58503 6.80913099,12.22314 C7.21980799,11.8669 7.83985099,11.904017 8.20510099,12.3067043 L10.430001,14.8144043 L16.753201,8.65440429 C17.1488029,8.26877136 17.7821209,8.27685236 18.1677509,8.67245416 C18.5533839,9.06805616 18.5453029,9.70137416 18.1497011,10.0870042 C18.1497011,10.0870042 18.1497011,10.0870042 18.1497011,10.0870042 L11.0755011,16.9781042 C10.8884781,17.1600452 10.6379221,17.2619532 10.3770011,17.2622042 L10.377,17.2622 Z" id="Path" fill="#FFFFFF"></path>
            <polygon id="Path" points="0 0 24 0 24 24 0 24"></polygon>
        </g>
    </g>
</svg>