<?xml version="1.0" encoding="UTF-8"?>
<svg width="57px" height="57px" viewBox="0 0 57 57" version="1.1" xmlns="http://www.w3.org/2000/svg" xmlns:xlink="http://www.w3.org/1999/xlink">
    <!-- Generator: Sketch 52.2 (67145) - http://www.bohemiancoding.com/sketch -->
    <title>play</title>
    <desc>Created with Sketch.</desc>
    <g id="Page-1" stroke="none" stroke-width="1" fill="none" fill-rule="evenodd" opacity="0.651320685">
        <g id="Desktop-HD-Home" transform="translate(-386.000000, -535.000000)" fill="#FFFFFF" fill-rule="nonzero">
            <g id="play-button" transform="translate(286.191437, 488.869012)">
                <path d="M128,46.6327526 C112.633535,46.6327526 100.132753,59.1335354 100.132753,74.5 C100.132753,89.8664646 112.633535,102.367247 128,102.367247 C143.366465,102.367247 155.867247,89.8664646 155.867247,74.5 C155.867247,59.1335354 143.366465,46.6327526 128,46.6327526 Z M128,100.044977 C113.915429,100.044977 102.455023,88.5845713 102.455023,74.5 C102.455023,60.4154287 113.915429,48.9550233 128,48.9550233 C142.084571,48.9550233 153.544977,60.4154287 153.544977,74.5 C153.544977,88.5845713 142.084571,100.044977 128,100.044977 Z M141.292677,73.461945 L120.392241,63.0117273 C120.03229,62.8329124 119.604992,62.8491683 119.261296,63.060495 C118.919922,63.2741439 118.710918,63.6480294 118.710918,64.0497822 L118.710918,84.9502178 C118.710918,85.3519706 118.919922,85.7258561 119.261296,85.939505 C119.447077,86.0532963 119.660726,86.1113531 119.872053,86.1113531 C120.050868,86.1113531 120.22736,86.0695522 120.392241,85.9882727 L141.292677,75.538055 C141.685141,75.340662 141.933624,74.9389091 141.933624,74.5 C141.933624,74.0610909 141.685141,73.659338 141.292677,73.461945 Z" id="play"></path>
            </g>
        </g>
    </g>
</svg>