<?xml version="1.0" encoding="UTF-8"?>
<svg width="215px" height="72px" viewBox="0 0 215 72" version="1.1" xmlns="http://www.w3.org/2000/svg" xmlns:xlink="http://www.w3.org/1999/xlink">
    <!-- Generator: Sketch 52.2 (67145) - http://www.bohemiancoding.com/sketch -->
    <title>logo</title>
    <desc>Created with Sketch.</desc>
    <g id="Symbols" stroke="none" stroke-width="1" fill="none" fill-rule="evenodd">
        <g id="Header" transform="translate(2.000000, -2.000000)">
            <g transform="translate(-2.000000, -140.000000)" id="logo">
                <g transform="translate(0.000000, 139.000000)">
                    <g id="Logo" transform="translate(2.000000, 3.248227)">
                        <path d="M212.015232,41.0583511 L171.995403,41.0583511 C171.721977,41.0583511 171.499913,40.8362872 171.499913,40.5628617 L171.499913,0.543031903 C171.499913,0.269102825 171.721977,0.047542541 171.995403,0.047542541 L212.015232,0.047542541 C212.289161,0.047542541 212.510722,0.269102825 212.510722,0.543031903 L212.510722,40.5628617 C212.510722,40.8362872 212.289161,41.0583511 212.015232,41.0583511" id="Fill-1" fill="#0074AF"></path>
                        <path d="M186.170628,34.8726397 C185.097571,34.8726397 183.108564,34.793583 183.108564,33.8393631 L183.108564,6.96208651 C183.108564,5.88902978 187.443089,5.84975318 188.556933,5.84975318 C189.351025,5.84975318 190.265969,6.28632765 190.265969,6.96208651 L190.265969,28.4715617 L200.961288,28.4715617 C201.597266,28.4715617 202.034344,29.3467248 202.034344,30.1015404 C202.034344,31.1745972 202.034344,34.8726397 201.001068,34.8726397 L186.170628,34.8726397 Z" id="Fill-3" fill="#FFFFFE"></path>
                        <path d="M24.4463749,28.4090716 C24.1236019,28.4332418 23.6537934,28.4498589 23.360226,28.4498589 C23.2620345,28.4498589 23.1764316,28.4483482 23.103921,28.4453269 C23.103921,28.4161213 23.1019068,27.9135823 23.1049281,27.8410716 L23.158304,27.8410716 C23.4921551,27.8410716 24.0425309,27.8647383 24.4428501,27.9145893 L24.4463749,28.4090716 Z M23.5455309,11.4113695 C20.645609,11.4113695 17.2068926,11.7421993 15.998382,12.1460433 C14.2490629,12.7784972 14.2490629,14.4824972 14.2490629,15.3974404 C14.2490629,19.2541 15.5255522,20.4223269 16.609687,20.7194191 C13.7631409,22.1797028 13.2983678,25.0912064 13.2983678,27.7247525 C13.2983678,33.8242064 16.5326444,36.5448659 23.7842118,36.5448659 C33.2116019,36.5448659 34.2297721,33.4243908 34.2297721,32.082944 L34.2297721,21.302022 C34.2297721,13.0932135 29.9586941,11.4113695 23.5455309,11.4113695 Z" id="Fill-5" fill="#FFFFFE"></path>
                        <path d="M48.3692458,11.4115709 C47.2866217,11.4115709 46.2055082,11.5565922 45.1017352,11.8536844 L45.1017352,4.93244325 C45.1017352,3.18161346 43.356948,2.13574821 41.6705721,2.13574821 C37.9090827,2.13574821 35.3369692,2.55218084 34.9915366,4.85338651 L34.9915366,33.7483723 C34.9915366,36.2061808 38.2011394,36.5450674 41.6705721,36.5450674 C43.356948,36.5450674 45.1017352,35.4992021 45.1017352,33.7483723 L45.1017352,20.8711879 C45.5357919,20.7840745 46.0247352,20.6889042 46.3893026,20.6098475 C46.3908132,20.6113581 46.4859834,20.7966631 46.4859834,21.3827908 L46.4859834,33.7483723 C46.4859834,36.5450674 50.8059054,36.5450674 53.1262458,36.5450674 C54.83226,36.5450674 56.5956785,35.4992021 56.5956785,33.7483723 L56.5956785,21.0242659 C56.5956785,17.4289468 56.5956785,11.4115709 48.3692458,11.4115709" id="Fill-7" fill="#FFFFFE"></path>
                        <path d="M88.498899,21.0066418 L88.5829912,21.0066418 C90.7336366,21.0066418 91.6954097,18.0890957 91.6954097,15.1987411 C91.6954097,12.8637979 90.5030125,12.1084787 89.5024664,11.887422 C88.214899,11.6019113 86.5753529,11.4115709 82.7559558,11.4115709 C80.8067288,11.4115709 75.866438,11.4130815 73.5319983,14.8880532 C73.5319983,14.8241028 73.533509,14.7405142 73.533509,14.6826064 C73.533509,12.8673227 72.6860409,11.8264929 70.9629061,11.5792518 C69.4557926,11.4130815 68.9779274,11.4115709 68.2724593,11.4115709 L68.2402324,11.4115709 C62.9021402,11.4115709 57.1994806,12.8023652 57.1994806,16.704344 L57.1994806,33.7483723 C57.1994806,36.2061808 60.3914593,36.5450674 63.8412536,36.5450674 C65.5084948,36.5450674 67.2316295,35.4992021 67.2316295,33.7483723 L67.2316295,20.8711879 C67.6677004,20.8147908 68.1712465,20.7694716 68.5584735,20.7694716 C69.1360409,20.7694716 69.5298139,20.8097553 69.8379841,20.8404716 C70.1250054,20.8696773 70.3591543,20.888812 70.5787004,20.888812 C71.3501331,20.888812 71.9125941,20.5725851 72.3335586,20.0876702 C72.5007359,23.8149184 74.3442182,25.8316206 76.4656579,26.9530177 C76.2284877,26.912734 76.0376437,26.8754716 75.8911118,26.8467695 L75.390587,26.8095071 C72.8476792,26.8095071 72.3441331,29.7059042 71.9423033,32.0186915 C71.7907359,32.8480319 71.4337217,34.7907128 73.8270763,35.6784645 C75.9731898,36.503273 80.5851685,36.5450674 81.4875231,36.5450674 C84.140204,36.5450674 92.212048,36.5450674 92.212048,28.119734 C92.212048,24.367812 90.519126,22.2539255 88.498899,21.0066418" id="Fill-9" fill="#FFFFFE"></path>
                        <path d="M104.566552,20.4918667 C105.600835,20.4918667 106.667849,20.6449447 107.366268,20.7421291 C107.845644,20.8096042 108.203665,20.8483773 108.371849,20.8483773 C111.2617,20.8483773 111.486282,16.5848525 111.486282,15.2781503 C111.486282,13.4739447 110.908211,12.5297957 109.422247,12.0005688 C108.006778,11.566512 105.281587,11.4114198 103.378686,11.4114198 C95.3959699,11.4114198 92.1395373,14.3581716 92.1395373,21.5795262 L92.1395373,26.3752993 C92.1395373,33.5981645 95.2116721,36.5449163 102.744722,36.5449163 C105.284608,36.5449163 107.792268,36.2382567 108.939849,35.9396539 C111.247098,35.3635972 111.247098,33.5226326 111.247098,32.0442213 C111.247098,30.8326893 111.247098,27.1467319 108.452417,27.1467319 C108.316963,27.1467319 107.902041,27.1744269 107.351665,27.2147106 C106.427154,27.2821858 105.055495,27.3854128 104.171268,27.3854128 C102.250743,27.3854128 102.250743,27.0676752 102.250743,26.2171858 L102.250743,21.6988667 C102.250743,21.0246184 102.250743,20.4918667 104.566552,20.4918667" id="Fill-11" fill="#FFFFFE"></path>
                        <path d="M125.028349,11.4115709 C123.947235,11.4115709 122.864611,11.5565922 121.760838,11.8536844 L121.760838,4.93244325 C121.760838,3.18161346 120.016051,2.13574821 118.329675,2.13574821 C114.569696,2.13574821 111.997583,2.55218084 111.649129,4.85338651 L111.649129,33.7483723 C111.649129,36.2061808 114.860242,36.5450674 118.329675,36.5450674 C120.016051,36.5450674 121.760838,35.4992021 121.760838,33.7483723 L121.760838,20.8711879 C122.194895,20.7840745 122.683838,20.6889042 123.048405,20.6098475 C123.049916,20.6113581 123.145086,20.7966631 123.145086,21.3827908 L123.145086,33.7483723 C123.145086,36.5450674 127.465008,36.5450674 129.785349,36.5450674 C131.491363,36.5450674 133.254781,35.4992021 133.254781,33.7483723 L133.254781,21.0242659 C133.254781,17.4289468 133.254781,11.4115709 125.028349,11.4115709" id="Fill-13" fill="#FFFFFE"></path>
                        <path d="M152.074061,11.4115709 C148.58348,11.4115709 145.352728,11.7504574 145.352728,14.2082659 L145.352728,27.6146773 C145.023912,27.643883 144.697615,27.6630177 144.463969,27.6630177 C144.244423,27.6630177 144.108969,27.6423723 144.050558,27.6423723 C144.040991,27.6423723 144.034444,27.643883 144.027898,27.6453936 C144.007253,27.5693581 143.969991,27.3951312 143.969991,27.0502021 L143.969991,14.2082659 C143.969991,12.4574362 142.206069,11.4115709 140.500558,11.4115709 C138.180217,11.4115709 133.858785,11.4115709 133.858785,14.2082659 L133.858785,26.9303581 C133.858785,31.5831241 134.644317,36.5450674 144.027898,36.5450674 C148.281856,36.5450674 151.914437,35.726805 153.570097,34.9427837 C155.238345,34.2292589 155.464437,32.8369539 155.464437,31.5685213 L155.464437,14.2082659 C155.464437,12.4574362 153.740799,11.4115709 152.074061,11.4115709" id="Fill-15" fill="#FFFFFE"></path>
                        <path d="M167.910989,20.3289191 C167.830422,20.4079759 167.478443,20.6209759 166.021181,20.7176567 C166.021181,20.1738269 166.045351,19.8173163 167.465854,19.8173163 C167.665762,19.8173163 167.812798,19.8319191 167.916025,19.8480326 L167.910989,20.3289191 Z M177.831854,21.0646 L177.831854,20.0741248 C177.831854,16.3559404 176.815195,11.4116213 168.020762,11.4116213 L167.664252,11.4116213 C160.021429,11.4116213 156.147145,14.5794298 156.147145,20.8274298 L156.147145,26.5738979 C156.147145,35.3366071 161.738521,36.5451177 167.782081,36.5451177 C170.01833,36.5451177 174.019003,36.3079475 175.870039,35.6573659 C177.793081,34.986139 177.793081,33.3178908 177.793081,32.3218766 C177.793081,30.229139 177.793081,27.0678766 175.11623,27.0678766 C174.962649,27.0678766 174.749649,27.0824794 174.489819,27.1066496 C176.713982,25.7526142 177.831854,23.7354085 177.831854,21.0646 Z" id="Fill-17" fill="#FFFFFE"></path>
                        <path d="M128.281559,63.7460234 C128.281559,62.6759879 132.168934,62.6357042 133.237459,62.6357042 C134.031048,62.6357042 134.941459,63.0732858 134.941459,63.7460234 L134.941459,69.9683425 C134.941459,70.6430943 134.031048,71.0786617 133.237459,71.0786617 C132.168934,71.0786617 128.281559,71.0398886 128.281559,69.9683425 L128.281559,63.7460234 Z" id="Fill-19" fill="#D8232A"></path>
                        <path d="M154.250942,68.3047773 C154.250942,69.9297206 154.170374,70.3265149 153.22119,70.5641886 C152.308261,70.8013589 150.010076,71.1190964 147.434438,71.1190964 C141.131552,71.1190964 138.514119,69.2554723 138.514119,62.6358553 L138.514119,57.8400823 C138.514119,51.3398057 141.170325,49.3583518 148.067395,49.3583518 C150.248757,49.3583518 152.585715,49.5567489 153.614963,49.8729759 C154.170374,50.071373 154.489622,50.2294865 154.489622,51.5382028 C154.489622,52.8454085 154.170374,55.4225574 153.060055,55.4225574 C152.666282,55.4225574 150.920488,55.0660468 149.254757,55.0660468 C145.807984,55.0660468 145.253076,56.4538198 145.253076,57.9594227 L145.253076,62.4777418 C145.253076,64.1429688 145.807984,65.3323447 148.860984,65.3323447 C150.248757,65.3323447 152.785622,65.0936638 153.140622,65.0936638 C154.212169,65.0936638 154.250942,67.1541745 154.250942,68.3047773" id="Fill-21" fill="#D8232A"></path>
                        <path d="M169.523092,57.6429943 C169.523092,56.334278 169.165071,55.3432993 167.896638,55.3432993 C166.666978,55.3432993 164.766092,55.7003135 164.766092,55.8584269 L164.766092,70.0085759 C164.766092,70.6833276 163.813886,71.118895 163.019794,71.118895 C161.913,71.118895 158.027134,71.0786113 158.027134,70.0085759 L158.027134,41.1135901 C158.185248,40.1231149 161.831929,40.0828312 163.019794,40.0828312 C163.813886,40.0828312 164.766092,40.5183986 164.766092,41.1926468 L164.766092,50.5072425 C166.273205,49.834505 167.935411,49.3581503 169.719978,49.3581503 C175.942298,49.3581503 176.258525,53.1231645 176.258525,57.284973 L176.258525,70.0085759 C176.258525,70.6833276 175.268049,71.118895 174.476978,71.118895 C173.367163,71.118895 169.523092,71.0786113 169.523092,70.0085759 L169.523092,57.6429943 Z" id="Fill-23" fill="#D8232A"></path>
                        <path d="M11.1905316,12.2888411 L13.8779997,12.2888411 C15.0578905,12.2888411 15.9475316,13.3033949 15.9475316,14.8750113 C15.9475316,15.4635168 15.8672691,16.6002005 15.7332451,17.4945536 C15.4525139,19.367897 15.0998536,20.3127631 13.9167728,20.3127631 L11.1905316,20.3127631 L11.1905316,33.582756 C11.1905316,35.0253293 9.83711061,35.6930752 8.48653165,35.6930752 C7.51463819,35.6930752 6.83419751,35.6769247 6.04518149,35.611301 C3.72937019,35.4186912 2.45308484,35.0048057 2.45308484,33.582756 L2.45308484,20.3127631 L1.3925742,20.3127631 C0.282954814,20.3127631 -0.63868821,19.1318236 -0.63868821,18.0443305 C-0.63868821,17.1924719 -0.582576133,16.0749287 -0.461603444,15.150818 C-0.215232679,13.2687912 0.143481706,12.2888411 1.35229051,12.2888411 L2.45308484,12.2888411 L2.45308484,9.36420282 C2.45308484,4.78739965 5.76623352,2.2612241 10.1905316,2.2612241 C12.7255563,2.2612241 13.8068507,2.39502469 15.2205769,2.76291032 C16.5369772,3.07725075 16.9787941,4.17405534 16.9787941,5.67874892 C16.9787941,8.68326662 16.4225725,10.5238269 14.6700777,10.5238269 C14.532269,10.5238269 14.4450096,10.5097867 14.1994383,10.4622484 C14.091534,10.4411883 14.091534,10.4411883 13.9727194,10.4181951 C13.879206,10.4002888 13.7958415,10.3849693 13.7120433,10.3704815 C13.2496409,10.2905368 12.8280684,10.246373 12.4111699,10.246373 C11.3190268,10.246373 11.1905316,10.2950984 11.1905316,10.3164085 L11.1905316,12.2888411 Z" id="Fill-25" stroke="#FFFFFF" stroke-width="2" fill="#D8232A"></path>
                        <path d="M26.2921231,26.4873383 C25.4995416,26.2904518 24.389726,26.1308276 23.477804,26.1308276 C22.1303146,26.1308276 21.7335203,26.4873383 21.7335203,28.0735085 C21.7335203,29.5000546 22.0512579,29.8565652 23.6762012,29.8565652 C24.4687827,29.8565652 25.3802012,29.7775085 26.2921231,29.619395 L26.2921231,26.4873383 Z M32.7918962,31.9175794 C32.7918962,32.9488418 30.9685558,34.6931255 24.0327118,34.6931255 C17.0958607,34.6931255 15.2332437,32.1950333 15.2332437,27.5588844 C15.2332437,24.1488702 15.8677118,21.2962815 21.6156905,21.2962815 C23.2794068,21.2962815 24.865577,21.5334518 26.2921231,21.770622 L26.2921231,21.2962815 C26.2921231,19.6708347 25.2608607,18.5997922 22.3287118,18.5997922 C20.6247118,18.5997922 17.9685061,18.9563028 17.5329387,18.9563028 C16.2242224,18.9563028 16.1839387,15.8257567 16.1839387,15.2315723 C16.1839387,13.9631397 16.3823359,13.7244589 16.8199175,13.5663454 C17.6507685,13.2888915 20.7828253,12.9323808 23.7940309,12.9323808 C29.6613501,12.9323808 32.7918962,14.2798702 32.7918962,21.1361539 L32.7918962,31.9175794 Z" id="Fill-27" fill="#D8232A"></path>
                        <path d="M48.4208593,21.216973 C48.4208593,19.9082567 48.0643487,18.917278 46.795916,18.917278 C45.5662565,18.917278 43.6638593,19.2742922 43.6638593,19.4324057 L43.6638593,33.5825546 C43.6638593,34.2573064 42.7131643,34.6928737 41.9190721,34.6928737 C40.8107671,34.6928737 36.9264125,34.6525901 36.9264125,33.5825546 L36.9264125,4.68756878 C37.084526,3.6970936 40.7317104,3.65680992 41.9190721,3.65680992 C42.7131643,3.65680992 43.6638593,4.09237729 43.6638593,4.76662552 L43.6638593,14.0812213 C45.1694621,13.4084837 46.8346891,12.9321291 48.6177458,12.9321291 C54.8415756,12.9321291 55.1583061,16.6971433 55.1583061,20.8589518 L55.1583061,33.5825546 C55.1583061,34.2573064 54.1673274,34.6928737 53.3747458,34.6928737 C52.2649302,34.6928737 48.4208593,34.6525901 48.4208593,33.5825546 L48.4208593,21.216973 Z" id="Fill-29" fill="#D8232A"></path>
                        <path d="M68.8035997,18.9174291 C67.7335643,18.9174291 65.7923941,19.194883 65.7923941,19.4320532 L65.7923941,33.5827057 C65.7923941,34.2574574 64.8804721,34.6930248 64.0883941,34.6930248 C63.016848,34.6930248 59.1324934,34.6527411 59.1324934,33.5827057 L59.1324934,16.5386773 C59.1324934,14.0425993 63.9287699,12.9322801 68.4873728,12.9322801 C69.161621,12.9322801 69.5976919,12.9322801 71.024238,13.0903936 C71.8565997,13.209734 72.0937699,13.5662447 72.0937699,14.5169397 C72.0937699,17.8473936 71.5000891,19.0367695 70.8253373,19.0367695 C70.3897699,19.0367695 69.8751458,18.9174291 68.8035997,18.9174291" id="Fill-31" fill="#D8232A"></path>
                        <path d="M80.0704941,28.7465482 C82.4880189,28.7465482 84.0339054,28.6674915 84.0339054,27.9539667 C84.0339054,25.7353425 74.2046855,27.7555695 74.2046855,19.432456 C74.2046855,13.5666475 79.0795153,12.9321794 83.0041536,12.9321794 C86.8482246,12.9321794 88.3150543,13.1305766 89.3845863,13.3677468 C90.0981111,13.5258603 90.2562246,14.1603284 90.2562246,15.0334773 C90.2562246,17.4907823 89.5044302,19.1544986 88.8296785,19.1544986 C87.9968132,19.1544986 87.1256785,18.8770447 84.8259834,18.8770447 C82.1310047,18.8770447 80.9421324,19.0754418 80.9421324,19.6711369 C80.9421324,21.3751369 90.7723593,19.6711369 90.7723593,27.9539667 C90.7723593,33.9799028 86.0153593,34.6929241 81.735721,34.6929241 C79.7527565,34.6929241 76.2249125,34.5333 74.679026,33.9396191 C73.6089905,33.5423213 73.6880473,33.0276972 73.8481749,32.1560589 C74.4821394,28.509378 75.0355366,28.2319241 75.9086855,28.3512645 C76.3039692,28.4303213 77.770799,28.7465482 80.0704941,28.7465482" id="Fill-33" fill="#D8232A"></path>
                        <path d="M109.807862,31.878756 C109.807862,33.5036993 109.728805,33.9004936 108.77811,34.1381674 C107.866692,34.3753376 105.566997,34.6930752 102.991359,34.6930752 C96.6884721,34.6930752 94.0725501,32.8294511 94.0725501,26.209834 L94.0725501,21.414061 C94.0725501,14.9137844 96.7287558,12.9323305 103.625827,12.9323305 C105.805678,12.9323305 108.144146,13.1307276 109.173898,13.4469546 C109.728805,13.6453518 110.046543,13.8034652 110.046543,15.1121815 C110.046543,16.4193872 109.728805,18.9965362 108.618486,18.9965362 C108.223203,18.9965362 106.478919,18.6400255 104.813692,18.6400255 C101.364905,18.6400255 100.811508,20.0277986 100.811508,21.5334014 L100.811508,26.0517206 C100.811508,27.7169475 101.364905,28.9063234 104.417905,28.9063234 C105.805678,28.9063234 108.342543,28.6676425 108.699054,28.6676425 C109.769089,28.6676425 109.807862,30.7281532 109.807862,31.878756" id="Fill-35" fill="#D8232A"></path>
                        <path d="M125.079962,21.216973 C125.079962,19.9082567 124.723452,18.917278 123.455019,18.917278 C122.225359,18.917278 120.322962,19.2742922 120.322962,19.4324057 L120.322962,33.5825546 C120.322962,34.2573064 119.372267,34.6928737 118.578175,34.6928737 C117.46987,34.6928737 113.584005,34.6525901 113.584005,33.5825546 L113.584005,4.68756878 C113.743629,3.6970936 117.389303,3.65680992 118.578175,3.65680992 C119.372267,3.65680992 120.322962,4.09237729 120.322962,4.76662552 L120.322962,14.0812213 C121.830076,13.4084837 123.493792,12.9321291 125.276849,12.9321291 C131.500678,12.9321291 131.817409,16.6971433 131.817409,20.8589518 L131.817409,33.5825546 C131.817409,34.2573064 130.82643,34.6928737 130.033849,34.6928737 C128.924033,34.6928737 125.079962,34.6525901 125.079962,33.5825546 L125.079962,21.216973 Z" id="Fill-37" fill="#D8232A"></path>
                        <path d="M147.287805,14.0424482 C147.287805,12.9709021 151.252727,12.9321291 152.322763,12.9321291 C153.114841,12.9321291 154.026763,13.3676964 154.026763,14.0424482 L154.026763,31.4027035 C154.026763,32.7114198 153.710536,32.9888737 153.155125,33.226044 C151.648011,33.9395688 148.278784,34.6928737 144.2766,34.6928737 C136.111096,34.6928737 135.793359,30.8880794 135.793359,26.765044 L135.793359,14.0424482 C135.793359,12.9709021 139.63894,12.9321291 140.749259,12.9321291 C141.541337,12.9321291 142.532316,13.3676964 142.532316,14.0424482 L142.532316,26.8843844 C142.532316,28.3899872 143.04694,29.1840794 144.712167,29.1840794 C145.545032,29.1840794 147.287805,28.9851787 147.287805,28.906122 L147.287805,14.0424482 Z" id="Fill-39" fill="#D8232A"></path>
                        <path d="M169.85226,19.4322042 C169.85226,18.4815092 169.139239,17.9653745 167.712693,17.9653745 C166.008189,17.9653745 164.581643,18.5202823 164.581643,20.5812964 L164.581643,22.2868071 C168.346657,22.2868071 169.85226,21.810956 169.85226,19.948339 L169.85226,19.4322042 Z M168.03043,34.6931759 C161.846884,34.6931759 158.080359,33.4635163 158.080359,26.4083319 L158.080359,20.6618638 C158.080359,15.7059631 160.855905,12.9324312 167.91109,12.9324312 L168.2676,12.9324312 C175.282501,12.9324312 176.39282,16.1435447 176.39282,19.9080553 L176.39282,20.899034 C176.39282,24.5849915 173.657558,27.3197503 164.581643,27.3197503 C164.581643,29.0242539 166.44426,29.1033106 169.694147,29.1033106 C171.715884,29.1033106 174.530203,28.588183 175.363069,28.588183 C175.837409,28.588183 176.354047,28.7462964 176.354047,32.1563106 C176.354047,33.1065021 176.354047,33.6231404 175.559955,33.9005943 C174.094636,34.4152184 170.486225,34.6931759 168.03043,34.6931759 Z" id="Fill-41" fill="#D8232A"></path>
                        <path d="M49.5945749,43.9180397 L47.3920643,50.2214298 L46.864348,51.8156567 L42.7090855,63.7809191 C42.5167309,64.3005787 42.4311281,64.6993872 42.3989012,65.0574085 C42.299199,66.1742737 42.8928799,66.5307844 44.2388586,66.5307844 C46.1105394,66.5307844 47.9761777,65.0141035 48.8795394,63.0210681 L50.8967451,63.0210681 C47.5693125,69.5213447 42.7332558,70.3990255 40.1384827,70.4005362 C37.2561848,70.4020468 35.1276955,68.967444 35.4293196,65.6173518 C35.4972983,64.8590113 35.7213763,63.9828411 36.0476742,63.0261035 L39.9415962,51.8171674 L40.4723338,50.2229404 L42.4089721,44.7201886 L49.5945749,43.9180397 Z" id="Fill-43" fill="#0074AF"></path>
                        <path d="M62.6091267,51.9704468 C60.1593749,51.9719574 57.4195806,56.2369929 56.0992827,60.187312 C59.8204884,59.9874042 63.3644458,56.9132553 63.6630487,53.6049574 C63.7516728,52.6064255 63.5225593,51.9704468 62.6091267,51.9704468 M59.0470416,66.5823475 C62.8457934,66.5808369 65.0412543,64.8415886 67.6506302,62.5675745 L68.9638785,63.0147234 C65.8962756,66.6825532 61.4746373,70.3926808 55.0811125,70.3957021 C50.5658146,70.3972128 47.7499848,68.564305 48.1568501,64.0570638 C48.5712685,59.4707659 52.5623749,49.8595815 62.4152614,49.8550496 C66.6918785,49.8530354 67.5373324,51.6894681 67.3565593,53.6825035 C66.9436515,58.2688014 61.3361621,61.8188014 55.5428643,62.1012908 C55.3792118,62.6325319 55.3238217,62.8253901 55.3021692,63.6955177 C55.2498004,65.8169574 56.7428146,66.5823475 59.0470416,66.5823475" id="Fill-45" fill="#0074AF"></path>
                        <path d="M73.7824118,63.4116184 C73.5049579,66.4807319 75.041277,66.519505 75.9058657,66.519505 C77.3001848,66.519505 79.4256529,65.3220723 80.2111848,63.0097886 L83.3291423,53.9973206 C83.3724473,53.5179447 83.0335607,52.4821503 81.4977451,52.4821503 C77.4114685,52.483661 74.1212983,59.6632213 73.7824118,63.4116184 Z M91.5525536,50.2051149 L86.8695749,63.7651078 C86.6807451,64.2847674 86.5951423,64.6830723 86.5629153,65.0415972 C86.4627097,66.1579589 87.0307097,66.7566752 88.3766884,66.7551645 C90.2518941,66.7551645 91.7076458,64.9992993 92.6079863,63.0047532 L94.6282132,63.0047532 C91.3007806,69.5065404 86.8967664,70.3827106 84.3019934,70.3842213 C81.6105394,70.3862354 79.9966742,69.1112567 79.9241636,66.7179021 C78.268504,68.5528241 75.8429224,70.3877461 72.4319012,70.3892567 C69.1623763,70.3892567 66.1899437,68.7174837 66.6174543,63.9715617 C67.104887,58.5866397 71.8684331,50.0127603 80.2308231,50.009739 C82.9706175,50.009739 84.0421636,50.8874198 83.9389366,52.0430581 L83.9132558,52.3220227 L84.6328231,50.2066255 L91.5525536,50.2051149 Z" id="Fill-47" fill="#0074AF"></path>
                        <path d="M117.426716,53.6648291 C115.697035,53.6648291 114.24783,55.3416376 113.349,57.3341695 L108.92434,70.1373326 L102.00461,70.1393468 L106.753553,56.3804532 C106.879439,56.061205 106.956986,55.7414532 106.989212,55.3819213 C107.068269,54.5057511 106.76312,53.6295808 105.704666,53.6310915 C103.829461,53.6310915 102.377234,55.3446589 101.478404,57.3376943 L97.0537444,70.1408574 L90.1340139,70.1438787 L97.0295742,50.2034532 L103.948801,50.2004319 L103.232759,52.2740347 C105.424191,50.360056 107.618645,50.0000206 109.30351,50.0000206 C111.849943,49.9985099 113.637532,50.9537369 113.94117,53.4276589 C116.514794,50.474361 119.14834,50.0357723 120.926865,50.0337581 C124.002525,50.0337581 126.144106,51.3475099 125.855071,54.537978 C125.563014,57.7687298 122.819695,62.5952191 122.617773,64.8284461 C122.529149,65.8259709 122.948603,66.5017298 124.391262,66.5017298 C125.208014,66.5017298 125.695447,66.4211624 125.997071,66.2630489 C125.304695,69.1352759 122.889184,70.3699709 120.339227,70.3714815 C116.640681,70.3729922 115.686964,68.1397652 115.891908,65.8677652 C116.137134,63.156673 118.743489,58.2511269 118.972603,55.6981482 C119.091943,54.3828858 118.582354,53.6648291 117.426716,53.6648291" id="Fill-49" fill="#0074AF"></path>
                        <path d="M37.4512082,52.8687227 L51.0338607,52.9009496 C51.5374068,52.9019567 52.0897969,52.5469567 52.2675487,52.1078645 L53.0289104,50.2286305 L39.4462579,50.1964035 C38.9427118,50.1953964 38.3903217,50.5503964 38.2125699,50.9894886 L37.4512082,52.8687227 Z" id="Fill-51" fill="#0074AF"></path>
                    </g>
                </g>
            </g>
        </g>
    </g>
</svg>