<?xml version="1.0" encoding="UTF-8"?>
<svg width="1440px" height="704px" viewBox="0 0 1440 704" version="1.1" xmlns="http://www.w3.org/2000/svg" xmlns:xlink="http://www.w3.org/1999/xlink">
    <!-- Generator: Sketch 52.2 (67145) - http://www.bohemiancoding.com/sketch -->
    <title>race-bg</title>
    <desc>Created with Sketch.</desc>
    <defs>
        <linearGradient x1="71.50834%" y1="12.6432198%" x2="84.4803099%" y2="89.8120012%" id="linearGradient-1">
            <stop stop-color="#D8232A" offset="0%"></stop>
            <stop stop-color="#990C08" offset="100%"></stop>
        </linearGradient>
        <path d="M2075.51614,219.414831 C2003.18058,232.410875 1053.03958,473.094965 1030.68142,489.836641 C982.920963,525.601655 888.335116,563.056987 766.931041,594.561626 C695.489541,613.099788 614.760976,629.579692 528.814837,642.441043 C296.890008,677.146496 93.5622507,675.558539 4.3461353,643.472939 C3.09339148,643.022557 1.86315285,642.566151 0.655655039,642.103738 L0.655655039,544.376887 C82.6822864,489.605088 270.003142,431.593514 492.374802,398.932975 C1036.361,319.03712 1025.96181,176.112621 1292.56443,106.062658 C1662.69231,8.80761223 1951.56036,-6.4896614 2075.51614,2.19261632 L2075.51614,219.414831" id="path-2"></path>
        <polygon id="path-4" points="0.0076692889 0.000276647696 168.098809 0.000276647696 168.098809 133.067542 0.0076692889 133.067542"></polygon>
        <polygon id="path-6" points="0.25009409 0.444296199 181.595425 0.444296199 181.595425 133.067542 0.25009409 133.067542"></polygon>
        <polygon id="path-8" points="0.559581442 0.854764533 203.204019 0.854764533 203.204019 106.726454 0.559581442 106.726454"></polygon>
        <polygon id="path-10" points="0.11915831 0.908710834 200.077346 0.908710834 200.077346 32.0315766 0.11915831 32.0315766"></polygon>
        <polygon id="path-12" points="0.0332791435 0.0800326041 196.98154 0.0800326041 196.98154 87.8039103 0.0332791435 87.8039103"></polygon>
        <polygon id="path-14" points="0.367034646 0.0816110702 219.22026 0.0816110702 219.22026 5.80960161 0.367034646 5.80960161"></polygon>
        <polygon id="path-16" points="0.655655039 0.216419918 220.361509 0.216419918 220.361509 62.9056177 0.655655039 62.9056177"></polygon>
        <polygon id="path-18" points="0.655655039 0.548151732 2075.51614 0.548151732 2075.51614 509.308408 0.655655039 509.308408"></polygon>
        <polygon id="path-20" points="0.0583772372 0.935822308 211.251228 0.935822308 211.251228 90.1275927 0.0583772372 90.1275927"></polygon>
        <polygon id="path-22" points="0.00166445958 0.912937396 195.096386 0.912937396 195.096386 124.768111 0.00166445958 124.768111"></polygon>
        <polygon id="path-24" points="0.675020378 0.0459280909 207.635162 0.0459280909 207.635162 44.8639614 0.675020378 44.8639614"></polygon>
        <polygon id="path-26" points="0.920606685 0.106709164 181.292138 0.106709164 181.292138 59.6963462 0.920606685 59.6963462"></polygon>
        <polygon id="path-28" points="0.618030952 0.354308852 154.519911 0.354308852 154.519911 48.6304383 0.618030952 48.6304383"></polygon>
        <polygon id="path-30" points="0.974552985 0.720667247 198.362684 0.720667247 198.362684 25.1749403 0.974552985 25.1749403"></polygon>
        <polygon id="path-32" points="0.172274668 0.713950856 205.693848 0.713950856 205.693848 73.528731 0.172274668 73.528731"></polygon>
        <polygon id="path-34" points="0.117933338 0.0779378036 210.729824 0.0779378036 210.729824 134.391224 0.117933338 134.391224"></polygon>
        <polygon id="path-36" points="0.117933338 0.296749562 241.27173 0.296749562 241.27173 36.5645305 0.117933338 36.5645305"></polygon>
    </defs>
    <g id="Page-1" stroke="none" stroke-width="1" fill="none" fill-rule="evenodd">
        <g id="Desktop-HD-Home" transform="translate(0.000000, -1120.000000)">
            <g id="Bundles" transform="translate(-152.000000, 1104.000000)">
                <g id="race-bg">
                    <path d="M152,574.046491 C295.833866,592.68772 467.306358,565.234608 666.417476,491.687154 C965.084152,381.365973 1051.55997,204.066742 1211.50235,122.616563 C1318.1306,68.3164436 1444.96315,32.7774337 1592,15.9995334 L1592,720 L152,720 L152,574.046491 Z" id="Rectangle" fill="url(#linearGradient-1)"></path>
                    <g id="Group-172" opacity="0.122488839" transform="translate(0.050823, 0.893089)">
                        <g id="Group-3">
                            <mask id="mask-3" fill="white">
                                <use xlink:href="#path-2"></use>
                            </mask>
                            <g id="Clip-2"></g>
                            <path d="M2133.05609,10.9871447 C2076.91874,-9.23026895 1745.61653,-12.9816117 1292.56443,106.062658 C1025.96181,176.112621 1036.361,319.03712 492.374802,398.932975 C260.355913,433.010438 66.4950401,494.686275 -9.41985404,551.484814 C-33.6652581,569.61907 -45.8709544,587.324523 -43.4336882,603.599707 C-43.4253888,603.655036 -43.4170894,603.715899 -43.4060235,603.773995 C-40.8719306,619.968951 -24.0406848,633.267405 4.3461353,643.472939 C93.5622507,675.558539 296.890008,677.146496 528.814837,642.441043 C614.760976,629.579692 695.489541,613.099788 766.931041,594.561626 C888.335116,563.056987 982.920963,525.601655 1030.68142,489.836641 C1054.7885,471.785379 2157.50345,193.386503 2075.51337,220.760793 C2075.40548,220.805057 2075.50231,220.639068 2075.50784,220.575439 C2077.24242,202.869986 2161.49548,21.2286424 2133.05609,10.9871447" id="Fill-1" mask="url(#mask-3)"></path>
                        </g>
                        <path d="M944.429863,438.17794 C984.516114,406.225131 1021.92165,365.059954 1055.7529,323.756453 L1145.24843,416.516426 C1112.02304,456.658006 1075.45021,496.329286 1036.35989,527.120174 L944.429863,438.17794 Z" id="Fill-6" fill="#FFFFFF"></path>
                        <path d="M401.649297,453.918918 C440.570861,438.841618 476.842141,425.949835 510.59316,418.010047 L596.544832,507.256593 C563.294546,515.694348 527.689987,528.669125 489.512605,543.552771 L401.649297,453.918918 Z" id="Fill-8" fill="#FFFFFF"></path>
                        <path d="M169.567885,538.46273 C210.763494,526.705203 249.853813,512.955812 286.921838,498.929774 L286.949503,498.929774 L377.551623,587.457037 C340.536161,601.427746 301.528836,615.011147 260.418989,626.602686 L169.567885,538.46273 Z" id="Fill-10" fill="#FFFFFF"></path>
                        <path d="M1727.39955,254.898842 C1702.50126,247.92732 1678.73722,242.145383 1655.99402,237.442372 L1574.93901,122.41226 C1593.0871,126.312993 1611.89914,130.960674 1631.4028,136.410634 C1674.53218,148.472473 1714.25879,148.942774 1752.18719,142.496883 L1830.72747,261.815034 C1798.11071,266.435051 1763.99728,265.134807 1727.39955,254.898842" id="Fill-15" fill="#5D5D5D"></path>
                        <path d="M1508.48851,220.760793 C1452.87956,220.428816 1406.04587,228.036627 1366.31649,240.513438 L1280.00518,131.043945 C1320.86604,116.10497 1369.08297,106.560624 1426.40714,106.062658 L1508.48851,220.760793 Z" id="Fill-17" fill="#5D5D5D"></path>
                        <path d="M1166.24792,390.566872 C1159.41196,399.19828 1152.38511,407.857353 1145.2476,416.516426 L1055.75483,323.756453 C1061.31268,316.95092 1066.82074,310.117722 1072.21537,303.312189 C1091.82969,278.607549 1117.64092,241.95173 1155.92896,206.955796 L1244.53922,306.548967 C1209.18364,335.845958 1184.83865,367.134812 1166.24792,390.566872" id="Fill-19" fill="#5D5D5D"></path>
                        <path d="M596.545386,507.257423 L510.593713,418.010877 C544.203642,410.126417 575.326507,407.193952 604.153197,411.952292 L686.760199,497.740742 C658.849213,495.084925 628.830172,499.040987 596.545386,507.257423" id="Fill-21" fill="#5D5D5D"></path>
                        <path d="M489.512052,543.552494 C454.405459,557.246555 417.11335,572.545173 377.549963,587.45925 L286.947843,498.929221 C327.590156,483.547609 365.739873,467.806355 401.648744,453.918641 L489.512052,543.552494 Z" id="Fill-23" fill="#5D5D5D"></path>
                        <path d="M260.418435,626.602133 C220.719491,637.809131 179.028683,647.129392 135.293449,653.104982 L46.1271302,565.158679 C89.2288412,559.0171 130.366354,549.638744 169.567332,538.462177 L260.418435,626.602133 Z" id="Fill-25" fill="#5D5D5D"></path>
                        <path d="M1747.23492,366.941159 C1689.41555,352.583143 1638.6507,344.007065 1593.8891,340.078667 L1508.48796,220.760516 C1552.02954,220.981834 1600.94362,226.072152 1655.99651,237.442372 L1747.23492,366.941159 Z" id="Fill-29" fill="#5D5D5D"></path>
                        <path d="M1532.52781,451.291594 L1448.89998,345.252533 C1488.70682,337.561727 1536.31788,335.016568 1593.89104,340.079221 L1673.83945,451.78956 C1618.84189,445.841635 1572.25442,446.284271 1532.52781,451.291594" id="Fill-36" fill="#5D5D5D"></path>
                        <path d="M1448.8986,345.252256 C1395.39493,355.515885 1356.0003,375.019548 1325.48606,397.566335 L1244.53894,306.549243 C1275.52349,280.793343 1314.94578,256.586669 1366.31649,240.513438 L1448.8986,345.252256 Z" id="Fill-38" fill="#5D5D5D"></path>
                        <path d="M1490.17416,582.727745 L1407.78847,490.106096 C1439.82427,472.148894 1480.2425,457.790879 1532.52892,451.292424 L1610.29458,549.886897 C1560.94064,555.087873 1521.79499,567.152479 1490.17416,582.727745" id="Fill-42" fill="#5D5D5D"></path>
                        <path d="M1306.06567,583.170657 L1227.91269,502.195877 C1235.57583,493.008407 1243.01766,483.768374 1250.29349,474.611335 C1269.26876,450.708974 1292.03963,422.324921 1325.48634,397.564952 L1407.78903,490.103606 C1363.90993,514.645023 1335.69464,545.958776 1314.06079,573.180909 C1311.42987,576.500682 1308.77405,579.82322 1306.06567,583.170657" id="Fill-44" fill="#5D5D5D"></path>
                        <path d="M1121.95441,609.922213 L1036.36238,527.118791 C1075.44993,496.327903 1112.02276,456.65939 1145.24815,416.515042 L1227.91325,502.1956 C1195.5178,541.255488 1159.93814,579.737183 1121.95441,609.922213" id="Fill-46" fill="#5D5D5D"></path>
                        <g id="Group-50" transform="translate(1387.447750, 582.726638)">
                            <mask id="mask-5" fill="white">
                                <use xlink:href="#path-4"></use>
                            </mask>
                            <g id="Clip-49"></g>
                            <path d="M59.0166228,145.959601 L0.0076692889,84.7927954 C23.2737405,56.1597589 54.1752881,23.9303023 102.726959,0.000276647696 L168.098809,73.4779046 C118.385218,92.0686298 84.4654443,119.152439 59.0166228,145.959601" id="Fill-48" fill="#5D5D5D" mask="url(#mask-5)"></path>
                        </g>
                        <g id="Group-53" transform="translate(1205.860271, 582.726638)">
                            <mask id="mask-7" fill="white">
                                <use xlink:href="#path-6"></use>
                            </mask>
                            <g id="Clip-52"></g>
                            <path d="M86.702499,192.244144 L0.25009409,108.613545 C36.2142945,76.6856347 69.7439953,38.289701 100.205673,0.444296199 L181.595425,84.7914121 C180.154091,86.5647239 178.745954,88.3325026 177.362715,90.0753831 C149.670281,124.988322 119.266699,160.89996 86.702499,192.244144" id="Fill-51" fill="#5D5D5D" mask="url(#mask-7)"></path>
                        </g>
                        <g id="Group-56" transform="translate(1002.907453, 609.067725)">
                            <mask id="mask-9" fill="white">
                                <use xlink:href="#path-8"></use>
                            </mask>
                            <g id="Clip-55"></g>
                            <path d="M92.2682926,150.576497 L0.559581442,58.6188034 C41.9488432,52.2835712 81.6726858,30.5639606 119.04779,0.854764533 L203.204019,82.2721814 C168.291079,113.309286 131.109629,138.207579 92.2682926,150.576497" id="Fill-54" fill="#5D5D5D" mask="url(#mask-9)"></path>
                        </g>
                        <path d="M828.210719,598.856305 C809.122028,588.537346 788.899082,583.115051 767.431221,581.480063 L686.788417,497.738806 C709.584187,499.899424 730.996719,506.480873 751.053677,518.764031 L694.86653,460.419032 C709.279875,470.962075 723.471902,479.150847 737.666695,485.181767 L737.691593,485.181767 L812.718448,563.082992 C799.384029,555.61627 785.938951,546.124488 772.410879,534.42229 C765.467022,528.421802 758.357176,523.220825 751.081342,518.764031 L828.210719,598.856305 Z" id="Fill-57" fill="#5D5D5D"></path>
                        <path d="M767.43205,684.671314 L678.10251,591.939006 C710.027654,583.639575 739.739616,579.379201 767.43205,581.481723 L869.791698,687.742103 C838.641167,677.201826 804.610734,677.506138 767.43205,684.671314" id="Fill-59" fill="#5D5D5D"></path>
                        <path d="M678.10251,591.940113 C645.236763,600.488527 610.019512,613.380309 572.340095,628.070302 L489.511775,543.551664 C527.689157,528.668018 563.293716,515.693241 596.546769,507.258253 L678.10251,591.940113 Z" id="Fill-61" fill="#5D5D5D"></path>
                        <g id="Group-65" transform="translate(659.864310, 683.762603)">
                            <mask id="mask-11" fill="white">
                                <use xlink:href="#path-10"></use>
                            </mask>
                            <g id="Clip-64"></g>
                            <path d="M90.2205463,125.621492 L0.11915831,33.7191275 C38.5704215,19.2227883 74.3133038,7.32693737 107.569123,0.908710834 L200.077346,96.933126 C166.270998,100.750864 129.725837,111.45713 90.2205463,125.621492" id="Fill-63" fill="#5D5D5D" mask="url(#mask-11)"></path>
                        </g>
                        <g id="Group-68" transform="translate(463.001652, 627.990269)">
                            <mask id="mask-13" fill="white">
                                <use xlink:href="#path-12"></use>
                            </mask>
                            <g id="Clip-67"></g>
                            <path d="M90.4417461,131.321699 L0.0332791435,42.9853237 C38.6283992,28.4087566 75.0048047,13.4670146 109.336784,0.0800326041 L196.98154,89.4925679 C163.532067,102.080038 128.068599,116.656605 90.4417461,131.321699" id="Fill-66" fill="#5D5D5D" mask="url(#mask-13)"></path>
                        </g>
                        <path d="M463.035761,670.9767 C426.213953,684.892079 387.400281,698.475481 346.484087,710.067019 L260.418989,626.602409 C301.528836,615.013637 340.536161,601.427469 377.551623,587.459527 L463.035761,670.9767 Z" id="Fill-69" fill="#5D5D5D"></path>
                        <g id="Group-73" transform="translate(219.994474, 709.984578)">
                            <mask id="mask-15" fill="white">
                                <use xlink:href="#path-14"></use>
                            </mask>
                            <g id="Clip-72"></g>
                            <path d="M95.3401886,120.675108 L0.367034646,27.0021983 C44.4619109,20.9408473 86.4874623,11.4794961 126.490719,0.0816110702 L219.22026,90.0225434 C179.966719,102.302935 138.690883,113.036865 95.3401886,120.675108" id="Fill-71" fill="#5D5D5D" mask="url(#mask-15)"></path>
                        </g>
                        <g id="Group-76" transform="translate(0.000000, 652.888562)">
                            <mask id="mask-17" fill="white">
                                <use xlink:href="#path-16"></use>
                            </mask>
                            <g id="Clip-75"></g>
                            <path d="M80.8757407,90.486563 L-8.23248213,6.19201015 C41.9237451,8.98615187 89.7284669,6.4133283 135.292342,0.216419918 L220.361509,84.0960013 C176.014883,90.2099153 129.565735,92.8657332 80.8757407,90.486563" id="Fill-74" fill="#5D5D5D" mask="url(#mask-17)"></path>
                        </g>
                        <g id="Group-79" transform="translate(0.000000, 206.485772)">
                            <mask id="mask-19" fill="white">
                                <use xlink:href="#path-18"></use>
                            </mask>
                            <g id="Clip-78"></g>
                            <path d="M-154.717714,486.679456 C-70.9211266,518.383282 7.50849511,533.349923 80.875464,536.888247 L186.001588,636.318195 C231.067498,635.958553 274.141544,631.47686 315.334386,624.173361 L411.109818,718.648549 C372.517465,726.698997 332.209896,732.480934 290.104116,734.802008 L375.892567,815.945544 C414.982886,811.325527 452.465882,803.963932 488.405185,794.862223 L568.522357,873.875571 C609.881188,861.564749 649.082166,847.400387 686.208287,833.097701 L608.248966,757.462221 C647.28119,743.325524 684.158328,728.441878 719.018704,714.581828 L796.120417,789.94066 C833.301867,775.693304 868.018386,763.628698 900.413831,756.272636 L822.318953,676.595333 C865.724977,663.014697 905.285597,655.376455 941.360457,658.723892 L859.94304,574.210787 C908.55004,568.677833 951.485762,577.336906 989.386497,610.174988 C995.804723,615.73284 1002.19252,620.795493 1008.58585,625.362946 L869.791698,481.257161 C887.524815,487.260416 904.31733,496.774331 920.224573,510.554152 C939.672906,527.401997 958.982915,539.654723 978.043941,547.929256 L828.211549,392.370257 C837.921883,397.598898 847.327905,404.072454 856.457279,411.984578 C867.578516,421.609152 878.616759,429.717696 889.627338,436.467899 L812.719278,356.596943 C849.209109,377.071639 884.979656,382.466269 919.588283,377.124202 L831.531322,288.821024 C870.895522,281.351536 908.743693,260.160323 944.431246,231.693275 L1036.36128,320.635509 C999.484138,349.680751 960.366153,370.8443 919.615948,377.124202 L1003.4651,461.200203 C966.673721,466.843816 928.551668,460.339829 889.655002,436.492798 L1006.06835,557.335278 C996.800655,555.122096 987.449963,552.023642 978.071606,547.954154 L1085.05127,659.003306 C1059.98699,654.632272 1034.48007,643.953671 1008.64118,625.415509 L1123.20099,744.321455 C1091.88447,738.926825 1059.821,723.600543 1027.34256,695.465472 C1001.14402,672.780361 972.56355,661.631459 941.360457,658.754323 L1059.10172,780.977275 C1061.17657,782.609496 1063.25143,784.324712 1065.29862,786.092491 C1115.2612,829.390622 1164.20018,842.310069 1211.00897,835.504536 L1123.20099,744.321455 C1138.41661,746.949608 1153.49391,747.226256 1168.34989,745.483376 L1246.4752,826.566049 C1251.09522,824.964259 1255.68757,823.166049 1260.22459,821.174185 L1184.66934,742.772228 C1208.76812,737.598916 1232.31084,727.335287 1255.07894,713.472471 L1324.15787,782.720155 C1357.77057,757.074914 1389.55739,724.707134 1418.9927,690.790126 L1355.05942,628.931701 C1378.43338,604.144068 1400.5403,577.613554 1421.17822,551.60867 C1428.67537,542.147319 1436.9748,532.188002 1446.46382,522.20102 L1510.34177,588.430479 C1538.61517,564.804766 1575.65553,543.143251 1626.83535,529.891826 L1555.54601,449.719324 C1588.16277,437.516394 1627.5574,428.970747 1675.86009,426.536247 L1746.82022,516.529743 C1784.94228,516.80639 1828.01632,520.624128 1876.84464,528.978889 L1808.59565,433.590763 C1854.26742,439.950894 1905.33659,450.493938 1962.60543,466.124532 L2031.87801,564.442357 C2076.44595,572.523236 2117.72179,566.10501 2157.50373,551.60867 L2101.70389,466.871481 C2135.28892,456.912164 2167.6816,440.700609 2199.88615,421.968794 L2156.45247,339.832093 C2121.12179,360.055039 2085.52,376.988645 2048.25555,385.703047 L1982.19208,285.362928 C2022.7763,275.345515 2061.39632,255.706295 2099.90291,232.88286 L2038.48989,116.718493 C2161.2938,47.418245 2286.00658,-45.0927445 2462.42482,26.282361 C2466.9895,50.7352509 2468.45574,78.0154801 2467.23849,107.42313 C2466.10423,136.88611 2462.28649,168.534606 2456.3109,201.73233 C2450.80561,232.495553 2443.44679,264.614351 2434.59406,297.53266 L2434.59406,297.563091 C2424.13678,336.70874 2411.54931,377.013543 2397.55093,417.628191 C2372.45899,490.549757 2342.77469,564.500453 2312.28811,634.575314 C2298.78771,665.615186 2285.12131,695.880444 2271.64857,724.956117 C2253.99844,762.96751 2236.65263,798.93171 2220.33042,831.93578 C2200.93742,871.109094 2182.98298,906.077363 2167.6567,935.29136 C2152.46597,964.256373 2139.88127,987.577774 2131.02578,1003.73123 C2122.03473,1020.13921 2116.94717,1029.13026 2116.94717,1029.13026 L-70.1188483,1029.13026 C-201.96914,790.549285 -392.026107,396.907279 -154.717714,486.679456" id="Fill-77" fill="#5D5D5D" mask="url(#mask-19)"></path>
                        </g>
                        <path d="M1366.3176,240.512608 C1406.04421,228.035797 1452.88066,220.427986 1508.48962,220.759963 L1593.89076,340.078114 C1536.31761,335.015461 1488.70654,337.56062 1448.8997,345.251426 L1366.3176,240.512608 Z" id="Fill-83" fill="#FFFFFF"></path>
                        <path d="M1145.24787,416.516149 C1152.38538,407.857076 1159.41223,399.198003 1166.2482,390.566595 C1184.83892,367.134535 1209.18115,335.845681 1244.5395,306.54869 L1325.48385,397.565782 C1292.03991,422.325751 1269.26903,450.709804 1250.29377,474.612165 C1243.01793,483.769204 1235.57334,493.009237 1227.91297,502.19394 L1145.24787,416.516149 Z" id="Fill-85" fill="#FFFFFF"></path>
                        <path d="M919.615395,583.611081 C960.3656,577.331178 999.483584,556.167629 1036.36072,527.119621 L1121.95552,609.923043 C1084.58042,639.632239 1044.85657,661.35185 1003.46731,667.687082 L919.615395,583.611081 Z" id="Fill-87" fill="#FFFFFF"></path>
                        <path d="M596.545386,507.257423 C628.830172,499.040987 658.849213,495.084925 686.760199,497.740742 L686.787864,497.740742 L767.433434,581.482 C739.740999,579.379477 710.029037,583.639852 678.101126,591.939283 L596.545386,507.257423 Z" id="Fill-89" fill="#FFFFFF"></path>
                        <path d="M377.550516,587.458143 C417.113903,572.544066 454.403246,557.248215 489.512605,543.551388 L572.338159,628.070025 C538.00618,641.459774 501.629774,656.398749 463.034654,670.975316 L377.550516,587.458143 Z" id="Fill-91" fill="#FFFFFF"></path>
                        <g id="Group-95" transform="translate(135.233689, 625.666587)">
                            <mask id="mask-21" fill="white">
                                <use xlink:href="#path-20"></use>
                            </mask>
                            <g id="Clip-94"></g>
                            <path d="M0.0583772372,27.4386716 C43.7963779,21.4630813 85.4871857,12.1428205 125.183364,0.935822308 L211.251228,84.4004321 C171.247971,95.7983172 129.22242,105.259668 85.1275437,111.318253 L0.0583772372,27.4386716 Z" id="Fill-93" fill="#FFFFFF" mask="url(#mask-21)"></path>
                        </g>
                        <path d="M1325.48495,397.565505 C1355.99919,375.018718 1395.39659,355.515056 1448.89749,345.251426 L1532.52809,451.290488 C1480.24167,457.791709 1439.82344,472.149724 1407.78764,490.104159 L1325.48495,397.565505 Z" id="Fill-99" fill="#FFFFFF"></path>
                        <path d="M1121.95441,609.922213 C1159.93814,579.737183 1195.5178,541.255488 1227.91325,502.1956 L1306.06622,583.170381 C1275.60454,621.015786 1242.07484,659.414486 1206.11064,691.33963 L1121.95441,609.922213 Z" id="Fill-101" fill="#FFFFFF"></path>
                        <g id="Group-105" transform="translate(572.337048, 591.026069)">
                            <mask id="mask-23" fill="white">
                                <use xlink:href="#path-22"></use>
                            </mask>
                            <g id="Clip-104"></g>
                            <path d="M0.00166445958,37.0431265 C37.6810806,22.3531338 72.9010988,9.46135119 105.764079,0.912937396 L195.096386,93.645245 C161.840566,100.063472 126.097684,111.959322 87.6464209,126.455662 L0.00166445958,37.0431265 Z" id="Fill-103" fill="#FFFFFF" mask="url(#mask-23)"></path>
                        </g>
                        <g id="Group-108" transform="translate(345.809620, 670.930218)">
                            <mask id="mask-25" fill="white">
                                <use xlink:href="#path-24"></use>
                            </mask>
                            <g id="Clip-107"></g>
                            <path d="M0.675020378,39.1362475 C41.5912146,27.5474755 80.4048863,13.9613072 117.226695,0.0459280909 L207.635162,88.3823038 C171.587967,102.436007 133.548909,116.542273 93.407328,129.07718 L0.675020378,39.1362475 Z" id="Fill-106" fill="#FFFFFF" mask="url(#mask-25)"></path>
                        </g>
                        <path d="M1426.40741,106.062935 C1470.30864,105.620299 1519.58236,110.544628 1574.9368,122.412814 L1655.99457,237.442926 C1600.94445,226.072705 1552.03037,220.982388 1508.48879,220.76107 L1426.40741,106.062935 Z" id="Fill-122" fill="#FFFFFF"></path>
                        <path d="M1532.52781,451.291594 C1572.25442,446.284271 1618.84189,445.841635 1673.83945,451.78956 L1745.26989,551.604049 C1693.23246,545.877442 1648.66451,545.794447 1610.29348,549.888833 L1532.52781,451.291594 Z" id="Fill-131" fill="#FFFFFF"></path>
                        <path d="M1155.92758,206.95552 C1187.57608,177.990506 1227.77299,150.132083 1280.00684,131.043392 L1366.31815,240.512885 C1314.94468,256.586116 1275.52238,280.79279 1244.53784,306.54869 L1155.92758,206.95552 Z" id="Fill-133" fill="#FFFFFF"></path>
                        <path d="M1490.17416,582.727745 C1521.79499,567.152479 1560.94064,555.087873 1610.29458,549.886897 L1675.86009,633.022296 C1627.5574,635.456795 1588.16277,644.002443 1555.54601,656.205373 L1490.17416,582.727745 Z" id="Fill-135" fill="#FFFFFF"></path>
                        <g id="Group-139" transform="translate(1445.543766, 656.097833)">
                            <mask id="mask-27" fill="white">
                                <use xlink:href="#path-26"></use>
                            </mask>
                            <g id="Clip-138"></g>
                            <path d="M0.920606685,72.5884054 C26.3694282,45.7812437 60.2892022,18.6974343 110.002793,0.106709164 L181.292138,80.2792114 C130.112314,93.530636 93.0719541,115.192151 64.7985596,138.817864 L0.920606685,72.5884054 Z" id="Fill-137" fill="#FFFFFF" mask="url(#mask-27)"></path>
                        </g>
                        <path d="M1306.06567,583.170657 C1308.77405,579.82322 1311.42987,576.500682 1314.06079,573.180909 C1335.69464,545.958776 1363.90993,514.645023 1407.78903,490.103606 L1490.17471,582.728021 C1441.62304,606.65528 1410.72149,638.887503 1387.45542,667.517773 L1306.06567,583.170657 Z" id="Fill-140" fill="#FFFFFF"></path>
                        <g id="Group-144" transform="translate(1291.944739, 667.163741)">
                            <mask id="mask-29" fill="white">
                                <use xlink:href="#path-28"></use>
                            </mask>
                            <g id="Clip-143"></g>
                            <path d="M0.618030952,107.80704 C33.1822312,76.4628564 63.585813,40.551219 91.2782473,5.63827984 C92.6614858,3.89539936 94.0696226,2.12762058 95.5109571,0.354308852 L154.519911,61.5238809 C145.028128,71.5108627 136.728697,81.4674132 129.231545,90.9287644 C108.593627,116.936414 86.4894757,143.466928 63.1155119,168.254562 L0.618030952,107.80704 Z" id="Fill-142" fill="#FFFFFF" mask="url(#mask-29)"></path>
                        </g>
                        <g id="Group-147" transform="translate(1094.201193, 690.619239)">
                            <mask id="mask-31" fill="white">
                                <use xlink:href="#path-30"></use>
                            </mask>
                            <g id="Clip-146"></g>
                            <path d="M0.974552985,69.0249833 C39.8158895,56.6560648 76.9973398,31.7577722 111.910279,0.720667247 L198.362684,84.3512657 C164.998972,116.467297 129.366749,143.800089 92.0193096,160.288292 L0.974552985,69.0249833 Z" id="Fill-145" fill="#FFFFFF" mask="url(#mask-31)"></path>
                        </g>
                        <path d="M737.692423,485.180937 C769.697795,498.736674 801.07241,501.143509 831.531322,495.306243 L919.588283,583.612187 C884.979656,588.951488 849.209109,583.556858 812.719278,563.084928 L737.692423,485.180937 Z" id="Fill-148" fill="#FFFFFF"></path>
                        <g id="Group-152" transform="translate(889.481898, 642.265449)">
                            <mask id="mask-33" fill="white">
                                <use xlink:href="#path-32"></use>
                            </mask>
                            <g id="Clip-151"></g>
                            <path d="M0.172274668,0.713950856 C39.0717072,24.5609822 77.1909932,31.0649696 113.985137,25.4213566 L205.693848,117.379051 C176.814595,126.588652 147.016872,128.857164 116.585625,121.556431 L0.172274668,0.713950856 Z" id="Fill-150" fill="#FFFFFF" mask="url(#mask-33)"></path>
                        </g>
                        <path d="M751.081895,518.765137 C758.357729,523.219165 765.467575,528.420142 772.411432,534.423397 C785.939505,546.125595 799.384583,555.61461 812.719002,563.084098 L889.627061,642.952288 C878.616483,636.204851 867.57824,628.096307 856.457002,618.471733 C847.327628,610.556843 837.921607,604.083287 828.211273,598.857412 L751.081895,518.765137 Z" id="Fill-153" fill="#FFFFFF"></path>
                        <path d="M604.153197,411.951739 C630.824802,416.350437 655.501776,427.361015 678.377774,447.16899 C683.858165,451.899666 689.305358,456.2707 694.727653,460.282091 L694.865977,460.420415 L751.05589,518.765414 C730.998932,506.482256 709.583634,499.898041 686.787864,497.740189 L686.760199,497.740189 L604.153197,411.951739 Z" id="Fill-155" fill="#FFFFFF"></path>
                        <g id="Group-159" transform="translate(767.314117, 581.402956)">
                            <mask id="mask-35" fill="white">
                                <use xlink:href="#path-34"></use>
                            </mask>
                            <g id="Clip-158"></g>
                            <path d="M0.117933338,0.0779378036 C21.5857945,1.71015921 41.8059746,7.13245404 60.8974321,17.4541796 L210.729824,173.010412 C191.668798,164.738646 172.358789,152.483153 152.907689,135.635309 C137.000447,121.858253 120.210698,112.344339 102.477581,106.341084 L0.117933338,0.0779378036 Z" id="Fill-157" fill="#FFFFFF" mask="url(#mask-35)"></path>
                        </g>
                        <g id="Group-162" transform="translate(767.314117, 679.229649)">
                            <mask id="mask-37" fill="white">
                                <use xlink:href="#path-36"></use>
                            </mask>
                            <g id="Clip-161"></g>
                            <path d="M0.117933338,5.44166475 C37.2966172,-1.72351057 71.3270502,-2.02782304 102.477581,8.51245417 L241.27173,152.618239 C234.878401,148.053552 228.490606,142.990899 222.069613,137.43028 C184.171645,104.592199 141.235923,95.933126 92.6261563,101.46608 L0.117933338,5.44166475 Z" id="Fill-160" fill="#FFFFFF" mask="url(#mask-37)"></path>
                        </g>
                    </g>
                </g>
            </g>
        </g>
    </g>
</svg>